<svg id="Layer_1" data-name="Layer 1" xmlns="http://www.w3.org/2000/svg" xmlns:xlink="http://www.w3.org/1999/xlink" viewBox="0 0 818.06 409.91"><defs><style>.cls-1,.cls-26{fill:none}.cls-1{stroke:#888a8c;stroke-dasharray:4}.cls-3{fill:#ebf4dd;stroke:#c6db57}.cls-4{font-size:12px;font-family:ArialMT,Arial}.cls-12,.cls-4{fill:#231f20}.cls-5{letter-spacing:-.02em}.cls-7{fill:#f8bfd8;stroke:#ed1d7f}.cls-9{letter-spacing:-.07em}.cls-11{fill:#ffdd9f;stroke:#fcb461}.cls-12{font-size:14px;font-family:Arial-BoldMT,Arial;font-weight:700}.cls-26{stroke:#c7c8ca;stroke-width:2px;stroke-dasharray:3}</style><linearGradient id="linear-gradient" x1="586.41" y1="440.29" x2="736.05" y2="261.95" gradientTransform="matrix(1 0 0 -1 0 584.02)" gradientUnits="userSpaceOnUse"><stop offset="0" stop-color="#7ac9ad"/><stop offset=".25" stop-color="#7dcaaf"/><stop offset=".42" stop-color="#86ceb4"/><stop offset=".56" stop-color="#95d4be"/><stop offset=".7" stop-color="#aaddcb"/><stop offset=".82" stop-color="#c6e8dc"/><stop offset=".93" stop-color="#e8f6f1"/><stop offset="1" stop-color="#fff"/></linearGradient><linearGradient id="linear-gradient-2" x1="756.99" y1="344.32" x2="770.62" y2="328.08" xlink:href="#linear-gradient"/><linearGradient id="linear-gradient-3" x1="741.59" y1="363.31" x2="788.25" y2="307.7" xlink:href="#linear-gradient"/><linearGradient id="linear-gradient-4" x1="747.6" y1="355.19" x2="780.63" y2="315.83" xlink:href="#linear-gradient"/><linearGradient id="linear-gradient-5" x1="606.2" y1="503.19" x2="720.64" y2="366.8" gradientTransform="matrix(1 0 0 -1 0 584.02)" gradientUnits="userSpaceOnUse"><stop offset="0" stop-color="#51c4ca"/><stop offset=".16" stop-color="#55c5cb"/><stop offset=".31" stop-color="#60c9cf"/><stop offset=".46" stop-color="#73d0d4"/><stop offset=".61" stop-color="#8ed9dd"/><stop offset=".75" stop-color="#b0e4e7"/><stop offset=".89" stop-color="#daf2f4"/><stop offset="1" stop-color="#fff"/></linearGradient><linearGradient id="linear-gradient-6" x1="742.33" y1="477.76" x2="785.27" y2="426.58" xlink:href="#linear-gradient-5"/><linearGradient id="linear-gradient-7" x1="763.46" y1="454.61" x2="766.39" y2="451.12" xlink:href="#linear-gradient-5"/><linearGradient id="linear-gradient-8" x1="744.11" y1="475.89" x2="784.12" y2="428.21" xlink:href="#linear-gradient-5"/><linearGradient id="linear-gradient-9" x1="590.18" y1="358.91" x2="543.54" y2="439.69" gradientTransform="scale(1 -1) rotate(7.5 4595.124 57.205)" gradientUnits="userSpaceOnUse"><stop offset="0" stop-color="#fff"/><stop offset=".1" stop-color="#fffcf6"/><stop offset=".28" stop-color="#fff3dd"/><stop offset=".49" stop-color="#fee4b5"/><stop offset=".75" stop-color="#fed17e"/><stop offset="1" stop-color="#fdba3f"/><stop offset="1" stop-color="#faa436"/><stop offset="1" stop-color="#f8932f"/><stop offset="1" stop-color="#f6882a"/><stop offset="1" stop-color="#f58127"/><stop offset="1" stop-color="#f57f26"/></linearGradient><linearGradient id="linear-gradient-10" x1="611.61" y1="403.51" x2="591.17" y2="438.92" xlink:href="#linear-gradient-9"/><linearGradient id="linear-gradient-11" x1="645.26" y1="531.7" x2="615.24" y2="583.68" gradientTransform="matrix(.98 .21 .21 -.98 -76 525.85)" gradientUnits="userSpaceOnUse"><stop offset="0" stop-color="#fff"/><stop offset=".15" stop-color="#fdf6fa"/><stop offset=".39" stop-color="#f7ddeb"/><stop offset=".69" stop-color="#edb6d4"/><stop offset=".99" stop-color="#e287b8"/><stop offset="1" stop-color="#fff"/></linearGradient><linearGradient id="linear-gradient-12" x1="536.44" y1="231.1" x2="491.04" y2="269.19" gradientTransform="matrix(1 0 0 -1 0 584.02)" gradientUnits="userSpaceOnUse"><stop offset="0" stop-color="#fff"/><stop offset="1" stop-color="#ade0ed"/></linearGradient><linearGradient id="linear-gradient-13" x1="538.13" y1="273.12" x2="509.86" y2="296.83" gradientTransform="matrix(1 0 0 -1 0 584.02)" gradientUnits="userSpaceOnUse"><stop offset="0" stop-color="#fff"/><stop offset="1" stop-color="#fdd8c0"/></linearGradient><linearGradient id="linear-gradient-14" x1="513.21" y1="752.62" x2="479.35" y2="664.83" gradientTransform="matrix(.72 .4 .26 -.46 52.28 452.87)" gradientUnits="userSpaceOnUse"><stop offset="0" stop-color="#fff"/><stop offset="1" stop-color="#fbcccc"/></linearGradient><linearGradient id="linear-gradient-15" x1="567.03" y1="315.08" x2="531.75" y2="344.69" gradientTransform="matrix(1 0 0 -1 0 584.02)" gradientUnits="userSpaceOnUse"><stop offset="0" stop-color="#fff"/><stop offset="1" stop-color="#a5d171"/></linearGradient><linearGradient id="linear-gradient-16" x1="707.74" y1="247.15" x2="673.83" y2="275.6" gradientTransform="matrix(1 0 0 -1 0 584.02)" gradientUnits="userSpaceOnUse"><stop offset="0" stop-color="#fff"/><stop offset="1" stop-color="#e7efbd"/></linearGradient></defs><path class="cls-1" d="M155.63 116.64l21.41 79.67M208.25 297.89l-13.83-83.77"/><path stroke-width="4" fill="#ebf4dd" stroke="#c6db57" d="M51.62 109.86l354.76-.65"/><path class="cls-3" d="M75.29 100.55h37.16v17.49H75.29z"/><text class="cls-4" transform="translate(77.48 113.69)">NPX<tspan class="cls-5" x="24.67" y="0">Y</tspan></text><path class="cls-3" d="M159.57 100.55h37.16v17.49h-37.16z"/><text class="cls-4" transform="translate(161.77 113.69)">NPX<tspan class="cls-5" x="24.67" y="0">Y</tspan></text><path class="cls-3" d="M117.43 100.55h37.16v17.49h-37.16z"/><text class="cls-4" transform="translate(119.62 113.69)">NPX<tspan class="cls-5" x="24.67" y="0">Y</tspan></text><path class="cls-3" d="M231.05 109.29c0 15.7-4.65 28.42-10.38 28.42s-10.39-12.71-10.39-28.42 4.65-28.42 10.39-28.42 10.38 12.73 10.38 28.42z"/><text class="cls-4" transform="rotate(-90 172.5 -52.57)">ANK</text><path class="cls-3" d="M301 109.29c0 15.7-4.65 28.42-10.39 28.42s-10.4-12.71-10.4-28.42 4.65-28.42 10.38-28.42S301 93.6 301 109.29z"/><text class="cls-4" transform="rotate(-90 207.46 -87.53)">ANK</text><path class="cls-3" d="M277.67 109.29c0 15.7-4.65 28.42-10.39 28.42S256.9 125 256.9 109.29s4.65-28.42 10.38-28.42 10.39 12.73 10.39 28.42z"/><text class="cls-4" transform="rotate(-90 195.805 -75.875)">ANK</text><path class="cls-3" d="M254.36 109.29c0 15.7-4.65 28.42-10.38 28.42s-10.39-12.71-10.39-28.42 4.65-28.42 10.41-28.42 10.36 12.73 10.36 28.42z"/><text class="cls-4" transform="rotate(-90 184.155 -64.225)">ANK</text><path class="cls-3" d="M315.42 119c3.71 10.67 15.42 23.17 26.28 21.27 5.22-.91 8-6 12.32-7.21s12 2.56 17 3c10.85 1 18.53-2.81 22.75-13.07 2.89-7 5.12-16.12 0-20.68-4-3.62-22.7-11.19-26.24-4-.06-12.32-9.94-19.11-21-20.06-13.74-1.19-17.84 2.32-25.63 13-7.07 9.66-5.45 16.37-5.45 28.15"/><text class="cls-4" transform="translate(318.12 113.72)">FERM domain</text><text class="cls-4" transform="translate(13.68 112.78)">CCM1</text><path fill="#f8bfd8" stroke="#ed1d7f" stroke-width="4" d="M133.02 302.14H275.7"/><path class="cls-7" d="M202.16 302.69c0 5.2-2.64 9.41-5.91 9.41H151c-3.26 0-5.91-4.21-5.91-9.41 0-5.19 2.65-9.4 5.91-9.4h45.25c3.27 0 5.91 4.21 5.91 9.4zM270.18 302.14c0 11.46-13.57 20.75-30.32 20.75s-30.32-9.29-30.32-20.75 13.57-20.76 30.32-20.76 30.32 9.29 30.32 20.76z"/><text transform="translate(229.5 306.67)" letter-spacing="-.06em" fill="#231f20" font-size="12" font-family="ArialMT,Arial">F<tspan class="cls-9" x="6.67" y="0">A</tspan><tspan class="cls-5" x="13.78" y="0">T</tspan></text><text class="cls-4" transform="translate(159.51 306.12)">N-tail</text><text class="cls-4" transform="translate(13.68 307.65)">CCM3</text><path fill="#ffdd9f" stroke="#fcb461" stroke-width="4" d="M75.29 205.71H297.1"/><path class="cls-11" d="M181.33 205.71a9.4 9.4 0 0 1-9.4 9.41h-72a9.4 9.4 0 0 1-9.4-9.41 9.4 9.4 0 0 1 9.4-9.4h72a9.4 9.4 0 0 1 9.4 9.4zM286.72 205.71c0 5.2.66 9.41-4.54 9.41h-82.69c-5.19 0-3.57-4.21-3.57-9.41 0-5.19-1.62-9.4 3.57-9.4h82.69c5.2 0 4.54 4.21 4.54 9.4z"/><text class="cls-4" transform="translate(124.78 210.14)">PTB</text><text class="cls-4" transform="translate(216.25 210.14)">Harmonin</text><text class="cls-4" transform="translate(13.68 210.21)">CCM2</text><text class="cls-12" transform="translate(594.78 396.25)">STRI<tspan class="cls-9" x="31.89" y="0">P</tspan><tspan x="40.19" y="0">AK</tspan></text><path opacity=".22" stroke="#888a8c" fill="none" d="M429.35 55.08v300"/><text class="cls-12" transform="translate(168.16 392.25)">CCM isoforms</text><path d="M523.39 205.77a185.58 185.58 0 0 1 13.26-19.43c13.66-17.77 33.51-4.64 45.08 3.95 11.21 8.34 23.43 22.29 36.21 28.74 14 7.06 38 9 49.26 10.91 8.64 1.45 41 3.29 49.73 4.05 5.21.45 9.91 2.37 12.91-1.05 10.19-11.65 4.94-6.59 9.77-11.16a35.44 35.44 0 0 1 36.28-8.29c9.51 3 17.87 9.51 21.86 18.67 5.64 12.9 4.76 24.24.21 33.21-7.74 15.26-20.17 22.55-38.2 20.71-10-1-21.34-9.46-27.42-17.8-3.72-5.1-5.22-14.57-6.83-18.48-2-4.87-3.34-5.75-9.12-6.52-11.65-1.55-39.61-2.55-49.1-3.68-14.13-1.68-16.8-2.73-29.15-5-6.49-1.17-11.87-3.14-18.32-5.18-18.45-5.83-40.36-27.82-47.85-34.56-15-13.49-27.94-7.82-34.89 6.7-3.12 6.52-11.26 25.55-22.58 21-8.52-5.53 3.22-7.55 8.89-16.79" stroke="#6fc6aa" fill="url(#linear-gradient)"/><path fill="url(#linear-gradient-2)" stroke-width="1.08" stroke="#a6d9c7" d="M729.57 262.7l68.46-29.76"/><path fill="url(#linear-gradient-3)" stroke-width="1.08" stroke="#a6d9c7" d="M794.93 270.71l-60.01-44.4"/><path fill="url(#linear-gradient-4)" stroke-width="1.08" stroke="#a6d9c7" d="M768.34 211.43l-8.45 74.16"/><path d="M523.39 174.71a186.63 186.63 0 0 0 13.26 19.43c13.66 17.77 33.51 4.64 45.08-4 11.21-8.33 23.43-22.28 36.21-28.74 14-7.05 38-9 49.26-10.9 8.64-1.45 41-3.29 49.73-4 5.21-.45 9.91-2.38 12.91 1 10.19 11.65 4.94 6.59 9.77 11.16a35.44 35.44 0 0 0 36.28 8.34c9.51-3 17.87-9.52 21.86-18.67 5.64-12.9 4.76-24.24.21-33.21-7.74-15.26-20.17-22.55-38.2-20.71-10 1-21.34 9.46-27.42 17.8-3.72 5.1-5.22 14.57-6.83 18.48-2 4.87-3.34 5.74-9.12 6.52-11.65 1.55-39.61 2.55-49.1 3.68-14.13 1.68-16.8 2.73-29.15 5-6.49 1.11-11.87 3.11-18.32 5.11-18.45 5.84-40.36 27.82-47.85 34.57-15 13.49-27.94 7.82-34.89-6.7-3.12-6.52-11.26-25.56-22.58-21-8.52 5.54 3.22 7.56 8.89 16.8" stroke="#5dcae9" fill="url(#linear-gradient-5)"/><path fill="url(#linear-gradient-6)" stroke="#8bd6ed" stroke-width="1.08" d="M729.57 116.96l68.46 29.77"/><path fill="url(#linear-gradient-7)" stroke="#8bd6ed" stroke-width="1.08" d="M794.93 108.96l-60.01 44.4"/><path fill="url(#linear-gradient-8)" stroke="#8bd6ed" stroke-width="1.08" d="M768.34 169.05l-8.45-74.17"/><path d="M580.59 171.33c-9.35 6.26-14.43 5.5-23.91 6.7-21.21 2.69-26.89-24.64-30.17-36.93-5.55-20.81-6.73-35.48 2.55-45.91 9.71-10.93 16.19-13.76 30.71-14.48 8.46-.41 16.27 1.4 20.22 9.86 3.61 7.74-3 13.26-9.31 16.9-9.92 5.73-17.82 5.53-15.56 23.53 1.67 13.21 6.83 16.19 16.44 15.19 5.1-.53 17-1.21 18.62 8.91 1.24 7.72-5.84 14.43-10.75 17" fill="url(#linear-gradient-9)" stroke="#f89843"/><path d="M581.31 123c-8.22-4.58-14-15-12.21-24.9 2-11.19 19-14.88 28.24-13 6.27 1.27 10.6 5.82 13 12.06 3 7.8-2.69 18.13-6.69 21.9-2.92 2.75-14.24 8.57-22.37 4.23" fill="url(#linear-gradient-10)" stroke="#f89843"/><text class="cls-4" transform="translate(746.41 135.28)">striatin</text><path d="M640.47 89.48c.07 0 11.7-6.26 17.58-4.14a7.17 7.17 0 0 1 3 11.19c-4.5 5.2-24.28-2.69-18.92 14.63 2.75 8.89 22.71 2.49 28.59 1.32 16.14-3.21 14.24 4.83 16.57 16.11 2.4 11.53-9.5 11-27.48 13.06-11.14 1.26-18.81 3.24-21.81-8.65-1.68-6.59-6.49-37.49 2.91-43.6" stroke="#eb66a6" fill="url(#linear-gradient-11)"/><text class="cls-4" transform="translate(645.07 135.28)">CCM3</text><path d="M730.78 43.78c.08 6.4.82 34.62-11.14 39.85-10.35 5.37-29.06-7.63-34.78-2.11-4.55 4.4-14.61 21-22.14 9-9.8-15.59 30-8.56 19.1-20.8-6.92-7.77-4.56-19.62-.18-25.17 6.29-8 13.59-5.81 21.63-4.88-6.5-.36-11.83-9.59-10.61-14.81 2.1-8.94 11.15-15.24 20.45-13.27 16.58 3.52 17.44 14.55 17.67 32.19z" fill="#dac8e2" stroke="#8553a2" stroke-width=".72"/><text class="cls-4" transform="translate(684.98 61.13)">GCK-III</text><text class="cls-4" transform="translate(747.03 251.23)">striatin</text><path class="cls-26" d="M569.13 208.93l71.65 137.23"/><path d="M498.18 347.38c-9.89-8.44-18.66-19.11-11.86-26.93 7.39-8.49 14-11.31 34.77-3.14 10.71 4.23 21.82 11 21.2 23.79-.41 8.26-7.64 14.33-14.41 16.33-12.4 3.67-19.81-1.61-29.7-10.05" stroke="#ade0ed" stroke-width=".63" fill="url(#linear-gradient-12)"/><text class="cls-4" transform="translate(493.06 338.73)">SLMA<tspan class="cls-5" x="32.68" y="0">P</tspan></text><path d="M520.75 310.33c-9.76-4.18-18.51-15-8.77-25.64 7.5-8.19 13.94.58 20.22 6.66 3.58 3.47 10.75 13.37 5.92 19.54-4.09 5.23-10.63 3.28-17.37-.56" stroke="#fab07f" stroke-width=".85" fill="url(#linear-gradient-13)"/><text class="cls-4" transform="translate(510.73 304.57)">SIKE</text><path d="M561.09 316a45.49 45.49 0 0 1 9.21-2.25c8.39-1.39 5.64-1.29 16.51-2.32 7.08-.67 28.91-4.55 35.71 6 3.68 5.7-.24 8.67-5.9 10.68-5.46 1.93-8.61 2.51-22 3.94-8 .85-27.63 4.84-35.58-3.45-6.67-7-2.32-11.32 2.31-12.42" stroke="#fbcccc" stroke-width=".66" fill="url(#linear-gradient-14)"/><text class="cls-4" transform="translate(562.13 326.62)">CTTNBP2</text><path d="M528.08 252.5a40.92 40.92 0 0 1 7.27-17.33c4.49-6.15 8.27-8.09 18.71-8.85 22-1.6 20.28 32.3 11.48 44.28-9.31 12.68-25.4 16.52-35.69 4.36-3.58-4.23-3.84-17.32-1.77-22.46" stroke="#a5d171" stroke-width=".66" fill="url(#linear-gradient-15)"/><text class="cls-4" transform="translate(528.84 261.25)">STRIP1</text><path d="M694.21 339.69c-9.93.46-22.68-2.47-24.31-14.3-2-14.44 6-27 27.48-19.68 4.2 1.42 12.22 5.94 13.85 10.14 2.82 7.24 2.38 12-.39 17-2.86 5.18-9.86 6.8-17 6.8" stroke="#d3e49a" fill="url(#linear-gradient-16)"/><text class="cls-4" transform="translate(674.2 326.62)">MOB3</text><path stroke-dasharray="10" stroke-width="2" stroke="#c7c8ca" fill="none" d="M672.35 301.64l-58.69-72.46"/><path stroke-width="2.18" stroke-dasharray="10" stroke="#c7c8ca" fill="none" d="M770.32 291.11l-51.82 21.05"/><path class="cls-26" d="M463.88 346.97l71.65-137.22"/><path stroke="#8f9194" fill="none" d="M549.29 350.21v-63.15"/><text class="cls-4" transform="translate(534.28 104.68)">PP2<tspan x="22.68" y="0" letter-spacing="-.06em">A</tspan></text><path class="cls-1" d="M116.04 116.64l-21.41 79.67M271.42 297.89l13.83-83.77"/></svg>