<svg version="1.1" id="Layer_1" xmlns="http://www.w3.org/2000/svg" xmlns:xlink="http://www.w3.org/1999/xlink" x="0" y="0" viewBox="0 0 425.6 178.9" xml:space="preserve"><style>.st0{fill:#333}.st1{font-family:&apos;Lato&apos;,sans-serif}.st2{font-size:8px}.st3{font-size:5.7451px}.st8{fill:#221f1f}.st9{fill:#f7b1a9}.st14{fill:none;stroke:#101219;stroke-linecap:round}.st15{fill:#2d81ba}.st16{fill:none;stroke:#221f1f;stroke-width:.75}.st19{fill:#fff}.st20{fill:none;stroke:#231f20;stroke-width:.25;stroke-miterlimit:10}.st22{font-size:4.8494px}.st24{fill:none;stroke:#231f20;stroke-miterlimit:10}.st29{fill:#0c1121}.st31{fill:#dde4f3}.st40{fill:#0b0e17}.st52{fill:none;stroke:#bcbec0;stroke-width:.283;stroke-miterlimit:10}.st53{font-size:4px}.st55{fill:none;stroke:#a7a9ac;stroke-width:.598}.st57{fill:#d5d4d3}.st61{fill:none;stroke:#808083;stroke-width:.299;stroke-linecap:round;stroke-miterlimit:10;stroke-dasharray:1.5883}.st73{fill:none;stroke:#221f1f;stroke-width:.8246}.st75,.st76,.st79,.st80{fill:#f9ac61;stroke:#231f20;stroke-width:.125}.st76,.st79,.st80{fill:#fbf7c0}.st79,.st80{fill:#58595b;stroke-width:.5}.st80{fill:#fbf7c0;stroke-width:4.205896e-02}.st87{fill:none;stroke:#bcbec0;stroke-width:6;stroke-miterlimit:10}.st88{fill:#bcbec0}</style><text transform="translate(244.199 166.268)"><tspan x="0" y="0" class="st0 st1 st2">score against</tspan><tspan x="8.5" y="9.6" class="st0 st1 st2">controls</tspan></text><g><text transform="translate(268.59 125.234)"><tspan x="0" y="0" class="st0 st1 st3">positive</tspan><tspan x="-4" y="6.9" class="st0 st1 st3">interactors</tspan></text><path d="M245.6 156.5h2c1.4 0 5.4-31.3 7.9-31.3 2.4 0 6.6 31.2 7.9 31.2" fill="#e48065" stroke="#231f20" stroke-width=".493" stroke-miterlimit="10"/><path d="M258.3 156.5c1.4 0 8.7-7.3 14.7-7.3 6.1 0 13.5 7.2 14.8 7.2" fill="#acd7a3" stroke="#231f20" stroke-width=".493" stroke-linecap="round" stroke-miterlimit="10"/><path fill="none" stroke="#231f20" stroke-width=".493" stroke-miterlimit="10" d="M288.2 156.5h-42.6v-32.3"/><g><g><path fill="none" stroke="#221f1f" stroke-miterlimit="10" d="M277.8 135.7l-4.4 16.1"/><g><path class="st8" d="M272 151.3c-.2.8.3 1.6 1.1 1.8s1.6-.3 1.8-1.1-.3-1.6-1.1-1.8c-.8-.1-1.6.3-1.8 1.1z"/></g></g></g></g><text transform="translate(24.44 158.268)"><tspan x="0" y="0" class="st0 st1 st2">in vivo protein</tspan><tspan x="2.7" y="9.6" class="st0 st1 st2">biotinylation</tspan><tspan x="12.5" y="19.2" class="st0 st1 st2">(BioID)</tspan></text><g><path class="st9" d="M4.3 11.1c.4.3.8.7 1.4 1-.5.3-1 .7-1.4 1v-2z"/><path d="M24.5 20.2C15 20.2 4.3 18.1 4.3 15c0-.9.8-1.7 2.3-2.4 3.4 1.6 9.5 2.9 17.9 2.9 8.5 0 14.5-1.2 17.9-2.9 1.4.7 2.2 1.5 2.3 2.3v.1c0 3.1-10.6 5.2-20.2 5.2" fill="#bc6056"/><path class="st9" d="M24.5 18.1C15 18.1 4.3 16 4.3 12.8c0-.9.8-1.7 2.3-2.4 3.4 1.6 9.5 2.9 17.9 2.9 8.5 0 14.5-1.2 17.9-2.9 1.4.7 2.2 1.5 2.3 2.3v.1c0 3.2-10.6 5.3-20.2 5.3"/><path class="st9" d="M7.8 12.1c3.9-1.5 10.6-2.4 16.8-2.4 6.2 0 12.9.9 16.8 2.4-3.9 1.5-10.6 2.4-16.8 2.4-6.3 0-12.9-.9-16.8-2.4M43.4 12.1c.5-.3 1-.7 1.3-1v2c-.3-.4-.8-.7-1.3-1"/><path class="st9" d="M44.7 11.4c0 .9-.9 1.7-2.3 2.4C39.1 12.2 33 11 24.5 11 16 11 10 12.2 6.6 13.9c-1.4-.7-2.3-1.5-2.3-2.4 0-3.1 10.7-5.3 20.2-5.3 9.6 0 20.2 2.1 20.2 5.2.1 0 0 0 0 0"/><path d="M45.7 9.3v-.1c0-3-7.4-6.2-21.2-6.2S3.4 6.2 3.4 9.2V15c0 3 7.4 6.2 21.2 6.2 13.7 0 21.2-3.2 21.2-6.2v-.1l-.1-5.6zM4.3 11.1c.4.3.8.7 1.4 1-.5.3-1 .7-1.4 1v-2zm20.2 9.1C15 20.2 4.3 18.1 4.3 15c0-.9.8-1.7 2.3-2.4 3.4 1.6 9.5 2.9 17.9 2.9 8.5 0 14.5-1.2 17.9-2.9 1.4.7 2.2 1.5 2.3 2.3v.1c0 3.1-10.6 5.2-20.2 5.2M7.8 12.1c3.9-1.5 10.6-2.4 16.8-2.4 6.2 0 12.9.9 16.8 2.4-3.9 1.5-10.6 2.4-16.8 2.4-6.3 0-12.9-.9-16.8-2.4m35.6 0c.5-.3 1-.7 1.3-1v2c-.3-.4-.8-.7-1.3-1m1.3-2.9c0 .9-.9 1.7-2.3 2.4C39.1 10 33 8.7 24.5 8.7 16.1 8.7 10 10 6.6 11.6c-1.4-.7-2.3-1.5-2.3-2.4 0-3.1 10.7-5.3 20.2-5.3 9.6 0 20.2 2.2 20.2 5.3.1 0 0 0 0 0"/></g><path d="M113.6 18c-1.3.1-2.3 1.4-2.8 2.5-.7 1.4-1.5 3.1-1.3 4.7.3 1.9 2 2.9 3.5 3.6 1.2.5 3 1.5 4.2.3 1.1-1.1.5-2.6 0-3.8-.6-1.6-.6-3.3-1-5-.2-1.2-1.1-2.4-2.6-2.3z" fill="#f8ab61" stroke="#221f1f" stroke-width=".75"/><path d="M119.5 13.3c-.3-.2-.5-.4-.7-.5-.8-.7-1.6-2.2-2-3.1-.4-1-.6-2-.3-3.1.4-1.4 2.1-3.1 3.3-3.7 1.7-.9 4.2-.9 6-.2 1.7.7 3.4 2.2 4.4 3.8 1.2 2.1 1.6 4.6 2.2 6.9.4 1.5.7 3 1.2 4.5.7 1.8 1 3.8.2 5.7-.4.8-1 1.5-1.8 1.8-.7.2-2 .4-2.7.2-1.6-.7-2.9-2.4-3.7-3.9-.8-1.7-.9-3.6-2.1-5.1-1-1.6-2.6-2.3-4-3.3z" fill="#f9f6c0" stroke="#221f1f" stroke-width=".75"/><path d="M116.5 16.5c.4-1 1.1-1.9 2.1-2.4s2.8-1.1 4-1c3.3.3 4.5 3.8 4.9 6.6.4 2.6 1.6 4.3 3.8 5.6 2 1.2 4.4 1.9 5.9 3.9 1.2 1.7 1.9 6.2-.8 7-1.5.4-3.2-.1-4.7-.4-1.8-.4-3.5-1-5.3-1.5-4.1-1.2-7.3-3-8.7-7.2-.4-1.1-.7-2.3-.9-3.5-.5-2.4-1.2-4.8-.3-7.1z" fill="#83a8d0" stroke="#221f1f" stroke-width=".75"/><path class="st8" d="M137.9 34.8s.7-.4 1.5-.4c1.3 0 1.5.4 1.5.4v-2s-.3.4-1.5.4c-1.1 0-1.5-.4-1.5-.4v2z"/><path class="st14" d="M147.4 38.9l-2.6-1.6M147.4 38.9l1 4.5M147.4 38.9l1.6-2.4M153.9 39.1l-1.3-2.8M153.9 39.1l-1.6 4.3M153.9 39.1l2.6-1.2"/><g><circle class="st15" cx="142.7" cy="33.8" r="1.8"/><circle class="st16" cx="142.7" cy="33.8" r="1.8"/></g><g><path class="st15" d="M145.5 34.8c-.3.9.2 2 1.1 2.3.9.3 2-.2 2.3-1.1.3-.9-.2-2-1.1-2.3s-1.9.1-2.3 1.1z"/><path class="st16" d="M145.5 34.8c-.3.9.2 2 1.1 2.3.9.3 2-.2 2.3-1.1.3-.9-.2-2-1.1-2.3s-1.9.1-2.3 1.1z"/></g><path class="st8" d="M143.9 35.3s.4-.3.9-.2c.6.2.6.6.6.6l.6-1.9s-.3.4-.9.2c-.5-.2-.6-.6-.6-.6l-.6 1.9z"/><g><path class="st15" d="M153.8 36.1c-.1 1-1 1.7-1.9 1.7-1-.1-1.7-1-1.7-1.9.1-1 1-1.7 1.9-1.7s1.8.9 1.7 1.9z"/><path class="st16" d="M153.8 36.1c-.1 1-1 1.7-1.9 1.7-1-.1-1.7-1-1.7-1.9.1-1 1-1.7 1.9-1.7s1.8.9 1.7 1.9z"/></g><path class="st8" d="M150.1 36.6s-.2-.4-.6-.4c-.5 0-.6.3-.6.3l.1-1.6s.1.3.6.4c.4 0 .6-.3.6-.3l-.1 1.6z"/><path class="st14" d="M138.6 49.8l-2 2.4M138.6 49.8l4.6-.4M138.6 49.8l-2.2-1.8M139.8 43.8l-2.9 1.1M139.8 43.8l4.2 1.9M139.8 43.8l-1-2.7"/><path d="M156 49.2c0 3.5-2.8 6.4-6.4 6.4-3.5 0-6.4-2.8-6.4-6.4 0-3.5 2.8-6.4 6.4-6.4 3.5.1 6.4 2.9 6.4 6.4z" fill="#a6a7aa" stroke="#101219"/><g><path fill="none" d="M212.3 50.4h109.3v17.9H212.3z"/><text transform="translate(225.17 57.24)"><tspan x="0" y="0" class="st0 st1 st2">liquid chromatography -</tspan><tspan x="-6.7" y="9.6" class="st0 st1 st2">mass spectrometry (LC-MS)</tspan></text></g><g><g><g><path class="st19" d="M266.1 31.4c0 1.6-1.4 3-3 3h-26.6c-1.6 0-3-1.4-3-3V4.9c0-1.6 1.4-3 3-3h26.6c1.6 0 3 1.4 3 3v26.5z"/><path class="st20" d="M266.1 31.4c0 1.6-1.4 3-3 3h-26.6c-1.6 0-3-1.4-3-3V4.9c0-1.6 1.4-3 3-3h26.6c1.6 0 3 1.4 3 3v26.5z"/></g><g><path d="M240.4 27.5v2.3h21v-2.4c-.1-.8-.4-3.4-.4-3.5-.1-.3-.2 3.2-.5 3.5l-.4-.2c-.2-.1-.2-7.8-.4-7.9-.2-.1-.5 7.4-.6 7.4-.1 0-.3-4.9-.4-5.4-.2.5-.4 5.9-.5 5.7-.1-.1-.2-4-.3-3.9-.1.1-.3 4.3-.4 4.3 0 0-.1-3-.2-3.1-.1 0-.3 3.5-.4 3.4-.1-.1-.3-.8-.3-1 0-.2-.2-1-.3-.9-.2.1-.3 1.4-.4 1.6-.3.4-.6.2-.7 0-.2.3-.2-.4-.2 0-.3-.4-.1 1.2-.3 0-.2.4-.3-.4-.4 0-.1.4-.7.3-.7.1 0-.1-.1-.3-.1-.7-.2-8.5-.4-.8-.5-.4 0 .1-.3 1.4-.3 1.4-.1-.1-.1-2-.1-2.1-.1-.1-.1-6.4-.2-6-.2.4-.4 7.3-.4 7.1l-.1-.5c0-.1-.2-3.4-.3-3.3-.1 0-.4 3.6-.4 3.4 0-3-.2.2-.3.3 0 .1 0 .8-.2.8-.1 0-.1-2-.1-2.1 0-.3-.2 3.1-.2 2 0 .2-.4-4.4-.5-4.1-.1.4-.3 3.9-.3 3.9-.1-.1-.4.5-.4.2-.2.3-.2-1.5-.3-1.1 0 .2-.1 1.6-.2 1.1 0 .3 0-.3 0 0 0 .1-.1-2-.2-2 0 0-.1 2.2-.2 2.2s-.2-1.7-.3-1.7c-.2-.1-.3 1.5-.4 1.6-.1-.1-.1.2-.2 0 0 .4-.2-.4-.4 0-.1 0-.2.2-.2 0 0-.3-.2.8-.3 0 0 .1-.3-.4-.3 0-.1.7-.2-.1-.2 0s-.1 0-.1 0c-.1 0-.2.2-.3 0-.1-.3-.2.1-.3.2-.1.1-.2-.2-.2-.2s-.3.6-.3 0c-.2-1.3-.2.1-.3 0 0 .1-.2-2.3-.5-2.4-.1-.1-.4 2.3-.5 2.4-.1-.1-.1-1.3-.2-1.5 0-.2-.2.8-.3 1.2 0 0 0-1.6-.1-2-.1-.8-.3.9-.3 1.1 0 .1-.1 1.4-.1 1.2v-.3c0-.1-.2-2.9-.2-3.1-.1-.6-.4 2.8-.4 3.2 0 0-.1-.8-.4-.6-.1.1-.2.9-.3.7 0-.1-.1 0-.2 0h-.1c-.3.2-.5.1-.5.1z" fill="#f7993d" stroke="#231f20" stroke-width=".25" stroke-miterlimit="10"/><path class="st20" d="M240.4 29.8V8.7"/><text transform="rotate(-90 133.412 -104.877)" class="st0 st1 st22">intensity</text><text transform="translate(246.09 33.83)" class="st0 st1 st22">time</text><text transform="translate(244.654 6.508)" class="st0 st1 st22">HPLC</text></g></g><g><g><path class="st19" d="M283.3 38.3c0 1.6-1.4 3-3 3h-26.6c-1.6 0-3-1.4-3-3V11.7c0-1.6 1.4-3 3-3h26.6c1.6 0 3 1.4 3 3v26.6z"/><path class="st20" d="M283.3 38.3c0 1.6-1.4 3-3 3h-26.6c-1.6 0-3-1.4-3-3V11.7c0-1.6 1.4-3 3-3h26.6c1.6 0 3 1.4 3 3v26.6z"/></g><g><path d="M257.5 34.2v2.3h21V34c-.1-.8-.4-3.4-.4-3.5-.1-.3-.2 3.2-.5 3.5-.1.1-.9.4-.9-.8-.1-9.3-.1-15.9-.1-17.5-.1.2-.1 17.6-.4 17.6-.1 0-.4-10.3-.4-10.8-.2.5-.3 11.3-.5 11.1-.1-.2-.4-15.3-.4-16 0 .4-.1 16.2-.3 16.4-.1-.1-.1.2-.2 0-.2.4-.2-.1-.3 0-.2-.4-.4-.2-.5-.6 0-.2-.1-4.2-.2-4.2-.2.1-.4 4.6-.5 4.8-.3.4-.6.2-.7 0-.2.3-.2-.4-.2 0-.3-.4-.1 1.2-.3 0-.2.4-.3-.4-.4 0-.1.4-.7.3-.7.1 0-.2.1-1.4-.1-1.8-.1.2-.3 0-.3.2 0-.3-.1-3.4-.1-3.6 0 .1-.1 4.3-.1 4.8 0 .7 0-1.6-.1-.9-.1-.4-.2-.5-.3-.6-.1-.2-.3-.5-.3-.4-.2-.7.1-3.3-.1-4-.4 1-.4 6-.4 5.7l-.1-.5c-.1-.2.1-1.5-.1-1.9-.1-.2-.3.7-.4 1.1 0-.6.1-12.9-.1-13.5 0 0-.3 14.2-.5 14.6 0 .1 0 .8-.2.8-.1 0-.2-.6-.2-.7 0-.3-.1 1.7-.2.6 0 .2-.2-1.1-.2-.9-.1-.2-.2-3.1-.2-3.1 0 .2-.1 1.7 0 2.5 0 .6-.3 1.5-.4 1.3-.1-.1-.4.5-.4.2-.2.3-.2-.4-.3 0 0 .2-.2.4-.2 0 0 .3 0-.3 0 0 0 .5-.2-1.4-.3-1 0-.2-.3 0-.3-.3v-2c0 .5-.3 3.1-.4 3.3-.1-.1-.1.2-.1 0 0 .4-.2-.4-.4 0-.1 0-.2.2-.2 0 0-.3-.2.8-.3 0 0 .1-.3-.4-.3 0-.1.7-.2-.1-.2 0s-.1 0-.1 0c-.1 0-.2.2-.3 0-.1-.5-.1.5-.2 0-.1.3-.2 0-.3 0 0 0-.3.6-.3 0-.2-1.3-.2.1-.3 0 0 .1-.1-.6-.3-.7-.1-.1-.3-4.7-.3-6 0 1.4-.2 6.6-.3 6.7-.1-.1-.1-1.1-.1-1.3 0-.2 0-10.9-.1-11.1 0 .4-.2 11.7-.3 12.1 0 0-.2-2.2-.2-2.6-.1-.8-.2 1.5-.2 1.7 0 .1-.1 1.4-.1 1.2v-.3c0-.1-.4-2.1-.5-2.3-.1-.6-.2 2.1-.2 2.5 0 0-.1-.8-.4-.6-.1.1-.2.9-.3.7 0-.1-.1 0-.2 0h-.1c.1.4-.2.2-.2.2z" fill="#5bb947" stroke="#231f20" stroke-width=".25" stroke-miterlimit="10"/><path class="st20" d="M257.7 36.5V15.4"/><text transform="translate(263.096 13.22)" class="st0 st1 st22">MS1</text><text transform="rotate(-90 145.42 -110.179)" class="st0 st1 st22">intensity</text><text transform="translate(263.846 40.542)" class="st0 st1 st22">m/z</text></g></g><g><g><path class="st19" d="M300.4 45.5c0 1.7-1.4 3-3 3h-26.6c-1.6 0-3-1.3-3-3V18.9c0-1.6 1.4-3 3-3h26.6c1.6 0 3 1.3 3 3v26.6z"/><path class="st20" d="M300.4 45.5c0 1.7-1.4 3-3 3h-26.6c-1.6 0-3-1.3-3-3V18.9c0-1.6 1.4-3 3-3h26.6c1.6 0 3 1.3 3 3v26.6z"/></g><g><path class="st24" d="M293.2 43.1V29.6M291.7 43.1V25M295 43.1l-.1-6.7M286.9 43.1V25.7M282.4 43.1v-1.3M280.9 43.1v-7M277.9 43.1v-5.4M288.4 43.1v-6.3M276.4 43.1V27.8"/><text transform="translate(281.149 20.09)" class="st0 st1 st22">MS2</text><text transform="rotate(-90 157.571 -115.46)" class="st0 st1 st22">intensity</text><text transform="translate(281.899 47.412)" class="st0 st1 st22">m/z</text><path class="st20" d="M275.3 43.3V22.2M296.5 43.1h-20.8"/></g></g></g><g><path d="M425.1 163.8c0 2.8-2.2 5-5 5h-79.2c-2.8 0-5-2.2-5-5V5.5c0-2.8 2.2-5 5-5h79.2c2.8 0 5 2.2 5 5v158.3z" fill="none" stroke="#bcbec0" stroke-miterlimit="10" stroke-dasharray="4.9644,4.9644"/></g><text transform="translate(365.383 81.947)" class="st0 st1 st2">dot plot</text><path d="M406.2 32.3c.2 0 .3.1.3.3 0 .2-.1.3-.3.3-.2 0-.3-.1-.3-.3 0-.2.1-.3.3-.3z" fill="#d9dff1"/><path d="M406.2 38.8c.6 0 1 .5 1 1 0 .6-.5 1-1 1s-1-.5-1-1c-.1-.6.4-1 1-1z" fill="#435fab"/><path d="M406.2 46.6c.3 0 .5.2.5.5s-.2.5-.5.5-.5-.2-.5-.5.2-.5.5-.5z" fill="#4561ab"/><path class="st29" d="M406.2 67.7c.5 0 1 .4 1 1 0 .5-.4 1-1 1-.5 0-1-.4-1-1s.4-1 1-1z"/><path d="M370.1 32c.3 0 .5.2.5.5s-.2.5-.5.5-.5-.2-.5-.5c0-.2.2-.5.5-.5z" fill="#cfd7ed"/><path class="st31" d="M377.3 32.4c.1 0 .2.1.2.2s-.1.2-.2.2-.2-.1-.2-.2.1-.2.2-.2z"/><path d="M384.5 32.2c.2 0 .4.2.4.4s-.2.4-.4.4-.4-.2-.4-.4.2-.4.4-.4z" fill="#d5dbef"/><path d="M391.8 31.7c.5 0 .9.4.9.9s-.4.9-.9.9-.9-.4-.9-.9.4-.9.9-.9z" fill="#c2cce8"/><path class="st31" d="M399 32.4c.1 0 .2.1.2.2s-.1.2-.2.2-.2-.1-.2-.2 0-.2.2-.2z"/><circle cx="370.1" cy="39.8" r=".1" fill="#ced6ec"/><path d="M377.3 39.6c.1 0 .2.1.2.2s-.1.2-.2.2-.2-.1-.2-.2c.1-.1.1-.2.2-.2z" fill="#c9d2eb"/><circle cx="384.5" cy="39.8" r=".1" fill="#d1d8ed"/><path d="M391.8 39.6c.1 0 .2.1.2.2s-.1.2-.2.2-.2-.1-.2-.2 0-.2.2-.2z" fill="#c5cee9"/><path d="M399 39.1c.4 0 .7.3.7.7 0 .4-.3.7-.7.7-.4 0-.7-.3-.7-.7 0-.4.3-.7.7-.7z" fill="#7186c2"/><path d="M370.1 46.8c.1 0 .2.1.2.2s-.1.2-.2.2-.2-.1-.2-.2.1-.2.2-.2z" fill="#a3b3db"/><path class="st40" d="M377.3 44.6c1.3 0 2.4 1.1 2.4 2.4 0 1.3-1.1 2.4-2.4 2.4-1.3 0-2.4-1.1-2.4-2.4 0-1.3 1.1-2.4 2.4-2.4z"/><path class="st29" d="M384.5 45.9c.6 0 1.1.5 1.1 1.1 0 .6-.5 1.1-1.1 1.1-.6 0-1.1-.5-1.1-1.1 0-.6.5-1.1 1.1-1.1z"/><path d="M391.8 46.7c.2 0 .3.1.3.3 0 .2-.1.3-.3.3-.2 0-.3-.1-.3-.3 0-.1.1-.3.3-.3z" fill="#7d90c8"/><path d="M399 46.6c.2 0 .5.2.5.5 0 .2-.2.5-.5.5s-.5-.2-.5-.5.2-.5.5-.5z" fill="#4863ad"/><path d="M377.3 52.9c.8 0 1.4.6 1.4 1.4 0 .8-.6 1.4-1.4 1.4-.8 0-1.4-.6-1.4-1.4.1-.8.7-1.4 1.4-1.4z" fill="#3b58a7"/><path d="M384.5 51.8c1.3 0 2.4 1.1 2.4 2.4s-1.1 2.4-2.4 2.4c-1.3 0-2.4-1.1-2.4-2.4s1.1-2.4 2.4-2.4z" fill="#242a64"/><path d="M370.1 59c1.3 0 2.4 1.1 2.4 2.4 0 1.3-1.1 2.4-2.4 2.4-1.3 0-2.4-1.1-2.4-2.4 0-1.3 1.1-2.4 2.4-2.4z" fill="#4e68b0"/><path d="M377.3 59.6c1 0 1.9.8 1.9 1.9 0 1-.8 1.9-1.9 1.9-1 0-1.9-.8-1.9-1.9.1-1.1.9-1.9 1.9-1.9z" fill="#6c82c0"/><path d="M384.5 59.8c.9 0 1.7.7 1.7 1.7 0 .9-.7 1.7-1.7 1.7-.9 0-1.7-.7-1.7-1.7.1-1 .8-1.7 1.7-1.7z" fill="#7a8ec7"/><path d="M391.8 59.2c1.3 0 2.3 1 2.3 2.3 0 1.3-1 2.3-2.3 2.3-1.3 0-2.3-1-2.3-2.3 0-1.3 1-2.3 2.3-2.3z" fill="#546fb4"/><path d="M399 59.5c1.1 0 1.9.9 1.9 1.9 0 1.1-.9 1.9-1.9 1.9-1.1 0-1.9-.9-1.9-1.9-.1-1 .8-1.9 1.9-1.9z" fill="#687fbd"/><path d="M406.2 59.9c.8 0 1.5.7 1.5 1.5s-.7 1.5-1.5 1.5-1.5-.7-1.5-1.5.6-1.5 1.5-1.5z" fill="#8295cb"/><path class="st40" d="M370.1 66.9c1 0 1.8.8 1.8 1.8s-.8 1.8-1.8 1.8-1.8-.8-1.8-1.8c.1-1 .9-1.8 1.8-1.8zM377.3 67.4c.7 0 1.3.6 1.3 1.3 0 .7-.6 1.3-1.3 1.3-.7 0-1.3-.6-1.3-1.3 0-.8.6-1.3 1.3-1.3zM384.5 67.4c.7 0 1.2.5 1.2 1.2s-.5 1.2-1.2 1.2-1.2-.5-1.2-1.2c0-.6.6-1.2 1.2-1.2zM391.8 66.3c1.3 0 2.4 1.1 2.4 2.4 0 1.3-1.1 2.4-2.4 2.4-1.3 0-2.4-1.1-2.4-2.4 0-1.4 1-2.4 2.4-2.4z"/><path d="M399 67.9c.4 0 .8.4.8.8s-.4.8-.8.8-.8-.4-.8-.8c0-.5.3-.8.8-.8z" fill="#21275f"/><path id="bounding_zoom" class="st52" d="M366.5 29h43.3v43.3h-43.3z"/><path id="zcol_backline" class="st52" d="M366.5 29h43.3"/><text id="zrow0" transform="translate(350.605 33.796)" class="st0 st1 st53">HDAC6</text><text id="zrow1" transform="translate(347.2 41.009)" class="st0 st1 st53">PPP2R1A</text><text id="zrow2" transform="translate(352.538 48.22)" class="st0 st1 st53">NUDC</text><text id="zrow3" transform="translate(351.794 55.432)" class="st0 st1 st53">HSPA4</text><text id="zrow4" transform="translate(353.954 62.646)" class="st0 st1 st53">ECH1</text><text id="zrow5" transform="translate(351.05 69.858)" class="st0 st1 st53">ACACB</text><text id="zcol0" transform="rotate(90 178.13 190.785)" class="st0 st1 st53">PPP6R3</text><text id="zcol1" transform="rotate(90 181.736 194.392)" class="st0 st1 st53">PPP6R2</text><text id="zcol2" transform="rotate(90 185.342 197.998)" class="st0 st1 st53">PPP6R1</text><text id="zcol3" transform="rotate(90 191.072 199.48)" class="st0 st1 st53">ANKRD28</text><text id="zcol4" transform="rotate(90 190.13 207.635)" class="st0 st1 st53">STK3</text><text id="zcol5" transform="rotate(90 193.736 211.241)" class="st0 st1 st53">STK4</text><g><text transform="translate(344.088 157.96)" class="st0 st1 st2">interaction network</text><g><g><path fill="none" stroke="#939598" stroke-width=".883" stroke-linecap="round" stroke-linejoin="round" stroke-miterlimit="10" d="M371.7 121.2l-8-10.5"/><path class="st55" d="M371.9 121.6l27.8 7.7M372.5 121.3l22-8.3M372.2 121.5l32.4 8M393.8 129.3l-22.3-7.5M399.9 113.1l-27.3 8M371.9 121.6l27.5 2.1M371.8 121.3l28.6-14.1M371.9 121.6l32.7 2M393.8 123.6l-21.9-2M395 107.2l-22.8 14.3M389.6 137.2L373.8 123M395.5 137.2L373.8 123M371.5 121.5l7.9 22.2M372 121.2l17.7 22.8M371.8 121.3l12.5 22.5M374.2 143.6l-3.1-22M395.2 144.2l-23-23.2M361.2 131.6l9.7-7.7M357.7 142.1l13.7-18.1M371.8 124.1l-8.2 17.7M358 136.4l13.3-12.4M363.5 136.5l8.3-12.4M371.9 121.6l8.4-20.2M371.7 121.2l10.7-12.1M364.1 98.8l7.7 22.5M373.1 98.8l-1.3 22.5"/><path class="st57" d="M366.3 111.3c0 1.4-1.1 2.6-2.6 2.6-1.4 0-2.6-1.1-2.6-2.6s1.1-2.6 2.6-2.6 2.6 1.2 2.6 2.6zM386.8 137.4c0 1.4-1.1 2.6-2.6 2.6-1.4 0-2.6-1.1-2.6-2.6s1.1-2.6 2.6-2.6c1.5.1 2.6 1.2 2.6 2.6zM398.2 137.4c0 1.4-1.1 2.6-2.6 2.6-1.4 0-2.6-1.1-2.6-2.6s1.1-2.6 2.6-2.6c1.5.1 2.6 1.2 2.6 2.6zM384.4 141.1c1.4 0 2.6 1.1 2.6 2.6 0 1.4-1.1 2.6-2.6 2.6-1.4 0-2.6-1.1-2.6-2.6s1.1-2.6 2.6-2.6M379.1 141.1c1.4 0 2.6 1.1 2.6 2.6 0 1.4-1.1 2.6-2.6 2.6-1.4 0-2.6-1.1-2.6-2.6s1.2-2.6 2.6-2.6M390 141.1c1.4 0 2.6 1.1 2.6 2.6 0 1.4-1.1 2.6-2.6 2.6-1.4 0-2.6-1.1-2.6-2.6s1.2-2.6 2.6-2.6M395.6 141.1c1.4 0 2.6 1.1 2.6 2.6 0 1.4-1.1 2.6-2.6 2.6-1.4 0-2.6-1.1-2.6-2.6.1-1.5 1.2-2.6 2.6-2.6M373.5 141.2c1.4 0 2.6 1.1 2.6 2.6 0 1.4-1.1 2.6-2.6 2.6-1.4 0-2.6-1.1-2.6-2.6M371 143.7c0-1.4 1.1-2.6 2.6-2.6M392.4 137.4c0 1.4-1.1 2.6-2.6 2.6-1.4 0-2.6-1.1-2.6-2.6s1.1-2.6 2.6-2.6c1.4.1 2.6 1.2 2.6 2.6z"/><path class="st55" d="M369.1 121.5l-11.1 3M355.6 113.8l2.4 10.7"/><path d="M357.9 116.8c-1.6 1.2-4 .9-5.2-.7-1.2-1.6-.9-4 .7-5.2 1.6-1.2 4-.9 5.2.7 1.2 1.6.9 4-.7 5.2z" fill="#dbeac1" stroke="#000" stroke-width=".598"/><path d="M361.7 124.5c0 2.1-1.7 3.7-3.7 3.7-2.1 0-3.7-1.7-3.7-3.7 0-2.1 1.7-3.7 3.7-3.7s3.7 1.7 3.7 3.7z" fill="#c7d8e8" stroke="#000" stroke-width=".598"/><path d="M377.2 121.5c0 3-2.4 5.4-5.4 5.4-3 0-5.4-2.4-5.4-5.4 0-3 2.4-5.4 5.4-5.4 2.9-.1 5.4 2.4 5.4 5.4z" fill="#facac5" stroke="#f17f72" stroke-width="1.196" stroke-miterlimit="10"/><g><path class="st19" d="M361.2 100.4c0 .8.7 1.5 1.5 1.5h2.9c.8 0 1.5-.7 1.5-1.5v-3.2c0-.8-.7-1.5-1.5-1.5h-2.9c-.8 0-1.5.7-1.5 1.5v3.2z"/><path class="st61" d="M361.2 100.4c0 .8.7 1.5 1.5 1.5h2.9c.8 0 1.5-.7 1.5-1.5v-3.2c0-.8-.7-1.5-1.5-1.5h-2.9c-.8 0-1.5.7-1.5 1.5v3.2z"/></g><g><path class="st19" d="M379.4 110.7c0 .8.7 1.5 1.5 1.5h2.9c.8 0 1.5-.7 1.5-1.5v-3.2c0-.8-.7-1.5-1.5-1.5h-2.9c-.8 0-1.5.7-1.5 1.5v3.2z"/><path class="st61" d="M379.4 110.7c0 .8.7 1.5 1.5 1.5h2.9c.8 0 1.5-.7 1.5-1.5v-3.2c0-.8-.7-1.5-1.5-1.5h-2.9c-.8 0-1.5.7-1.5 1.5v3.2z"/></g><g><path class="st19" d="M370.1 100.4c0 .8.7 1.5 1.5 1.5h2.9c.8 0 1.5-.7 1.5-1.5v-3.2c0-.8-.7-1.5-1.5-1.5h-2.9c-.8 0-1.5.7-1.5 1.5v3.2z"/><path class="st61" d="M370.1 100.4c0 .8.7 1.5 1.5 1.5h2.9c.8 0 1.5-.7 1.5-1.5v-3.2c0-.8-.7-1.5-1.5-1.5h-2.9c-.8 0-1.5.7-1.5 1.5v3.2z"/></g><g><path class="st19" d="M377.4 102.9c0 .8.7 1.5 1.5 1.5h2.9c.8 0 1.5-.7 1.5-1.5v-3.2c0-.8-.7-1.5-1.5-1.5h-2.9c-.8 0-1.5.7-1.5 1.5v3.2z"/><path class="st61" d="M377.4 102.9c0 .8.7 1.5 1.5 1.5h2.9c.8 0 1.5-.7 1.5-1.5v-3.2c0-.8-.7-1.5-1.5-1.5h-2.9c-.8 0-1.5.7-1.5 1.5v3.2z"/></g><path class="st57" d="M384.9 109.1c0 1.4-1.1 2.6-2.6 2.6-1.4 0-2.6-1.1-2.6-2.6 0-1.4 1.1-2.6 2.6-2.6 1.5.1 2.6 1.2 2.6 2.6zM375.6 98.8c0 1.4-1.1 2.6-2.6 2.6-1.4 0-2.6-1.1-2.6-2.6s1.1-2.6 2.6-2.6 2.6 1.2 2.6 2.6zM366.7 98.8c0 1.4-1.1 2.6-2.6 2.6-1.4 0-2.6-1.1-2.6-2.6 0-1.4 1.1-2.6 2.6-2.6 1.4 0 2.6 1.2 2.6 2.6zM382.9 101.4c0 1.4-1.1 2.6-2.6 2.6s-2.6-1.1-2.6-2.6c0-1.4 1.1-2.6 2.6-2.6s2.6 1.1 2.6 2.6z"/><g><path class="st19" d="M390.6 112.8c0 1.8 1.5 3.2 3.2 3.2h7c1.8 0 3.2-1.5 3.2-3.2v-6.1c0-1.8-1.5-3.2-3.2-3.2h-7c-1.8 0-3.2 1.5-3.2 3.2v6.1z"/><path class="st61" d="M390.6 112.8c0 1.8 1.5 3.2 3.2 3.2h7c1.8 0 3.2-1.5 3.2-3.2v-6.1c0-1.8-1.5-3.2-3.2-3.2h-7c-1.8 0-3.2 1.5-3.2 3.2v6.1z"/></g><path class="st57" d="M396.7 105.3c2.1 2.7-1 5.8-3.8 3.8-2.1-2.8 1-5.9 3.8-3.8z"/><path class="st57" d="M402.3 105.3c2.1 2.7-1 5.9-3.8 3.8-2.1-2.8 1-5.9 3.8-3.8zM396.7 110.7c2.1 2.7-1 5.8-3.8 3.8-2.1-2.8 1-5.9 3.8-3.8z"/><path class="st57" d="M402.3 110.7c2.1 2.7-1 5.8-3.8 3.8-2.1-2.8 1-5.9 3.8-3.8z"/><g><path class="st19" d="M352.9 142.7c0 2.1 1.7 3.8 3.8 3.8h6.1c2.1 0 3.8-1.7 3.8-3.8v-9.4c0-2.1-1.7-3.8-3.8-3.8h-6.1c-2.1 0-3.8 1.7-3.8 3.8v9.4z"/><path class="st61" d="M352.9 142.7c0 2.1 1.7 3.8 3.8 3.8h6.1c2.1 0 3.8-1.7 3.8-3.8v-9.4c0-2.1-1.7-3.8-3.8-3.8h-6.1c-2.1 0-3.8 1.7-3.8 3.8v9.4z"/></g><path class="st57" d="M362.3 132.7c0 1.4-1.1 2.6-2.6 2.6-1.4 0-2.6-1.1-2.6-2.6 0-1.4 1.1-2.6 2.6-2.6s2.6 1.2 2.6 2.6zM359.4 143.1c0 1.4-1.1 2.6-2.6 2.6s-2.6-1.1-2.6-2.6c0-1.4 1.1-2.6 2.6-2.6s2.6 1.2 2.6 2.6zM365.3 143.1c0 1.4-1.1 2.6-2.6 2.6-1.4 0-2.6-1.1-2.6-2.6s1.1-2.6 2.6-2.6c1.4.1 2.6 1.2 2.6 2.6zM359.4 137.8c0 1.4-1.1 2.6-2.6 2.6-1.4 0-2.6-1.1-2.6-2.6 0-1.4 1.1-2.6 2.6-2.6 1.4 0 2.6 1.1 2.6 2.6zM365.3 137.8c0 1.4-1.1 2.6-2.6 2.6-1.4 0-2.6-1.1-2.6-2.6 0-1.4 1.1-2.6 2.6-2.6 1.4 0 2.6 1.1 2.6 2.6z"/><g><path class="st19" d="M388.3 129.1c0 2 1.7 3.7 3.7 3.7h10.3c2 0 3.7-1.7 3.7-3.7v-5.2c0-2-1.7-3.7-3.7-3.7H392c-2 0-3.7 1.7-3.7 3.7v5.2z"/><path class="st61" d="M388.3 129.1c0 2 1.7 3.7 3.7 3.7h10.3c2 0 3.7-1.7 3.7-3.7v-5.2c0-2-1.7-3.7-3.7-3.7H392c-2 0-3.7 1.7-3.7 3.7v5.2z"/></g><path class="st57" d="M405.3 123.6c0 1.4-1.1 2.6-2.6 2.6-1.4 0-2.6-1.1-2.6-2.6 0-1.4 1.1-2.6 2.6-2.6s2.6 1.2 2.6 2.6zM399.9 123.6c0 1.4-1.1 2.6-2.6 2.6-1.4 0-2.6-1.1-2.6-2.6 0-1.4 1.1-2.6 2.6-2.6 1.4 0 2.6 1.2 2.6 2.6zM394.5 123.7c0 1.4-1.1 2.6-2.6 2.6-1.4 0-2.6-1.1-2.6-2.6 0-1.4 1.1-2.6 2.6-2.6 1.4 0 2.6 1.2 2.6 2.6zM405.3 129.3c0 1.4-1.1 2.6-2.6 2.6s-2.6-1.1-2.6-2.6c0-1.4 1.1-2.6 2.6-2.6s2.6 1.2 2.6 2.6zM399.9 129.3c0 1.4-1.1 2.6-2.6 2.6-1.4 0-2.6-1.1-2.6-2.6 0-1.4 1.1-2.6 2.6-2.6 1.4 0 2.6 1.2 2.6 2.6zM394.5 129.4c0 1.4-1.1 2.6-2.6 2.6-1.4 0-2.6-1.1-2.6-2.6 0-1.4 1.1-2.6 2.6-2.6 1.4 0 2.6 1.2 2.6 2.6z"/></g><path class="st52" d="M351 93.1h56v56h-56z"/></g></g><g><defs><path id="SVGID_1_" d="M17 84.3h64.7V149H17z"/></defs><clipPath id="SVGID_2_"><use xlink:href="#SVGID_1_" overflow="visible"/></clipPath><g clip-path="url(#SVGID_2_)"><g><path class="st15" d="M57.3 146.7c-5 0-9.1-4.1-9.1-9.1s4.1-9.1 9.1-9.1 9.1 4.1 9.1 9.1-4.1 9.1-9.1 9.1zm0-10.8c-.9 0-1.7.8-1.7 1.7 0 .9.8 1.7 1.7 1.7.9 0 1.7-.8 1.7-1.7 0-1-.8-1.7-1.7-1.7z"/></g><path d="M57.3 156.5c-10.5 0-19-8.5-19-19s8.5-19 19-19 19 8.5 19 19c-.1 10.5-8.6 19-19 19zm0-30.5c-6.3 0-11.5 5.2-11.5 11.5S51 149 57.3 149s11.5-5.2 11.5-11.5S63.6 126 57.3 126z" fill="#579ac8"/><path d="M57.3 166.3c-15.9 0-28.8-12.9-28.8-28.8s12.9-28.8 28.8-28.8 28.8 12.9 28.8 28.8-13 28.8-28.8 28.8zm0-50.1c-11.7 0-21.3 9.6-21.3 21.3 0 11.7 9.6 21.3 21.3 21.3 11.7 0 21.3-9.6 21.3-21.3 0-11.7-9.6-21.3-21.3-21.3z" fill="#81b3d6"/><path d="M57.3 176.1c-21.3 0-38.6-17.3-38.6-38.6C18.7 116.3 36 99 57.3 99s38.6 17.3 38.6 38.6c0 21.2-17.3 38.5-38.6 38.5zm0-69.7c-17.2 0-31.1 14-31.1 31.1 0 17.2 14 31.1 31.1 31.1 17.2 0 31.1-14 31.1-31.1s-14-31.1-31.1-31.1z" fill="#d5e6f1"/><path d="M67.5 114.1c-.5-.1-1-.2-1.4-.4-2.3-1-.8-3.3-.6-5 .3-2.9-3-2.4-4.8-2.3-.8.1-2 .2-2.7-.2-.8-.5-1.4-2.3-1.1-3.1.4-1.1 1.6-1.5 2.7-1.7 1.1-.2 2.7 0 3.7-.5 1.8-.9 1.3-3.3 1.7-4.9.5-2.1 3.1-4.9 5.1-2.5 1 1.2.8 3.1.8 4.5 0 3.9.2 7.8.2 11.7 0 1 .1 2.3-.7 3.2-.5.7-2 1.3-2.9 1.2z" fill="#d5c0c0" stroke="#221f1f" stroke-width=".825" stroke-miterlimit="10"/><path d="M53.6 106.7c-1.1.7-1.4 2.2-1.4 3.4 0 1.5 0 3.3.9 4.7 1 1.5 2.9 1.7 4.6 1.7 1.2 0 3.3 0 3.8-1.5.5-1.4-.7-2.5-1.6-3.4-1.2-1.2-1.9-2.6-3-3.9-.7-1.1-2.1-1.8-3.3-1z" fill="#d62128" stroke="#221f1f" stroke-width=".825"/><path d="M54.1 95.9c-.7.2-1.3.5-1.8 1-1 .9-1.6 2.2-1.6 3.6 0 1.3.4 3.4 1.2 4.4.8 1.1 2.1 1.8 3.1 2.6s2.7 2.1 3.2 3.4c.8 2.1.4 4.7 2.4 6.3 2 1.6 4.6-1.5 5.1-3.3.7-2.3.6-5.1-.7-7.2-.9-1.4-2.3-1.9-3.6-2.8-.9-.6-1.5-1.2-1.8-2.2-.8-2.6-.5-5.5-3.9-5.9-.7-.1-1.2 0-1.6.1z" fill="#f8cb9e" stroke="#221f1f" stroke-width=".75" stroke-miterlimit="10"/><path class="st8" d="M46.1 138.6s.8-.5 1.9-.5c1.6 0 1.9.5 1.9.5v-2.5s-.3.5-1.9.5c-1.4 0-1.9-.5-1.9-.5v2.5z"/><path d="M22.8 123.4c-1.3.1-2.2 1.4-2.7 2.4-.7 1.4-1.4 3-1.2 4.6.2 1.8 1.9 2.8 3.4 3.5 1.1.5 2.9 1.4 4.1.3 1.1-1.1.5-2.5 0-3.7-.5-1.6-.6-3.2-1-4.8-.3-1.3-1.2-2.5-2.6-2.3z" fill="#f8ab61" stroke="#221f1f" stroke-width=".75" stroke-miterlimit="10"/><path d="M28.5 118.8c-.2-.2-.5-.3-.7-.5-.8-.7-1.5-2.1-1.9-3-.4-.9-.6-2-.3-3 .3-1.4 2.1-3 3.2-3.6 1.6-.8 4.1-.9 5.8-.2 1.6.6 3.3 2.1 4.2 3.7 1.2 2 1.6 4.4 2.1 6.6.4 1.4.7 2.9 1.2 4.3.6 1.7 1 3.7.2 5.5-.3.8-.9 1.5-1.7 1.8-.6.2-2 .4-2.6.1-1.6-.7-2.8-2.3-3.5-3.8-.8-1.6-.9-3.5-2.1-4.9-1-1.3-2.6-2.1-3.9-3z" fill="#faf6c0" stroke="#221f1f" stroke-width=".825"/><path d="M25.6 121.9c.4-1 1-1.9 2-2.3 1-.5 2.7-1.1 3.9-1 3.2.3 4.3 3.7 4.8 6.4.4 2.5 1.6 4.1 3.7 5.4 2 1.2 4.3 1.9 5.7 3.8 1.2 1.6 1.8 6-.8 6.8-1.5.4-3.1-.1-4.5-.4-1.7-.4-3.4-1-5.1-1.5-3.9-1.2-7.1-2.9-8.4-6.9-.4-1.1-.7-2.3-.9-3.4-.6-2.4-1.3-4.7-.4-6.9z" fill="#83a8d0" stroke="#221f1f" stroke-width=".75" stroke-miterlimit="10"/><g><path class="st15" d="M49.6 138.2c0 1.6 1.3 2.9 2.9 2.9H62c1.6 0 2.9-1.3 2.9-2.9v-1.3c0-1.6-1.3-2.9-2.9-2.9h-9.4c-1.6 0-2.9 1.3-2.9 2.9v1.3z"/><path d="M49.6 138.2c0 1.6 1.3 2.9 2.9 2.9H62c1.6 0 2.9-1.3 2.9-2.9v-1.3c0-1.6-1.3-2.9-2.9-2.9h-9.4c-1.6 0-2.9 1.3-2.9 2.9v1.3z" fill="none" stroke="#221f1f" stroke-width=".75" stroke-miterlimit="10"/></g><path class="st8" d="M62 130.6c0 1-.8 1.8-1.8 1.8s-1.8-.8-1.8-1.8.8-1.8 1.8-1.8 1.8.8 1.8 1.8zM37.7 143.5c0 1-.8 1.8-1.8 1.8s-1.8-.8-1.8-1.8.8-1.8 1.8-1.8 1.8.8 1.8 1.8zM44.8 112c0 1-.8 1.8-1.8 1.8s-1.8-.8-1.8-1.8.8-1.8 1.8-1.8 1.8.8 1.8 1.8z"/><path class="st73" d="M42.7 112.6c0 1.2-1.3 2.1-2.9 2.1M44.6 121.7c-.6.9-2 1-3.1.2M57.9 134.1c-.5-.9.1-2.2 1.3-2.9M35.6 142.4c-.5-.9.1-2.2 1.3-2.9M49.4 112.8c.3-1 1.5-1.6 2.9-1.2M63.1 116.5c1 0 1.9 1.2 1.8 2.6"/><path class="st8" d="M50.5 113.9c0 1-.8 1.8-1.8 1.8s-1.8-.8-1.8-1.8.8-1.8 1.8-1.8 1.8.8 1.8 1.8zM47.9 120.8c0 1-.8 1.8-1.8 1.8s-1.8-.8-1.8-1.8.8-1.8 1.8-1.8 1.8.8 1.8 1.8z"/><path d="M22.6 102c-.9 2.5-1.9 8.7 2.9 8.1 2-.2 4-2.7 5-4.2 1.5-2.4 3.4-4.3 5.4-6.4 4.4-4.6 11.5-4 17.4-3.7 2.2.1 3 0 4.6-1.7 2-2.1 1.6-5-1.5-6.7-2-1.1-5.7-1.9-7.9-1.7-3.1.2-5 .6-7.4 1.5-2 .7-3.6 1.1-5.5 2-2.1.9-4.6 2.3-6.3 3.8-2.4 2.1-3.6 2.8-5.6 7.1-.5.5-1 1.5-1.1 1.9" fill="#f3f3f3" stroke="#221f1f" stroke-width=".75" stroke-miterlimit="10"/><path class="st73" d="M24.8 137.2c-.5-.9.1-2.2 1.3-2.9"/><path class="st8" d="M26.4 138.7c0 1-.8 1.8-1.8 1.8s-1.8-.8-1.8-1.8.8-1.8 1.8-1.8 1.8.8 1.8 1.8zM66.7 120.2c0 1-.8 1.8-1.8 1.8s-1.8-.8-1.8-1.8.8-1.8 1.8-1.8 1.8.8 1.8 1.8z"/></g></g><g><text transform="matrix(.9648 0 0 1 139.183 166.268)"><tspan x="0" y="0" class="st0 st1 st2">peptide</tspan><tspan x="-5.7" y="9.6" class="st0 st1 st2">generation</tspan></text><g><path class="st75" d="M143.7 149.1h-.1c-.6-.1-1.2-.3-1.8-.5-.6-.2-1.3-.4-1.9-.5-.3-.1-.5-.4-.5-.7.1-.3.4-.5.7-.5.7.1 1.3.3 2 .5.6.2 1.1.3 1.7.5 1.4.3 2.7.1 4.2-.1.8-.1 1.6-.2 2.4-.2.9 0 2.2.1 3.2.7l1.2.9c.2.2.4.4.6.5.5.4 1.1.7 1.8.8.3.1.5.4.5.7-.1.3-.4.5-.7.5-.9-.2-1.6-.5-2.3-1-.2-.2-.5-.4-.7-.6-.3-.3-.7-.6-1-.8-.8-.5-1.8-.6-2.6-.5-.8 0-1.5.1-2.3.2-1.4.3-2.9.5-4.4.1z"/><path class="st76" d="M143.3 145.3c-.6 0-1.3 0-1.9-.1-.3 0-.7 0-1-.1-2.3-.1-4.5-.2-6.7-.5-.3 0-.6-.3-.5-.6 0-.3.3-.6.6-.5 2.2.2 4.3.3 6.6.5.3 0 .7 0 1 .1 1.2.1 2.3.2 3.4-.1.9-.2 1.8-.5 2.6-.7.3-.1.7-.2 1-.3.3-.1.6.1.7.4.1.3-.1.6-.4.7-.3.1-.7.2-1 .3-.9.3-1.8.6-2.8.8-.4 0-1 .1-1.6.1zM158.9 153.7c.6-.2 1.2-.5 1.8-.7.3-.1.6-.2 1-.3 2.1-.8 4.2-1.5 6.3-2.2.3-.1.6.1.7.4.1.3-.1.6-.4.7-2.1.6-4.1 1.4-6.2 2.2-.3.1-.7.2-1 .3-1.1.4-2.2.8-3.1 1.4-.7.5-1.5 1.1-2.1 1.7-.3.2-.5.5-.8.7-.3.2-.6.2-.8-.1-.2-.2-.2-.6.1-.8.3-.2.5-.5.8-.7.7-.6 1.4-1.2 2.2-1.8.4-.3 1-.6 1.5-.8zM171.2 148.1s-.1 0 0 0h-.5c-1.6-.1-3.3-.3-4.9-.5-1.1-.1-2.2-.3-3.2-.5-3.8-.7-7.5-1.9-10.9-3-.3-.1-.5-.4-.4-.7.1-.3.4-.5.7-.4 3.4 1.1 7 2.3 10.7 3 1 .2 2.1.3 3.1.5 1.6.2 3.2.4 4.8.5h.4c.3 0 .6.3.5.6.2.3 0 .5-.3.5zM132.6 151.4c-.3-.1-.5-.3-.4-.6 0-.3.3-.5.7-.5 1.1.1 2.3.2 3.4.2 1.7 0 3.4 0 5.2.5.8.2 1.6.5 2.4 1l.2.1c1 .5 2 1 3 1.1.4 0 .8 0 1.2-.2.1 0 .2-.1.3-.1.3-.2.7-.4 1.2-.3.3 0 .5.3.5.7 0 .3-.3.5-.7.5-.1 0-.3.1-.5.2-.1.1-.3.1-.4.2-.5.2-1.1.3-1.7.3-1.3-.1-2.4-.7-3.5-1.2l-.2-.1c-.8-.4-1.5-.7-2.2-.9-1.6-.4-3.2-.4-4.9-.5-1.1-.2-2.3-.2-3.6-.4.1 0 .1 0 0 0z"/><path class="st75" d="M168.3 144.8c-.5 0-1 0-1.5-.2-.3-.1-.6-.2-.8-.3-.5-.2-.9-.3-1.4-.3-.5 0-1.1.2-1.6.3-.3.1-.6.2-.9.2-.3.1-.6-.1-.7-.5-.1-.3.1-.6.5-.7.3-.1.6-.1.8-.2.6-.2 1.2-.3 1.9-.3s1.2.2 1.8.4c.2.1.5.2.7.2.6.1 1.1.1 1.8.1h.3c.3 0 .6.3.6.6s-.3.6-.6.6h-.3c-.2.1-.4.1-.6.1z"/><path d="M165.2 141.2s0 0 0 0c-1.7-.1-3-.1-4.2-.1-3.4.1-6.8.1-10.2-.5-.4-.1-.8-.2-1.3-.3-.4-.1-.7-.2-1.1-.3-1.6-.3-3.2-.1-4.9.1-1.2.1-2.4.3-3.6.2-.3 0-.6-.3-.6-.6s.3-.6.6-.6c0 0 0 0 0 0 1.1 0 2.3-.1 3.5-.2 1.7-.2 3.5-.4 5.3 0l1.2.3c.4.1.8.2 1.1.3 3.3.6 6.7.6 10 .5 1.3 0 2.6 0 4.3.1.3 0 .6.3.6.6-.1.3-.4.5-.7.5z" fill="#83a8d0" stroke="#231f20" stroke-width=".125"/></g><g><path d="M155.6 122.9c.7.7 1.4 1.4 2.4 1.7 1.1.3 1.3-.7 1.2-1.6-.1-.7-.3-1.7.7-2 .9-.2 1.8.2 2.7-.2.9-.5 1.4-1.9 1.3-2.8-.1-1.2-.9-2.3-1.8-3-.6-.5-1.5-1.1-2.3-1.5-1.8-.7-3.9-.8-5.8-1-1.2-.1-2.5-.2-3.8-.5-1.5-.3-3.2-.4-4.6.5-.6.4-1.1 1-1.3 1.7-.1.4 2 .6 2.2.6 1.3.3 1.3 1.4 1 2.5-.3 1.4 1 1.6 2 1.9.9.2 2.2.3 2.9.8 1.4.7 2.2 1.9 3.2 2.9z" fill="#fbf7c0" stroke="#231f20" stroke-width=".5"/><path class="st79" d="M140.8 118.3c.9-.2 1.7-.1 2.5.2l-1.7 4.6 5-.9v.1c.5 2.7-1.3 5.4-4.1 5.8-2.7.5-5.4-1.3-5.8-4.1-.4-2.6 1.4-5.2 4.1-5.7zM157.8 128.2c-.1-.9.1-1.7.4-2.5l4.5 2-.5-5h.1c2.8-.3 5.2 1.7 5.5 4.5.3 2.8-1.7 5.2-4.5 5.5-2.8.3-5.2-1.7-5.5-4.5z"/><path class="st80" d="M150.6 123.6l-1.8-1.6 1.2 2.1zM149 123.7l-.7-1.2.3 1.4zM152 121.5l-2.7-.4 2.4 1.4zM141.3 114.7l2.2 1.1-1.7-1.8zM142.8 114.2l1.1.9-.7-1.2zM140.5 117l2.7-.3-2.6-.7z"/><path d="M135.7 108.6c-1-.3-2.2.3-3 1-1 .8-2.1 1.8-2.5 3.1-.4 1.5.6 2.8 1.5 3.9.7.8 1.8 2.1 3.1 1.6 1.2-.5 1.2-1.8 1.3-2.9.1-1.4.6-2.7.9-4.1.1-1-.2-2.2-1.3-2.6z" fill="#f9ac61" stroke="#231f20" stroke-width=".5"/><path d="M154.4 102.3s-.9.6-2.1.6c-1.7 0-2.1-.6-2.1-.6v2.7s.4-.6 2.1-.6c1.5 0 2.1.6 2.1.6v-2.7z" fill="#231f20"/><path d="M173.8 113.4c-.1.9-.5 1.7-1.2 2.3-.7.6-2 1.4-3 1.6-2.7.4-4.3-2.1-5.2-4.3-.8-2-2.1-3.1-4.1-3.7-1.9-.6-3.9-.7-5.4-1.9-1.3-1.1-2.7-4.6-.7-5.7 1.1-.6 2.6-.6 3.8-.6 1.5 0 3 .1 4.5.2 3.5.2 6.4.9 8.3 4 .5.8 1 1.7 1.4 2.6.8 1.7 1.8 3.5 1.6 5.5z" fill="#84a9d1" stroke="#231f20" stroke-width=".5"/><g><path d="M150.2 102.2c-.1-.9-.9-1.6-1.8-1.5l-9.5 1c-.9.1-1.6.9-1.5 1.8l.3 2.7c.1.9.9 1.6 1.8 1.5l9.5-1c.9-.1 1.6-.9 1.5-1.8l-.3-2.7z" fill="#2c82ba"/><path d="M150.2 102.2c-.1-.9-.9-1.6-1.8-1.5l-9.5 1c-.9.1-1.6.9-1.5 1.8l.3 2.7c.1.9.9 1.6 1.8 1.5l9.5-1c.9-.1 1.6-.9 1.5-1.8l-.3-2.7z" fill="none" stroke="#231f20" stroke-width=".5"/></g></g><g><g><path fill="none" stroke="#221f1f" stroke-width="1.003" stroke-miterlimit="10" d="M152 129.3v4.7"/><g><path class="st8" d="M152 137c-.5-1.4-1.4-3.2-2.4-4.3l2.4.9 2.4-.9c-1 1.1-1.9 2.9-2.4 4.3z"/></g></g></g></g><g><path class="st19" d="M63 30.4l19.8 8.7"/><g><path class="st87" d="M63 30.4l11.9 5.2"/><g><path class="st88" d="M70.9 40.4l11.9-1.3-7.1-9.6z"/></g></g></g><g><path class="st19" d="M27.8 53.3l9.3 19.6"/><g><path class="st87" d="M27.8 53.3l5.6 11.8"/><g><path class="st88" d="M27.2 66.1l9.9 6.8L38 61z"/></g></g></g><g><path class="st19" d="M186 87.2l16.7-13.8"/><g><path class="st87" d="M186 87.2l10.1-8.3"/><g><path class="st88" d="M198.6 84.6l4.1-11.2-11.8 2z"/></g></g></g><g><path class="st19" d="M92.8 116.7l21.7-.2"/><g><path class="st87" d="M92.8 116.7l13.1-.1"/><g><path class="st88" d="M104.2 122.6l10.3-6.1-10.4-5.9z"/></g></g></g><g><path class="st19" d="M135.3 65l2.2 21.5"/><g><path class="st87" d="M135.3 65l1.3 13"/><g><path class="st88" d="M130.5 76.9l7 9.6 4.9-10.9z"/></g></g></g><g><path class="st19" d="M267 80.3V102"/><g><path class="st87" d="M267 80.3v13.1"/><g><path class="st88" d="M261 91.6l6 10.4 6-10.4z"/></g></g></g><g><path class="st19" d="M303.4 137.8h21.7"/><g><path class="st87" d="M303.4 137.8h13.1"/><g><path class="st88" d="M314.8 143.8l10.3-6-10.3-6z"/></g></g></g><text transform="translate(0 29.72)"><tspan x="0" y="0" class="st0 st1 st2">stable cell line</tspan><tspan x="10" y="9.6" class="st0 st1 st2">creation</tspan></text><text transform="translate(100.266 41.833)"><tspan x="0" y="0" class="st0 st1 st2">affinity</tspan><tspan x="-7.8" y="9.6" class="st0 st1 st2">purification</tspan><tspan x="4.9" y="19.2" class="st0 st1 st2">(AP)</tspan></text></svg>