<svg xmlns="http://www.w3.org/2000/svg" xmlns:xlink="http://www.w3.org/1999/xlink" viewBox="0 0 398.4 320.7" enable-background="new 0 0 398.4 320.7"><style>.st0{font-family:Lato,sans-serif}.st1{font-size:8px}.st2{opacity:1}.st3{fill:none;stroke:#333;stroke-width:.25;stroke-miterlimit:10}.st4{fill:#fff}.st5{fill:none;stroke:#000;stroke-miterlimit:10}.st6{fill:#f6e7e3}.st7{fill:#eccabf}.st8{fill:#f9e4dc}.st9{fill:none;stroke:#e6e7e8;stroke-width:2;stroke-linecap:round;stroke-miterlimit:10}.st10{fill:#ea9d8b}.st15{fill:#e6e7e8}.st16{fill:#939598}.st19{fill:#fff;stroke:#44c8f5;stroke-width:1.1024;stroke-miterlimit:10}.st20{fill:#acd0aa}.st21{fill:#abe0f4}.st25,.st26{fill:none;stroke:#d1d3d4;stroke-width:.5;stroke-miterlimit:10}.st26{stroke-dasharray:.9213,.9213}.st27{fill:#d1d3d4}.st28,.st30{fill:none;stroke:#000;stroke-width:.75;stroke-miterlimit:10}.st30{stroke-width:.5}.st31{fill:#f6adcd}.st32{fill:#f15a29}.st33{fill:#f7941d}.st35{fill:none;stroke:#58595b;stroke-miterlimit:10}.st36{fill:#58595b}.st37{clip-path:url(#SVGID_7_)}.st40{fill:#fff5f0}.st45,.st46,.st47{fill:#e8ddba;stroke:#e7bc32;stroke-width:.5;stroke-miterlimit:10}.st46,.st47{fill:none;stroke:#a7a9ac;stroke-width:.5629}.st47{stroke-dasharray:4.2926,4.2926}.st48{fill:#fee1d0}.st49{fill:#f79d7f}.st50{fill:none;stroke:#000;stroke-width:.5629;stroke-miterlimit:10}.st52{fill:#efa48f}.st53{fill:none;stroke:#f15a29;stroke-width:.25;stroke-miterlimit:10}.st54{fill:none;stroke:#e4ae23;stroke-width:.305}.st54,.st55,.st56{stroke-miterlimit:10}.st55{stroke-width:.305;fill:#e8ddba;stroke:#e7bc32}.st56{fill:none;stroke:#e4ae23}.st58,.st59{clip-path:url(#SVGID_9_)}.st58{fill:#fff6ea;stroke:#e9f5f9;stroke-width:5;stroke-miterlimit:10}.st59{opacity:.6}.st60,.st62{fill:none;stroke-miterlimit:10}.st60{opacity:.6;clip-path:url(#SVGID_9_);stroke:#e4ae23;stroke-width:.305}.st62{stroke:#000;stroke-width:.5;stroke-dasharray:3.6683,3.6683}</style><g id="b_-_assays"><text transform="translate(224.531 104.559)" class="st0 st1">direct binding ELISA</text><text transform="translate(2.918 220.391)" class="st0 st1">surrogate neutralization ELISA (snELISA)</text><g class="st2"><path class="st3" d="M398.2 90.9c0 1.7-1.4 3-3 3H136.9c-1.6 0-3-1.3-3-3V3.8c0-1.6 1.4-3 3-3h258.3c1.6 0 3 1.4 3 3v87.1z"/></g><text transform="translate(238.07 43.968)"><tspan x="0" y="0" class="st0 st1">adsorption</tspan><tspan x="10.7" y="9" class="st0 st1">(o/n)</tspan></text><text transform="translate(247.63 66.067)"><tspan x="0" y="0" class="st0 st1">block</tspan><tspan x=".1" y="9" class="st0 st1">(1 hr)</tspan></text><path class="st4" d="M239.7 57.4h34.7"/><path class="st5" d="M239.7 57.4h31.1"/><path d="M274.4 57.4c-1.7.6-3.8 1.7-5.1 2.9l1-2.9-1-2.9c1.3 1.2 3.4 2.3 5.1 2.9z"/><text transform="translate(147.8 31.758)"><tspan x="0" y="0" class="st0 st1">spike</tspan><tspan x="-2" y="9" class="st0 st1">trimer</tspan></text><text transform="translate(144.055 77.902)"><tspan x="0" y="0" class="st0 st1">plate recombinant</tspan><tspan x="18.8" y="8" class="st0 st1">antigen</tspan></text><text transform="translate(187.092 36.258)" class="st0 st1">RBD</text><path class="st6" d="M194.7 63.6c1.2-1.9 3.7-3 5.9-3.1 2.2-.1 6 1.3 4.8 4.3-.9 2.1-2.3 1.4-4 1.5-2 .1-4.1 2.6-6.1 1.2-1.5-1.3-1.4-2.7-.6-3.9zM183.1 65.2c.7-1.1 2.2-1.8 3.6-1.9 1.3 0 3.6.8 2.9 2.6-.5 1.2-1.4.8-2.4.9-1.2.1-2.5 1.6-3.7.7-.9-.7-.8-1.6-.4-2.3z"/><path class="st7" d="M149.8 59.9c.5.6.9 1.3 1.1 2.1.1.6 0 1.2.3 1.9.3.8.9 1.1 1.6 1.7.7.6 1 1.4.8 2.1-.1.6-1 .5-1.6.2-1-.5-1.1-1.7-2-2.3-.6-.4-1.2-.4-1.8-.5-1.3-.3-2.6-1.4-3.4-2.7-.6-1-1-2-1.4-3.1-.2-.7-.4-1.4-.3-2 .4-1.7 3.9.4 5.1 1.3.6.3 1.2.8 1.6 1.3z"/><path class="st7" d="M144.5 52.8c-1.6 0-3.4 1.1-4.3 2.4-.9 1.3-1.6 4.3.7 4.7 1.6.3 1.8-.9 2.5-1.9.9-1.2 3.3-1.5 3.2-3.3-.1-1.4-1-1.9-2.1-1.9z"/><path class="st8" d="M149.8 59.9c.5.6.9 1.3 1.1 2.1.1.6 0 1.2.3 1.9.3.8.9 1.1 1.6 1.7.7.6 1 1.4.8 2.1-.1.6-1 .5-1.6.2-1-.5-1.1-1.7-2-2.3-.6-.4-1.2-.4-1.8-.5-1.3-.3-2.6-1.4-3.4-2.7-.6-1-1-2-1.4-3.1-.2-.7-.4-1.4-.3-2 .4-1.7 3.9.4 5.1 1.3.6.3 1.2.8 1.6 1.3z"/><path class="st6" d="M144.5 52.8c-1.6 0-3.4 1.1-4.3 2.4-.9 1.3-1.6 4.3.7 4.7 1.6.3 1.8-.9 2.5-1.9.9-1.2 3.3-1.5 3.2-3.3-.1-1.4-1-1.9-2.1-1.9z"/><path class="st8" d="M163.4 60.2c-.6.5-1.2 1.1-1.5 1.8-.3.6-.3 1.2-.6 1.8-.4.7-1.2.9-1.9 1.3-.8.4-1.2 1.2-1.2 1.9 0 .6.9.6 1.5.5 1.1-.3 1.5-1.5 2.4-1.9.7-.3 1.3-.1 1.9-.1 1.3-.1 2.8-.8 3.9-2 .8-.9 1.4-1.8 1.9-2.7.3-.6.7-1.3.7-1.9-.1-1.7-3.9-.4-5.3.3-.6.2-1.3.6-1.8 1z"/><path class="st6" d="M170 54.3c1.6.3 3.1 1.7 3.8 3.2.6 1.5.7 4.5-1.6 4.5-1.6 0-1.6-1.2-2.1-2.4-.6-1.3-3-2.1-2.5-3.9.3-1.3 1.3-1.6 2.4-1.4z"/><path class="st9" d="M171.8 69.2l3.7-3.6M177.6 69.2l3.6-3.6"/><path class="st7" d="M210.4 63.2c-1.4-1.8-3.9-2.7-6.1-2.7-2.2.1-5.9 1.8-4.5 4.6 1 2 2.4 1.2 4.1 1.2 2 0 4.3 2.3 6.2.7 1.4-1.2 1.2-2.6.3-3.8zM185.8 63.7c1.2-1.9 3.7-3 5.9-3.1 2.2-.1 6 1.3 4.8 4.3-.9 2.1-2.3 1.4-4 1.5-2 .1-4.1 2.6-6.1 1.2-1.5-1.3-1.4-2.7-.6-3.9z"/><path class="st9" d="M179.4 67.4h31.7"/><path class="st8" d="M161.6 61.1c.8.2 1.5.6 2.1 1.2.5.5.7 1 1.2 1.4.7.5 1.4.5 2.2.5.9.1 1.6.7 1.8 1.3.2.6-.6.9-1.2 1-1.1.1-1.9-.8-3-.9-.8 0-1.2.4-1.8.6-1.3.4-3 .3-4.3-.4-1-.5-2-1.1-2.8-1.8-.5-.4-1.2-1-1.3-1.5-.5-1.6 3.5-1.8 5-1.7.7-.1 1.4 0 2.1.3z"/><path class="st6" d="M153.3 57.9c-1.4.9-2.3 2.7-2.3 4.4-.1 1.6 1 4.5 3.1 3.6 1.5-.6 1-1.7 1.1-3 .1-1.5 2-3.1.9-4.5-.9-1.1-1.9-1-2.8-.5z"/><path class="st10" d="M158.7 59.1c-.1.8-.3 1.6-.8 2.2-.4.5-.9.9-1.2 1.5-.4.7-.2 1.5-.1 2.3.1.9-.4 1.7-.9 2-.5.3-1-.4-1.2-1-.3-1 .5-2 .3-3.1-.1-.8-.6-1.1-.9-1.7-.7-1.2-.8-2.8-.4-4.3.3-1.1.7-2.2 1.3-3.1.3-.6.7-1.3 1.2-1.6 1.5-.8 2.4 3.1 2.6 4.6.2.8.2 1.5.1 2.2z"/><path class="st7" d="M160.2 50.4c-1.1-1.2-3.1-1.7-4.7-1.5-1.6.2-4.2 1.8-2.9 3.7.9 1.4 1.9.7 3.1.5 1.5-.2 3.4 1.4 4.6 0 1-.9.7-2-.1-2.7z"/><path class="st9" d="M140.6 67.4h32.7"/><text transform="translate(172.774 36.07)" class="st0 st1">or</text><linearGradient id="SVGID_1_" gradientUnits="userSpaceOnUse" x1="294.928" y1="36.888" x2="390.906" y2="36.888"><stop offset="0" stop-color="#fffdf4"/><stop offset=".168" stop-color="#fff9ed"/><stop offset=".388" stop-color="#fff0dd"/><stop offset=".636" stop-color="bisque"/><stop offset=".903" stop-color="#fed3a3"/><stop offset="1" stop-color="#fdcc96"/></linearGradient><path fill="url(#SVGID_1_)" d="M294.9 6.3h96v61.2h-96z"/><defs><filter id="Adobe_OpacityMaskFilter" filterUnits="userSpaceOnUse" x="294.9" y="6.3" width="96" height="61.2"><feColorMatrix values="-1 0 0 0 1 0 -1 0 0 1 0 0 -1 0 1 0 0 0 1 0" color-interpolation-filters="sRGB" result="source"/></filter></defs><mask maskUnits="userSpaceOnUse" x="294.9" y="6.3" width="96" height="61.2" id="SVGID_2_"><g filter="url(#Adobe_OpacityMaskFilter)"><image width="834" height="544" xlink:href="6662EA9C7D072DF3.jpg" transform="matrix(.12 0 0 .12 292.853 4.269)" overflow="visible"/></g></mask><g mask="url(#SVGID_2_)"><path class="st4" d="M294.9 6.3h96v61.2h-96z"/></g><path class="st9" d="M337.5 69l3.7-3.6M347.6 69l3.6-3.6"/><linearGradient id="SVGID_3_" gradientUnits="userSpaceOnUse" x1="309.995" y1="5.082" x2="376.81" y2="5.082"><stop offset="0" stop-color="#fff"/><stop offset=".095" stop-color="#eff0f0"/><stop offset=".279" stop-color="#cecfd1"/><stop offset=".532" stop-color="#999b9e"/><stop offset=".843" stop-color="#555557"/><stop offset="1"/></linearGradient><path fill="url(#SVGID_3_)" stroke="#000" stroke-width=".25" stroke-miterlimit="10" d="M376.8 3v4.2H310z"/><text transform="translate(315.486 77.902)"><tspan x="0" y="0" class="st0 st1">incubation with </tspan><tspan x="-11.6" y="10" class="st0 st1">patient sample (1-2 hr)</tspan></text><path class="st7" d="M332.3 63.2c-1.5-1.6-4.2-2.3-6.4-2-2.1.3-5.7 2.4-4 5 1.2 1.9 2.5.9 4.2.7 2-.2 4.5 1.9 6.2.1 1.4-1.3 1-2.7 0-3.8zM308 63.2c1.5-1.6 4.2-2.3 6.4-2 2.1.3 5.7 2.4 4 5-1.2 1.9-2.5.9-4.2.7-2-.2-4.5 1.9-6.2.1-1.4-1.3-1-2.7 0-3.8z"/><path class="st9" d="M296.3 67.2H339"/><text transform="translate(318.859 15.623)" class="st0 st1">dilution series</text><path class="st15" d="M319.9 32.8c.3 0 .7.1.9.3l-1.9-3.8-.6.3.2.4-.4.2-.2-.4h-.1c-.3-.3-.3-.6 0-1.1l.5.1.7-5.3-.9-.1-.6 5.1h-.4l.6-5.1-.9-.1-.7 5.3.5.1c.1.5 0 .9-.3 1.1l-.1-.1-.3.3-.3-.3.3-.3-.5-.5-2.8 3.2c.3-.1.7-.2 1-.1l1.9-2.2.3.3-1.9 2.2c.2.3.2.6.1 1l2.8-3.2-.3-.3c.3-.2.4-.5.4-1l.2.2c.1 0 .2 0 .3-.1-.2.4-.1.8.1 1.1l-.3.2 1.9 3.8c0-.4.1-.7.3-.9l-1.3-2.6.4-.2 1.4 2.5z"/><path d="M373.2 59.8l-.5.5.3.3-.3.3-.3-.3-.1.1c-.3-.2-.4-.5-.3-1.1l.5-.1-.9-5.2-.9.2.9 5H371.3l-.9-5-.9.2.9 5.2.5-.1c.3.5.3.8.1 1.1h-.1l-.2.4-.4-.2.2-.4-.6-.3-1.7 3.9c.3-.2.6-.4.9-.4l1.1-2.6.4.2-1.2 2.6c.2.2.4.6.4.9l1.7-3.9-.4-.2c.2-.3.2-.6.1-1 .1.1.2.1.3.1.1 0 .2-.1.2-.2 0 .4.1.8.4 1l-.3.3 2.9 3.1c-.1-.4-.1-.7 0-1l-2-2.1.3-.3 2 2.1c.3-.1.7-.1 1 0l-2.8-3.1zM366.1 58.3l.1.4-.4.1-.1-.4h-.1c-.2-.4-.1-.7.3-1.1l.4.2 2.2-4.8-.8-.4-2.2 4.6s-.1 0-.1-.1c-.1 0-.1 0-.1-.1l2.2-4.6-.8-.4-2.2 4.8.4.2c0 .5-.2.8-.6.9v-.1l-.4.2-.2-.4.4-.2-.4-.6-3.6 2.2c.4 0 .7 0 1 .2l2.4-1.5.2.4-2.5 1.5c.1.3 0 .7-.2 1l3.6-2.2-.2-.3c.4-.1.6-.4.7-.8 0 .1.1.2.2.3h.3c-.3.3-.3.7-.2 1l-.4.1.6 4.2c.1-.4.3-.6.6-.8l-.4-2.9.4-.1.4 2.8c.3.1.6.3.8.6l-.6-4.2-.7.3z"/><path d="M380.9 60l.1.4-.4.1-.1-.4h-.1c-.2-.3-.1-.7.2-1.1l.4.2 1.8-5-.8-.3-1.7 4.8s-.1 0-.1-.1h-.1l1.7-4.8-.8-.3-1.8 5 .4.2c0 .5-.1.9-.5 1l-.1-.1-.3.3-.3-.3.4-.3-.4-.6-3.4 2.5c.4-.1.7 0 1 .1l2.3-1.7.3.3-2.3 1.7c.1.3 0 .7-.1 1l3.4-2.5-.2-.3c.3-.1.5-.4.6-.9 0 .1.1.2.2.2h.3c-.3.4-.3.7-.1 1.1l-.4.1 1 4.1c.1-.4.2-.7.5-.9l-.7-2.8.4-.1.7 2.8c.3.1.6.2.9.5l-1-4.1-.9.2z"/><path class="st15" d="M377.2 42.8c.3 0 .6.2.9.5l-1.2-4.1-.7.2.1.4-.4.1-.1-.4h-.1c-.2-.3-.1-.7.2-1.1l.5.1 1.6-5-.8-.3-1.6 4.9s-.1 0-.2-.1h-.1l1.6-4.9-.8-.3-1.6 5 .5.1c0 .5-.1.9-.5 1l-.1-.1-.3.3-.3-.3.3-.3-.4-.6-3.3 2.6c.4-.1.7-.1 1 .1l2.2-1.8.3.3-2.3 1.8c.1.3 0 .7-.1 1l3.3-2.6-.2-.3c.3-.2.5-.5.6-.9 0 .1.1.2.2.2s.2 0 .3-.1c-.2.4-.3.7-.1 1.1l-.4.1 1.2 4.1c.1-.4.2-.7.5-.9l-.8-2.8.4-.1.7 3.1zM360.3 30c-.3-.5-.3-.8-.1-1.1h.1l.2-.4.4.2-.2.4.6.3 1.7-3.9c-.3.2-.6.4-.9.4l-1.1 2.6-.4-.2 1.1-2.7c-.2-.2-.4-.6-.4-.9l-1.7 3.9.4.2c-.2.3-.2.6-.1 1-.1-.1-.2-.1-.3-.1-.1 0-.2.1-.2.2 0-.4-.1-.8-.4-1l.3-.3-3-3c.1.4.1.7 0 1l2 2.1-.3.3-2-2.1c-.3.1-.7.1-1 0l3 3 .5-.5-.3-.3.3-.3.3.3.1-.1c.3.2.5.5.3 1.1l-.5.1 1 5.2.9-.2-.9-5H360l.9 5 .9-.2-1-5.2-.5.2z"/><path class="st16" d="M370.3 31.4l-.5.5.3.3-.3.3-.3-.3-.1.1c-.3-.2-.5-.5-.4-1.1l.5-.1-1.1-5.2-.9.2 1 5H368.2l-1-5-.9.2 1.1 5.2.5-.1c.3.5.3.8.1 1.1h-.1l-.2.4-.4-.2.2-.4-.7-.3-1.6 3.9c.3-.2.6-.4.9-.4l1.1-2.7.4.2-1.1 2.7c.2.2.4.6.4.9l1.6-3.9-.4-.1c.2-.3.2-.6 0-1 .1.1.2.1.3.1.1 0 .2-.1.2-.2 0 .4.1.8.5 1l-.3.3 3 3c-.1-.3-.1-.7 0-1l-2-2 .3-.3 2 2c.3-.1.6-.1 1 0l-2.8-3.1zM322.3 41.5c-.3-.2-.5-.5-.6-.8l-2.9-.4.1-.4 2.8.4c.2-.3.4-.5.8-.6l-4.2-.6-.1.7.4.1-.1.4-.4-.1v.1c-.4.1-.7-.1-.9-.6l.3-.4-4-3.5-.6.7 3.9 3.4-.1.1-.1.1-3.9-3.4-.6.7 4 3.5.3-.4c.5.2.7.4.7.8h-.1l.1.4-.4.1-.1-.4-.7.2 1.1 4.1c.1-.4.2-.7.5-.9l-.7-2.8.4-.1.8 2.8c.3 0 .6.2.9.5l-1.1-4.1-.4.1c0-.4-.2-.7-.7-.9.1 0 .2 0 .3-.1.1-.1.1-.3 0-.4.3.4.6.6 1 .6l-.1.4 4.4.7z"/><path d="M379.7 29.8l.1.4h-.4v-.4h-.1c-.2-.4 0-.7.4-1l.4.2 2.4-4.7-.8-.4-2.3 4.6-.1-.1s-.1 0-.1-.1l2.3-4.6-.8-.4-2.4 4.7.4.2c0 .5-.2.8-.6.9V29l-.4.2-.2-.4.4-.2-.3-.6-3.7 2.1c.4 0 .7.1 1 .3l2.5-1.4.2.4-2.5 1.4c0 .3-.1.7-.3 1l3.7-2.1-.2-.3c.4-.1.6-.4.7-.8 0 .1.1.2.2.2.1.1.2 0 .3 0-.3.3-.4.7-.3 1h-.4l.5 4.2c.1-.3.3-.6.6-.8l-.3-2.9h.4l.3 2.9c.3.1.6.3.8.6l-.5-4.2-.9.2z" fill="#bcbec0"/><path d="M360 40.3l.2-.4 2.5 1.4c.3-.2.6-.3 1-.3l-3.7-2-.3.6.4.2-.2.4-.4-.2v.1c-.4-.1-.6-.4-.6-.9l.4-.2-2.5-4.7-.8.4 2.4 4.5s-.1 0-.1.1l-.1.1-2.4-4.5-.8.4 2.5 4.7.4-.2c.4.3.5.7.4 1h-.1v.4h-.4v-.4l-.7-.1-.4 4.2c.2-.3.4-.5.8-.6l.3-2.9h.4l-.3 2.9c.3.2.5.4.6.8l.4-4.2h-.4c.1-.3 0-.7-.2-1h.3c.1-.1.2-.2.2-.3.1.4.3.7.7.8l-.2.3 3.7 2c-.2-.3-.3-.6-.3-1l-2.7-1.4zM384.9 41.1l.1-.4 2.8.7c.2-.3.5-.4.9-.5l-4.1-1.1-.1.4c-.3-.2-.7-.1-1 .1.1-.1.1-.2 0-.3 0-.1-.1-.2-.2-.2.4 0 .7-.2.9-.6l.3.2 2.6-3.4c-.3.2-.7.2-1 .1l-1.8 2.3-.3-.3 1.8-2.3c-.2-.3-.2-.6-.1-1l-2.6 3.4.6.4.3-.4.3.3-.3.3.1.1c-.1.4-.5.5-1 .5l-.2-.4-5 1.7.3.8L383 40v.2c0 .1 0 .1.1.1l-4.9 1.6.3.8 5-1.7-.2-.4c.4-.4.8-.4 1.1-.2v.1l.4.1-.1.4-.4-.1-.2.7 4.1 1.1c-.3-.2-.5-.5-.5-.9l-2.8-.7z"/><path class="st7" d="M358.1 63.2c1.5-1.6 4.2-2.3 6.4-2 2.1.3 5.7 2.4 4 5-1.2 1.9-2.5.9-4.2.7-2-.2-4.5 1.9-6.2.1-1.4-1.3-1-2.7 0-3.8zM382.4 63.2c-1.5-1.6-4.2-2.3-6.4-2-2.1.3-5.7 2.4-4 5 1.2 1.9 2.5.9 4.2.7 2-.2 4.5 1.9 6.2.1 1.4-1.3 1-2.7 0-3.8z"/><path class="st9" d="M349.4 67.2h40.9"/><radialGradient id="SVGID_4_" cx="313.87" cy="268.901" r="23.846" gradientUnits="userSpaceOnUse"><stop offset="0" stop-color="#ffde17"/><stop offset=".099" stop-color="#ffdf32"/><stop offset=".291" stop-color="#ffe462"/><stop offset=".555" stop-color="#ffeb99"/><stop offset=".88" stop-color="#fff8df"/><stop offset="1" stop-color="#fff"/></radialGradient><circle cx="313.9" cy="268.9" r="23.8" fill="url(#SVGID_4_)"/><path class="st7" d="M111.1 287.1c-1.5-1.6-4.2-2.3-6.4-2-2.1.3-5.7 2.4-4 5 1.2 1.9 2.5.9 4.2.7 2-.2 4.5 1.9 6.2.1 1.4-1.4 1-2.8 0-3.8z"/><path class="st19" d="M93.9 271.4c.8 1.1 1.4 2.4 1.7 3.7"/><g class="st2"><path class="st3" d="M397.8 317.6c0 1.6-1.3 3-3 3H3.7c-1.7 0-3-1.4-3-3v-90.3c0-1.7 1.4-3 3-3h391.1c1.7 0 3 1.3 3 3v90.3z"/></g><text transform="translate(79.98 299.963)"><tspan x="0" y="0" class="st0 st1">ACE2 binds</tspan><tspan x="-1" y="9" class="st0 st1">immobilized</tspan><tspan x="7.2" y="18" class="st0 st1">antigen</tspan></text><text transform="translate(160.778 299.963)"><tspan x="0" y="0" class="st0 st1">unbound</tspan><tspan x="-8.7" y="9" class="st0 st1">ACE2 washed</tspan><tspan x="6.4" y="18" class="st0 st1">away</tspan></text><text transform="translate(346.12 300.963)"><tspan x="0" y="0" class="st0 st1">neutralizing</tspan><tspan x="-.1" y="9" class="st0 st1">Abs present</tspan></text><circle class="st20" cx="92" cy="271.6" r="3"/><path class="st9" d="M120.2 293.1l3.7-3.6M154.1 293.1l3.7-3.6M331.7 293.1l3.6-3.7M344.7 293.1l3.7-3.7"/><path class="st7" d="M326.2 287.3c-1.5-1.6-4.2-2.3-6.4-2-2.1.3-5.7 2.4-4 5 1.2 1.9 2.5.9 4.2.7 2-.2 4.5 1.9 6.2.1 1.4-1.4 1-2.8 0-3.8zM301.9 287.3c1.5-1.6 4.2-2.3 6.4-2 2.1.3 5.7 2.4 4 5-1.2 1.9-2.5.9-4.2.7-2-.2-4.5 1.9-6.2.1-1.3-1.4-1-2.8 0-3.8zM111.1 287.1c-1.5-1.6-4.2-2.3-6.4-2-2.1.3-5.7 2.4-4 5 1.2 1.9 2.5.9 4.2.7 2-.2 4.5 1.9 6.2.1 1.4-1.4 1-2.8 0-3.8zM86.8 287.1c1.5-1.6 4.2-2.3 6.4-2 2.1.3 5.7 2.4 4 5-1.2 1.9-2.5.9-4.2.7-2-.2-4.5 1.9-6.2.1-1.4-1.4-1-2.8 0-3.8z"/><path class="st9" d="M290.5 291.3h42.6M79 291.3h42.7"/><path class="st21" d="M98.4 281.8c-.1-.7-.4-1.4-.6-2.1-.4-1.1-.6-2.2-.7-3.4-.1-.8-.2-1.8-.9-2.2-1.9-.9-4.2 3.9-5.3 5-.6.6-1.3 1.3-1.6 2.2-.3 1.1.3 2.3 1.1 3 0 0 .1 0 .1.1.9-.2 1.9-.2 2.8-.1.8.1 1.9.5 2.7 1.1.1 0 .3-.1.4-.1.9-.3 1.7-1 2-1.9.1-.5.1-1.1 0-1.6z"/><path class="st19" d="M108.4 272.6c-1.1.9-1.9 2-2.5 3.2"/><path class="st20" d="M106 271.2c-.4 1.6.5 3.2 2.1 3.6 1.6.4 3.2-.5 3.6-2.1.4-1.6-.5-3.2-2.1-3.6s-3.2.6-3.6 2.1z"/><path class="st21" d="M104.5 284.3c1.9-.3 4 .2 5.5 1.3.4-.5.6-1 .6-1.6 0-.9-.5-1.7-1-2.5-.8-1.3-1.7-6.5-3.8-6.2-.8.1-1.2 1.1-1.5 1.9-.4 1.1-.9 2.1-1.6 3.1-.4.6-.9 1.2-1.2 1.8-.2.5-.4 1-.4 1.5 0 .6.3 1.2.7 1.7 1-.5 1.9-.9 2.7-1z"/><path class="st19" d="M309.1 272.4c.8 1.1 1.4 2.4 1.7 3.7"/><circle class="st20" cx="308.5" cy="272.6" r="2.5"/><path class="st21" d="M313.5 282.9c-.1-.7-.4-1.4-.6-2.1-.4-1.1-.6-2.2-.7-3.4-.1-.8-.2-1.8-.9-2.2-1.9-.9-4.2 3.9-5.3 5-.6.6-1.3 1.3-1.6 2.2-.3 1.1.3 2.3 1.1 3 0 0 .1 0 .1.1.9-.2 1.9-.2 2.8-.1.8.1 1.9.5 2.7 1.1.1 0 .3-.1.4-.1.9-.3 1.7-1 2-1.9.2-.6.1-1.1 0-1.6z"/><path class="st19" d="M323.8 273.6c-1.1.9-1.9 2-2.5 3.2"/><path class="st20" d="M320.6 272.3c-.4 1.4.4 2.7 1.8 3.1 1.4.4 2.7-.4 3.1-1.8.4-1.4-.4-2.7-1.8-3.1-1.4-.4-2.8.4-3.1 1.8z"/><path class="st21" d="M319.9 285.3c1.9-.3 4 .2 5.5 1.3.4-.5.6-1 .6-1.6 0-.9-.5-1.7-1-2.5-.8-1.3-1.7-6.5-3.8-6.2-.8.1-1.2 1.1-1.5 1.9-.4 1.1-.9 2.1-1.6 3.1-.4.6-.9 1.2-1.2 1.8-.2.5-.4 1-.4 1.5 0 .6.3 1.2.7 1.7 1-.6 1.9-.9 2.7-1z"/><path d="M180.1 251.4c-1 .4-1.7 2.6-.8 4.1" fill="#fff" stroke="#9adbf9" stroke-width="1.079" stroke-miterlimit="10"/><path d="M178.1 249.6c.1 1.6 1.6 2.9 3.2 2.7 1.6-.1 2.9-1.6 2.7-3.2-.1-1.6-1.6-2.9-3.2-2.7-1.6.1-2.8 1.6-2.7 3.2z" fill="#dbe9d9"/><path d="M184.8 260.9c-1.7.7-3.3 2.2-4.1 4-.5-.2-1-.6-1.3-1.1-.5-.8-.5-1.7-.5-2.6-.1-1.5-1.9-6.5 0-7.3.8-.3 1.6.3 2.2.8.9.7 1.9 1.3 2.9 1.8.6.3 1.3.6 1.9.9.4.3.8.6 1.1 1.1.3.6.4 1.2.3 1.8-.8.1-1.8.3-2.5.6z" fill="#dcf1fa"/><g><path class="st4" d="M237 291.1h27.9"/><path class="st5" d="M237 291.1h24.3"/><path d="M264.9 291.1c-1.7.6-3.8 1.7-5.1 2.9l1-2.9-1-2.9c1.3 1.2 3.4 2.3 5.1 2.9z"/></g><text transform="translate(230.907 266.31)"><tspan x="0" y="0" class="st0 st1">+ poly-HRP</tspan><tspan x="-1.2" y="9" class="st0 st1">streptavidin</tspan><tspan x="10.7" y="18" class="st0 st1">(1 hr)</tspan></text><text transform="translate(240.086 301.919)"><tspan x="0" y="0" class="st0 st1">+TMB</tspan><tspan x="-10.5" y="9" class="st0 st1">(7.5 - 15 min)</tspan></text><text transform="translate(360.672 238.57)" class="st0 st1">low</text><text transform="translate(356.722 247.57)" class="st0 st1">OD</text><text transform="matrix(.583 0 0 .583 369.13 250.234)" class="st0 st1">450</text><text transform="translate(304.28 238.57)" class="st0 st1">high</text><text transform="translate(301.533 247.57)" class="st0 st1">OD</text><text transform="matrix(.583 0 0 .583 313.941 250.234)" class="st0 st1">450</text><text transform="translate(118.282 253.11)" class="st0 st1">1 hr</text><g><path class="st5" d="M80 255.9h87.7"/><path d="M170.4 255.9c-1.3.5-2.9 1.3-3.8 2.1l.8-2.1-.8-2.1c.9.8 2.5 1.6 3.8 2.1z"/></g><g><path class="st5" d="M91.3 255.9c9.2 0 10.6 3.2 10.8 8"/><path d="M102.2 266.5c-.5-1.3-1.4-2.8-2.2-3.8l2.2.7 2.1-.8c-.9 1-1.7 2.6-2.1 3.9z"/></g><g><path class="st25" d="M189.5 251.3h.5"/><path class="st26" d="M190.9 251.3c2.2-.3 4.5-1.6 5.8-3.4"/><path class="st25" d="M197 247.5c.1-.1.2-.3.2-.4"/><path class="st27" d="M197.8 245.2c.1 1 .3 2.2.7 3.1l-1.3-1-1.6.1c.7-.5 1.6-1.4 2.2-2.2z"/></g><g><path class="st28" d="M191.7 254.3h.5"/><path d="M193.1 254.2c2.1-.3 4.3-1.5 5.7-3.2" fill="none" stroke="#000" stroke-width=".75" stroke-miterlimit="10" stroke-dasharray=".8869,.8869"/><path class="st28" d="M199 250.7c.1-.1.2-.3.3-.4"/><path d="M200 248.1c0 1.1.2 2.6.7 3.6l-1.5-1.2h-1.9c.9-.5 2-1.5 2.7-2.4z"/></g><g><path class="st25" d="M194.8 256.6h.5"/><path class="st26" d="M196.2 256.6c2.2-.3 4.5-1.6 5.8-3.4"/><path class="st25" d="M202.3 252.8c.1-.1.2-.3.2-.4"/><path class="st27" d="M203.1 250.5c.1 1 .3 2.2.7 3.1l-1.3-1-1.6.1c.7-.5 1.6-1.4 2.2-2.2z"/></g><g><text transform="translate(10.207 273.442)"><tspan x="0" y="0" class="st0 st1">recombinant</tspan><tspan x="12.2" y="9" class="st0 st1">ACE2</tspan></text><text transform="translate(42.75 239.57)"><tspan x="0" y="0" class="st0 st1">biotin</tspan><tspan x="4.7" y="7" class="st0 st1">tag</tspan></text><path class="st19" d="M31.9 249.5c.8-.8 3.1-.4 4.1 1.1"/><path class="st20" d="M34.1 245c1.3 1.1 1.4 2.9.4 4.2-1.1 1.3-2.9 1.4-4.2.4-1.3-1.1-1.4-2.9-.4-4.2 1.1-1.3 3-1.5 4.2-.4z"/><path class="st21" d="M38 259.2c1.6-1 3.7-1.4 5.6-1 .1-.6.1-1.2-.1-1.7-.4-.8-1.2-1.4-1.9-1.9-1.2-.9-4.2-5.3-5.9-4.2-.7.5-.7 1.5-.6 2.3.1 1.1 0 2.3-.2 3.4-.1.7-.3 1.4-.4 2.1 0 .5 0 1 .2 1.5.3.6.8 1 1.3 1.3.6-.7 1.3-1.4 2-1.8z"/><path class="st4" d="M43.1 241.8l-8 4.5"/><path class="st30" d="M43.1 241.8l-6.7 3.7"/><path d="M35.1 246.3c.5-.6 1-1.4 1.3-2.1l.2 1.2 1 .8c-.8-.1-1.8 0-2.5.1z"/><g><path class="st4" d="M30.4 267.2l4.3-7.4"/><path class="st30" d="M30.4 267.2l3.6-6.1"/><path d="M34.7 259.8c-.1.7-.2 1.7 0 2.4l-.8-1-1.2-.2c.6-.2 1.4-.7 2-1.2z"/></g></g><g><path class="st31" d="M254 249c.2-.5.5-1 .9-1.3-.4-.8-1-1.4-1.8-1.8-.8.9-2 1.3-3.2.9-.5-.2-1-.5-1.3-.9-.8.4-1.4 1-1.8 1.8.9.8 1.3 2 .9 3.2-.2.5-.5 1-.9 1.3.4.8 1 1.4 1.8 1.8.8-.9 2-1.3 3.2-.9.5.2 1 .5 1.3.9.8-.4 1.4-1 1.8-1.8-.9-.8-1.2-2-.9-3.2z"/><path class="st32" d="M246.9 242l-.3 1.9c0 .1 0 .1.1.1h.6c.1 0 .1 0 .1-.1l-.4-1.9c0-.1-.1-.1-.1 0zM249.6 243l-1.5 1.1v.1l.4.4h.1l1.1-1.5c0-.1-.1-.2-.1-.1zM250.7 245.6l-1.9-.3c-.1 0-.1 0-.1.1v.6c0 .1 0 .1.1.1l1.9-.3c.1 0 .1-.2 0-.2zM249.7 248.3l-1.1-1.5h-.1l-.4.4v.1l1.5 1.1c.1.1.2 0 .1-.1zM247.1 249.5l.3-1.9c0-.1 0-.1-.1-.1h-.6c-.1 0-.1 0-.1.1l.3 1.9c0 .1.1.1.2 0zM244.4 248.5l1.5-1.1v-.1l-.4-.4h-.1l-1.1 1.5c-.1 0 0 .1.1.1zM243.2 245.8l1.9.3c.1 0 .1 0 .1-.1v-.6c0-.1 0-.1-.1-.1l-1.9.3c-.1.1-.1.2 0 .2zM244.2 243.1l1.1 1.5h.1l.4-.4v-.1l-1.5-1.1-.1.1z"/><path class="st32" d="M249.6 243l-1.5 1.1v.1l.4.4h.1l1.1-1.5c0-.1-.1-.2-.1-.1zM250.7 245.6l-1.9-.3c-.1 0-.1 0-.1.1v.6c0 .1 0 .1.1.1l1.9-.3c.1 0 .1-.2 0-.2zM249.7 248.3l-1.1-1.5h-.1l-.4.4v.1l1.5 1.1c.1.1.2 0 .1-.1zM247.1 249.5l.3-1.9c0-.1 0-.1-.1-.1h-.6c-.1 0-.1 0-.1.1l.3 1.9c0 .1.1.1.2 0zM244.4 248.5l1.5-1.1v-.1l-.4-.4h-.1l-1.1 1.5c-.1 0 0 .1.1.1zM243.2 245.8l1.9.3c.1 0 .1 0 .1-.1v-.6c0-.1 0-.1-.1-.1l-1.9.3c-.1.1-.1.2 0 .2zM244.2 243.1l1.1 1.5h.1l.4-.4v-.1l-1.5-1.1-.1.1zM246.9 242l-.3 1.9c0 .1 0 .1.1.1h.6c.1 0 .1 0 .1-.1l-.4-1.9c0-.1-.1-.1-.1 0z"/><path class="st33" d="M245.8 243l.1.6c0 .1.1.1.1.1l.2-.1c.1 0 .1-.1 0-.1l-.3-.5c0-.2-.1-.1-.1 0zM248 242.9l-.3.5v.1l.2.1s.1 0 .1-.1l.1-.6c.1 0-.1-.1-.1 0zM249.7 244.6l-.6.1c-.1 0-.1.1-.1.1l.1.2c0 .1.1.1.1 0l.5-.3c.2 0 .1-.2 0-.1zM249.8 246.8l-.5-.3h-.1l-.1.2s0 .1.1.1l.6.1s.1-.1 0-.1zM248.1 248.5l-.1-.6c0-.1-.1-.1-.1-.1l-.2.1c-.1 0-.1.1 0 .1l.3.5c0 .2.2.1.1 0zM245.9 248.6l.3-.5v-.1l-.2-.1s-.1 0-.1.1l-.1.6h.1zM244.2 246.9l.6-.1c.1 0 .1-.1.1-.1l-.1-.2c0-.1-.1-.1-.1 0l-.5.3c-.2 0-.1.1 0 .1zM244.1 244.7l.5.3h.1l.1-.2s0-.1-.1-.1l-.6-.1c0-.1-.1.1 0 .1z"/><circle class="st32" cx="246.9" cy="245.8" r="1.9"/><path class="st4" d="M246.9 244.1c.9 0 1.7.8 1.7 1.7 0 .9-.8 1.7-1.7 1.7-.9 0-1.7-.8-1.7-1.7.1-.9.8-1.7 1.7-1.7m0-.5c-1.2 0-2.2 1-2.2 2.2 0 1.2 1 2.2 2.2 2.2 1.2 0 2.2-1 2.2-2.2 0-1.2-1-2.2-2.2-2.2z"/><g><path class="st32" d="M256.3 242.4l-1 1.6v.1l.5.2c.1 0 .1 0 .1-.1l.4-1.8c.2 0 .1-.1 0 0zM258.5 244.4l-1.8.5c-.1 0-.1.1-.1.1l.2.5s.1.1.1 0l1.6-1c.1 0 .1-.1 0-.1zM258.6 247.3l-1.6-1h-.1l-.2.5c0 .1 0 .1.1.1l1.8.4c0 .2.1 0 0 0zM256.6 249.4l-.5-1.8c0-.1-.1-.1-.1-.1l-.5.2s-.1.1 0 .1l1 1.6c0 .2.2.1.1 0zM253.7 249.5l1-1.6v-.1l-.5-.2c-.1 0-.1 0-.1.1l-.4 1.8c-.1 0 0 .1 0 0zM251.6 247.6l1.8-.5c.1 0 .1-.1.1-.1l-.2-.5s-.1-.1-.1 0l-1.6 1c-.1-.1-.1.1 0 .1zM251.5 244.7l1.6 1h.1l.2-.5c0-.1 0-.1-.1-.1l-1.8-.4c0-.2-.1-.1 0 0zM253.5 242.5l.5 1.8c0 .1.1.1.1.1l.5-.2s.1-.1 0-.1l-1-1.6c0-.1-.2-.1-.1 0z"/><path class="st32" d="M258.5 244.4l-1.8.5c-.1 0-.1.1-.1.1l.2.5s.1.1.1 0l1.6-1c.1 0 .1-.1 0-.1zM258.6 247.3l-1.6-1h-.1l-.2.5c0 .1 0 .1.1.1l1.8.4c0 .2.1 0 0 0zM256.6 249.4l-.5-1.8c0-.1-.1-.1-.1-.1l-.5.2s-.1.1 0 .1l1 1.6c0 .2.2.1.1 0zM253.7 249.5l1-1.6v-.1l-.5-.2c-.1 0-.1 0-.1.1l-.4 1.8c-.1 0 0 .1 0 0zM251.6 247.6l1.8-.5c.1 0 .1-.1.1-.1l-.2-.5s-.1-.1-.1 0l-1.6 1c-.1-.1-.1.1 0 .1zM251.5 244.7l1.6 1h.1l.2-.5c0-.1 0-.1-.1-.1l-1.8-.4c0-.2-.1-.1 0 0zM253.5 242.5l.5 1.8c0 .1.1.1.1.1l.5-.2s.1-.1 0-.1l-1-1.6c0-.1-.2-.1-.1 0zM256.3 242.4l-1 1.6v.1l.5.2c.1 0 .1 0 .1-.1l.4-1.8c.2 0 .1-.1 0 0z"/><path class="st33" d="M255 243l-.1.6c0 .1 0 .1.1.1h.2c.1 0 .1 0 .1-.1l-.1-.6c-.1-.1-.2-.1-.2 0zM257 243.7l-.5.4v.1l.1.1h.1l.4-.5c.1 0 0-.1-.1-.1zM258 245.9l-.6-.1c-.1 0-.1 0-.1.1v.2c0 .1 0 .1.1.1l.6-.1c.1 0 .1-.2 0-.2zM257.3 248l-.4-.5h-.1l-.1.1v.1l.5.4c0 .1.1 0 .1-.1zM255.1 249l.1-.6c0-.1 0-.1-.1-.1h-.2c-.1 0-.1 0-.1.1l.1.6c0 .1.2.1.2 0zM253 248.2l.5-.4v-.1l-.1-.1h-.1l-.4.5c0 .1.1.2.1.1zM252 246l.6.1c.1 0 .1 0 .1-.1v-.2c0-.1 0-.1-.1-.1l-.6.1c-.1.1-.1.2 0 .2zM252.8 244l.4.5h.1l.1-.1v-.1l-.5-.4c-.1-.1-.2 0-.1.1z"/><path class="st32" d="M255 248c-.2 0-.5 0-.7-.1-1-.4-1.5-1.5-1.1-2.5.3-.7 1-1.2 1.8-1.2.2 0 .5 0 .7.1.5.2.9.6 1.1 1 .2.5.2 1 0 1.5-.3.7-1 1.2-1.8 1.2z"/><path class="st4" d="M255 244.4c.2 0 .4 0 .6.1.9.3 1.3 1.3.9 2.2-.3.7-.9 1.1-1.6 1.1-.2 0-.4 0-.6-.1-.9-.3-1.3-1.3-.9-2.2.3-.7.9-1.1 1.6-1.1m0-.5c-.9 0-1.7.5-2 1.4-.2.5-.2 1.1 0 1.7.2.5.7 1 1.2 1.2.3.1.5.2.8.2.9 0 1.7-.5 2-1.4.4-1.1-.1-2.4-1.2-2.8-.3-.3-.5-.3-.8-.3z"/></g><g><path class="st32" d="M246.7 250.2l-.3 1.9c0 .1 0 .1.1.1h.6c.1 0 .1 0 .1-.1l-.3-1.9c-.1-.1-.2-.1-.2 0zM249.4 251.3l-1.5 1.1v.1l.4.4h.1l1.1-1.5c0-.1-.1-.2-.1-.1zM250.5 253.9l-1.9-.3c-.1 0-.1 0-.1.1v.6c0 .1 0 .1.1.1l1.9-.3c.1 0 .1-.2 0-.2zM249.5 256.6l-1.1-1.5h-.1l-.4.4v.1l1.5 1.1c.1.1.2 0 .1-.1zM246.9 257.8l.3-1.9c0-.1 0-.1-.1-.1h-.6c-.1 0-.1 0-.1.1l.3 1.9c0 .1.1.1.2 0zM244.2 256.8l1.5-1.1v-.1l-.4-.4h-.1l-1.1 1.5c-.1 0 0 .1.1.1zM243 254.1l1.9.3c.1 0 .1 0 .1-.1v-.6c0-.1 0-.1-.1-.1l-1.9.4c-.1 0-.1.1 0 .1zM244 251.4l1.1 1.5h.1l.4-.4v-.1l-1.5-1.1c0-.1-.1 0-.1.1z"/><path class="st32" d="M249.4 251.3l-1.5 1.1v.1l.4.4h.1l1.1-1.5c0-.1-.1-.2-.1-.1zM250.5 253.9l-1.9-.3c-.1 0-.1 0-.1.1v.6c0 .1 0 .1.1.1l1.9-.3c.1 0 .1-.2 0-.2zM249.5 256.6l-1.1-1.5h-.1l-.4.4v.1l1.5 1.1c.1.1.2 0 .1-.1zM246.9 257.8l.3-1.9c0-.1 0-.1-.1-.1h-.6c-.1 0-.1 0-.1.1l.3 1.9c0 .1.1.1.2 0zM244.2 256.8l1.5-1.1v-.1l-.4-.4h-.1l-1.1 1.5c-.1 0 0 .1.1.1zM243 254.1l1.9.3c.1 0 .1 0 .1-.1v-.6c0-.1 0-.1-.1-.1l-1.9.4c-.1 0-.1.1 0 .1zM244 251.4l1.1 1.5h.1l.4-.4v-.1l-1.5-1.1c0-.1-.1 0-.1.1zM246.7 250.2l-.3 1.9c0 .1 0 .1.1.1h.6c.1 0 .1 0 .1-.1l-.3-1.9c-.1-.1-.2-.1-.2 0z"/><path class="st33" d="M245.6 251.3l.1.6c0 .1.1.1.1.1l.2-.1c.1 0 .1-.1 0-.1l-.3-.5c0-.2-.1-.1-.1 0zM247.8 251.2l-.3.5v.1l.2.1s.1 0 .1-.1l.1-.6c.1 0-.1-.1-.1 0zM249.5 252.9l-.6.1c-.1 0-.1.1-.1.1l.1.2c0 .1.1.1.1 0l.5-.3c.2 0 .1-.2 0-.1zM249.6 255.1l-.5-.3h-.1l-.1.2s0 .1.1.1l.6.1s.1-.1 0-.1zM247.9 256.8l-.1-.6c0-.1-.1-.1-.1-.1l-.2.1c-.1 0-.1.1 0 .1l.3.5c0 .1.2.1.1 0zM245.7 256.9l.3-.5v-.1l-.2-.1s-.1 0-.1.1l-.1.6h.1zM244 255.2l.6-.1c.1 0 .1-.1.1-.1l-.1-.2c0-.1-.1-.1-.1 0l-.5.3c-.2 0-.1.1 0 .1zM243.9 253l.5.3h.1l.1-.2s0-.1-.1-.1l-.6-.1c0-.1-.1 0 0 .1z"/><circle class="st32" cx="246.7" cy="254.1" r="1.9"/><path class="st4" d="M246.7 252.4c.9 0 1.7.8 1.7 1.7s-.8 1.7-1.7 1.7c-.9 0-1.7-.8-1.7-1.7s.8-1.7 1.7-1.7m0-.5c-1.2 0-2.2 1-2.2 2.2 0 1.2 1 2.2 2.2 2.2 1.2 0 2.2-1 2.2-2.2 0-1.2-1-2.2-2.2-2.2z"/></g><g><path class="st32" d="M256.7 250.5l-1 1.6v.1l.5.2c.1 0 .1 0 .1-.1l.4-1.8c.2 0 0-.1 0 0zM258.8 252.5l-1.8.5c-.1 0-.1.1-.1.1l.2.5s.1.1.1 0l1.6-1c.2 0 .1-.2 0-.1zM258.9 255.3l-1.6-1h-.1l-.2.5c0 .1 0 .1.1.1l1.8.4c.1.2.1.1 0 0zM257 257.5l-.5-1.8c0-.1-.1-.1-.1-.1l-.5.2s-.1.1 0 .1l1 1.6c-.1.1.1.1.1 0zM254.1 257.6l1-1.6v-.1l-.5-.2c-.1 0-.1 0-.1.1l-.4 1.8c-.2 0-.1.1 0 0zM251.9 255.6l1.8-.5c.1 0 .1-.1.1-.1l-.2-.5s-.1-.1-.1 0l-1.6 1c-.1 0-.1.2 0 .1zM251.8 252.7l1.6 1h.1l.2-.5c0-.1 0-.1-.1-.1l-1.8-.4c0-.1-.1 0 0 0zM253.8 250.6l.5 1.8c0 .1.1.1.1.1l.5-.2s.1-.1 0-.1l-1-1.6c0-.1-.1-.1-.1 0z"/><path class="st32" d="M258.8 252.5l-1.8.5c-.1 0-.1.1-.1.1l.2.5s.1.1.1 0l1.6-1c.2 0 .1-.2 0-.1zM258.9 255.3l-1.6-1h-.1l-.2.5c0 .1 0 .1.1.1l1.8.4c.1.2.1.1 0 0zM257 257.5l-.5-1.8c0-.1-.1-.1-.1-.1l-.5.2s-.1.1 0 .1l1 1.6c-.1.1.1.1.1 0zM254.1 257.6l1-1.6v-.1l-.5-.2c-.1 0-.1 0-.1.1l-.4 1.8c-.2 0-.1.1 0 0zM251.9 255.6l1.8-.5c.1 0 .1-.1.1-.1l-.2-.5s-.1-.1-.1 0l-1.6 1c-.1 0-.1.2 0 .1zM251.8 252.7l1.6 1h.1l.2-.5c0-.1 0-.1-.1-.1l-1.8-.4c0-.1-.1 0 0 0zM253.8 250.6l.5 1.8c0 .1.1.1.1.1l.5-.2s.1-.1 0-.1l-1-1.6c0-.1-.1-.1-.1 0zM256.7 250.5l-1 1.6v.1l.5.2c.1 0 .1 0 .1-.1l.4-1.8c.2 0 0-.1 0 0z"/><path class="st33" d="M255.3 251l-.1.6c0 .1 0 .1.1.1h.2c.1 0 .1 0 .1-.1l-.1-.6c0-.1-.2-.1-.2 0zM257.4 251.8l-.5.4v.1l.1.1h.1l.4-.5c.1-.1 0-.2-.1-.1zM258.4 254l-.6-.1c-.1 0-.1 0-.1.1v.2c0 .1 0 .1.1.1l.6-.1c.1-.1.1-.2 0-.2zM257.6 256l-.4-.5h-.1l-.1.1v.1l.5.4c.1.1.2 0 .1-.1zM255.4 257l.1-.6c0-.1 0-.1-.1-.1h-.2c-.1 0-.1 0-.1.1l.1.6c.1.1.2.1.2 0zM253.4 256.3l.5-.4v-.1l-.1-.1h-.1l-.4.5c-.1 0 0 .1.1.1zM252.4 254.1l.6.1c.1 0 .1 0 .1-.1v-.2c0-.1 0-.1-.1-.1l-.6.1c-.1 0-.1.2 0 .2zM253.1 252l.4.5h.1l.1-.1v-.1l-.5-.4-.1.1z"/><path class="st32" d="M255.3 256.1c-.2 0-.5 0-.7-.1-.5-.2-.9-.6-1.1-1-.2-.5-.2-1 0-1.5.3-.7 1-1.2 1.8-1.2.2 0 .5 0 .7.1.5.2.9.6 1.1 1 .2.5.2 1 0 1.5-.3.7-1 1.2-1.8 1.2z"/><path class="st4" d="M255.3 252.4c.2 0 .4 0 .6.1.9.3 1.3 1.3.9 2.2-.3.7-.9 1.1-1.6 1.1-.2 0-.4 0-.6-.1-.9-.3-1.3-1.3-.9-2.2.3-.7 1-1.1 1.6-1.1m0-.5c-.9 0-1.7.5-2 1.4-.2.5-.2 1.1 0 1.7.2.5.7 1 1.2 1.2.3.1.5.2.8.2.9 0 1.7-.5 2-1.4.2-.5.2-1.1 0-1.7-.2-.5-.7-1-1.2-1.2-.2-.1-.5-.2-.8-.2z"/></g></g><g><path class="st31" d="M302.4 269c-.5-.2-1-.5-1.3-1-.8.4-1.4 1-1.9 1.7.9.8 1.2 2.1.7 3.2-.2.5-.5 1-1 1.3.4.8 1 1.4 1.7 1.9.8-.9 2.1-1.2 3.2-.7.5.2 1 .5 1.3 1 .8-.4 1.4-1 1.9-1.7-.9-.8-1.2-2.1-.7-3.2.2-.5.5-1 1-1.3-.4-.8-1-1.4-1.7-1.9-.8.9-2.1 1.2-3.2.7z"/><path class="st32" d="M295 275.9l1.9.4c.1 0 .1 0 .1-.1v-.6c0-.1 0-.1-.1-.1l-1.9.2c-.1 0-.1.1 0 .2zM296.1 273.2l1 1.6s.1.1.1 0l.4-.4v-.1l-1.5-1.2c.1-.1 0 0 0 .1zM298.8 272.2l-.4 1.9c0 .1 0 .1.1.1h.6c.1 0 .1 0 .1-.1l-.2-1.9c0-.1-.2-.1-.2 0zM301.5 273.3l-1.6 1s-.1.1 0 .1l.4.4h.1l1.2-1.5c0 .1-.1 0-.1 0zM302.5 276l-1.9-.4c-.1 0-.1 0-.1.1v.6c0 .1 0 .1.1.1l1.9-.2c.1 0 .1-.1 0-.2zM301.3 278.7l-1-1.6s-.1-.1-.1 0l-.4.4v.1l1.5 1.2c0 .1.1 0 0-.1zM298.6 279.7l.4-1.9c0-.1 0-.1-.1-.1h-.6c-.1 0-.1 0-.1.1l.2 1.9c.1.1.2.1.2 0zM296 278.6l1.6-1s.1-.1 0-.1l-.4-.4h-.1l-1.2 1.5c-.1-.1 0 0 .1 0z"/><path class="st32" d="M296.1 273.2l1 1.6s.1.1.1 0l.4-.4v-.1l-1.5-1.2c.1-.1 0 0 0 .1zM298.8 272.2l-.4 1.9c0 .1 0 .1.1.1h.6c.1 0 .1 0 .1-.1l-.2-1.9c0-.1-.2-.1-.2 0zM301.5 273.3l-1.6 1s-.1.1 0 .1l.4.4h.1l1.2-1.5c0 .1-.1 0-.1 0zM302.5 276l-1.9-.4c-.1 0-.1 0-.1.1v.6c0 .1 0 .1.1.1l1.9-.2c.1 0 .1-.1 0-.2zM301.3 278.7l-1-1.6s-.1-.1-.1 0l-.4.4v.1l1.5 1.2c0 .1.1 0 0-.1zM298.6 279.7l.4-1.9c0-.1 0-.1-.1-.1h-.6c-.1 0-.1 0-.1.1l.2 1.9c.1.1.2.1.2 0zM296 278.6l1.6-1s.1-.1 0-.1l-.4-.4h-.1l-1.2 1.5c-.1-.1 0 0 .1 0zM295 275.9l1.9.4c.1 0 .1 0 .1-.1v-.6c0-.1 0-.1-.1-.1l-1.9.2c-.1 0-.1.1 0 .2z"/><path class="st33" d="M295.9 277l.6-.1c.1 0 .1-.1.1-.1l-.1-.2c0-.1-.1-.1-.1 0l-.5.3c-.1 0-.1.1 0 .1zM296 274.8l.5.3h.1l.1-.2s0-.1-.1-.1l-.6-.2c-.1 0-.1.1 0 .2zM297.7 273.1l.1.6c0 .1.1.1.1.1l.2-.1c.1 0 .1-.1 0-.1l-.3-.5c0-.1-.1-.1-.1 0zM299.9 273.2l-.3.5v.1l.2.1s.1 0 .1-.1l.2-.6s-.1-.1-.2 0zM301.6 274.9l-.6.1c-.1 0-.1.1-.1.1l.1.2c0 .1.1.1.1 0l.5-.3c.1 0 .1-.1 0-.1zM301.5 277.1l-.5-.3h-.1l-.1.2s0 .1.1.1l.6.2s.1-.1 0-.2zM299.8 278.8l-.1-.6c0-.1-.1-.1-.1-.1l-.2.1c-.1 0-.1.1 0 .1l.3.5c-.1.1.1.1.1 0zM297.6 278.7l.3-.5v-.1l-.2-.1s-.1 0-.1.1l-.2.6s.1.1.2 0z"/><path class="st32" d="M298.7 277.9c-1.1-.1-1.9-1-1.8-2 .1-1 .9-1.8 1.9-1.8.6 0 1.1.3 1.4.6.3.4.5.9.5 1.4 0 1-.9 1.8-2 1.8z"/><path class="st4" d="M298.8 274.3s.1 0 0 0c1 0 1.7.8 1.7 1.8 0 .9-.8 1.6-1.7 1.6h-.1c-.9 0-1.6-.8-1.6-1.8.1-.9.8-1.6 1.7-1.6m0-.5c-1.2 0-2.1.9-2.2 2.1-.1 1.2.9 2.2 2.1 2.3h.1c1.2 0 2.1-.9 2.2-2.1 0-.6-.2-1.1-.6-1.6-.4-.4-.9-.7-1.5-.7h-.1z"/><g><path class="st32" d="M295.9 266.4l1.6 1h.1l.2-.5s0-.1-.1-.1l-1.8-.5c0-.1-.1.1 0 .1zM298 264.4l.4 1.9c0 .1.1.1.1.1l.5-.2c.1 0 .1-.1 0-.1l-.9-1.6c0-.3-.2-.2-.1-.1zM300.9 264.4l-1 1.6v.1l.5.2s.1 0 .1-.1l.5-1.8s-.1-.1-.1 0zM302.9 266.5l-1.9.4c-.1 0-.1.1-.1.1l.2.5c0 .1.1.1.1 0l1.6-.9c.2 0 .2-.1.1-.1zM302.9 269.4l-1.6-1h-.1l-.2.5s0 .1.1.1l1.8.5v-.1zM300.8 271.4l-.4-1.9c0-.1-.1-.1-.1-.1l-.5.2c-.1 0-.1.1 0 .1l.9 1.6c0 .3.1.2.1.1zM297.9 271.4l1-1.6v-.1l-.5-.2s-.1 0-.1.1l-.5 1.8c-.1 0 0 .1.1 0zM295.9 269.3l1.9-.4c.1 0 .1-.1.1-.1l-.2-.5c0-.1-.1-.1-.1 0l-1.6.9c-.3 0-.2.1-.1.1z"/><path class="st32" d="M298 264.4l.4 1.9c0 .1.1.1.1.1l.5-.2c.1 0 .1-.1 0-.1l-.9-1.6c0-.3-.2-.2-.1-.1zM300.9 264.4l-1 1.6v.1l.5.2s.1 0 .1-.1l.5-1.8s-.1-.1-.1 0zM302.9 266.5l-1.9.4c-.1 0-.1.1-.1.1l.2.5c0 .1.1.1.1 0l1.6-.9c.2 0 .2-.1.1-.1zM302.9 269.4l-1.6-1h-.1l-.2.5s0 .1.1.1l1.8.5v-.1zM300.8 271.4l-.4-1.9c0-.1-.1-.1-.1-.1l-.5.2c-.1 0-.1.1 0 .1l.9 1.6c0 .3.1.2.1.1zM297.9 271.4l1-1.6v-.1l-.5-.2s-.1 0-.1.1l-.5 1.8c-.1 0 0 .1.1 0zM295.9 269.3l1.9-.4c.1 0 .1-.1.1-.1l-.2-.5c0-.1-.1-.1-.1 0l-1.6.9c-.3 0-.2.1-.1.1zM295.9 266.4l1.6 1h.1l.2-.5s0-.1-.1-.1l-1.8-.5c0-.1-.1.1 0 .1z"/><path class="st33" d="M296.4 267.8l.6.1c.1 0 .1 0 .1-.1v-.2c0-.1 0-.1-.1-.1l-.6.1c-.1 0-.1.2 0 .2zM297.2 265.8l.3.5s.1.1.1 0l.1-.1v-.1l-.5-.4c.1-.1 0 0 0 .1zM299.5 264.9l-.1.6c0 .1 0 .1.1.1h.2c.1 0 .1 0 .1-.1l-.1-.6c-.1-.1-.2-.1-.2 0zM301.5 265.8l-.5.3s-.1.1 0 .1l.1.1h.1l.4-.5c.1 0 0-.1-.1 0zM302.4 268l-.6-.1c-.1 0-.1 0-.1.1v.2c0 .1 0 .1.1.1l.6-.1c.1 0 .1-.2 0-.2zM301.5 270l-.3-.5s-.1-.1-.1 0l-.1.1v.1l.5.4c0 .1.1 0 0-.1zM299.3 270.9l.1-.6c0-.1 0-.1-.1-.1h-.2c-.1 0-.1 0-.1.1l.1.6c0 .1.2.1.2 0zM297.3 270l.5-.3s.1-.1 0-.1l-.1-.1h-.1l-.4.5c-.1 0 0 .1.1 0z"/><path class="st32" d="M299.4 269.9c-.3 0-.5-.1-.8-.2-1-.4-1.4-1.6-1-2.6.3-.7 1-1.1 1.8-1.1.3 0 .5.1.8.2.5.2.8.6 1 1.1s.2 1-.1 1.5c-.2.6-.9 1.1-1.7 1.1z"/><path class="st4" d="M299.4 266.3c.2 0 .5 0 .7.2.8.4 1.2 1.4.8 2.2-.3.6-.9 1-1.5 1-.2 0-.5 0-.7-.2-.8-.4-1.2-1.4-.8-2.2.3-.7.9-1 1.5-1m0-.5c-.9 0-1.6.5-2 1.3-.5 1.1 0 2.4 1.1 2.9.3.1.6.2.9.2.9 0 1.6-.5 2-1.3.2-.5.3-1.1.1-1.7s-.6-1-1.1-1.2c-.3-.2-.6-.2-1-.2z"/></g><g><path class="st32" d="M303.2 276.5l1.9.4c.1 0 .1 0 .1-.1v-.6c0-.1 0-.1-.1-.1l-1.9.2c-.1 0-.1.2 0 .2zM304.4 273.8l1 1.6s.1.1.1 0l.4-.4v-.1l-1.5-1.2s-.1.1 0 .1zM307.1 272.8l-.4 1.9c0 .1 0 .1.1.1h.6c.1 0 .1 0 .1-.1l-.2-1.9c0-.1-.2-.1-.2 0zM309.7 274l-1.6 1s-.1.1 0 .1l.4.4h.1l1.2-1.5c.1 0 0-.1-.1 0zM310.8 276.7l-1.9-.4c-.1 0-.1 0-.1.1v.6c0 .1 0 .1.1.1l1.9-.2c.1-.1.1-.2 0-.2zM309.6 279.3l-1-1.6s-.1-.1-.1 0l-.4.4v.1l1.5 1.2c0 .1.1 0 0-.1zM306.9 280.4l.4-1.9c0-.1 0-.1-.1-.1h-.6c-.1 0-.1 0-.1.1l.2 1.9h.2zM304.3 279.2l1.6-1s.1-.1 0-.1l-.4-.4h-.1l-1.2 1.5c-.1-.1 0 0 .1 0z"/><path class="st32" d="M304.4 273.8l1 1.6s.1.1.1 0l.4-.4v-.1l-1.5-1.2s-.1.1 0 .1zM307.1 272.8l-.4 1.9c0 .1 0 .1.1.1h.6c.1 0 .1 0 .1-.1l-.2-1.9c0-.1-.2-.1-.2 0zM309.7 274l-1.6 1s-.1.1 0 .1l.4.4h.1l1.2-1.5c.1 0 0-.1-.1 0zM310.8 276.7l-1.9-.4c-.1 0-.1 0-.1.1v.6c0 .1 0 .1.1.1l1.9-.2c.1-.1.1-.2 0-.2zM309.6 279.3l-1-1.6s-.1-.1-.1 0l-.4.4v.1l1.5 1.2c0 .1.1 0 0-.1zM306.9 280.4l.4-1.9c0-.1 0-.1-.1-.1h-.6c-.1 0-.1 0-.1.1l.2 1.9h.2zM304.3 279.2l1.6-1s.1-.1 0-.1l-.4-.4h-.1l-1.2 1.5c-.1-.1 0 0 .1 0zM303.2 276.5l1.9.4c.1 0 .1 0 .1-.1v-.6c0-.1 0-.1-.1-.1l-1.9.2c-.1 0-.1.2 0 .2z"/><path class="st33" d="M304.2 277.6l.6-.1c.1 0 .1-.1.1-.1l-.1-.2c0-.1-.1-.1-.1 0l-.5.3c-.2 0-.1.1 0 .1zM304.2 275.4l.5.3h.1l.1-.2s0-.1-.1-.1l-.6-.2v.2zM306 273.7l.1.6c0 .1.1.1.1.1l.2-.1c.1 0 .1-.1 0-.1l-.3-.5c0-.1-.1-.1-.1 0zM308.2 273.8l-.3.5v.1l.2.1s.1 0 .1-.1l.2-.6s-.2-.1-.2 0zM309.8 275.5l-.6.1c-.1 0-.1.1-.1.1l.1.2c0 .1.1.1.1 0l.5-.3c.2.1.1-.1 0-.1zM309.8 277.7l-.5-.3h-.1l-.1.2s0 .1.1.1l.6.2s.1-.1 0-.2zM308 279.4l-.1-.6c0-.1-.1-.1-.1-.1l-.2.1c-.1 0-.1.1 0 .1l.3.5c0 .1.2.1.1 0zM305.8 279.3l.3-.5v-.1l-.2-.1s-.1 0-.1.1l-.2.6c.1.1.2.1.2 0z"/><path class="st32" d="M307 278.5c-.5 0-1-.3-1.3-.6-.3-.4-.5-.9-.5-1.4.1-1 .9-1.8 1.9-1.8 1.2.1 2 1 1.9 2 0 1-.9 1.8-2 1.8z"/><path class="st4" d="M307.1 274.9c1 0 1.7.8 1.7 1.8 0 .9-.8 1.6-1.7 1.6h-.1c-.9 0-1.6-.8-1.6-1.8.1-.9.8-1.6 1.7-1.6m0-.5c-1.2 0-2.1.9-2.2 2.1 0 .6.2 1.1.6 1.6.4.4.9.7 1.5.7h.1c1.2 0 2.1-.9 2.2-2.1.1-1.2-.9-2.2-2.1-2.3h-.1z"/></g><g><path class="st32" d="M304 266.5l1.6 1h.1l.2-.5s0-.1-.1-.1l-1.8-.5c0-.1-.1 0 0 .1zM306 264.5l.4 1.9c0 .1.1.1.1.1l.5-.2c.1 0 .1-.1 0-.1l-.9-1.6c.1-.3-.1-.2-.1-.1zM308.9 264.5l-1 1.6v.1l.5.2s.1 0 .1-.1l.5-1.8c.1 0 0-.1-.1 0zM311 266.6l-1.9.4c-.1 0-.1.1-.1.1l.2.5c0 .1.1.1.1 0l1.6-.9c.2 0 .2-.2.1-.1zM310.9 269.5l-1.6-1h-.1l-.2.5s0 .1.1.1l1.8.5c.1 0 .1-.1 0-.1zM308.9 271.5l-.4-1.9c0-.1-.1-.1-.1-.1l-.5.2c-.1 0-.1.1 0 .1l.9 1.6c0 .2.1.2.1.1zM306 271.5l1-1.6v-.1l-.5-.2s-.1 0-.1.1l-.5 1.8h.1zM303.9 269.4l1.9-.4c.1 0 .1-.1.1-.1l-.2-.5c0-.1-.1-.1-.1 0l-1.6.9c-.2 0-.2.1-.1.1z"/><path class="st32" d="M306 264.5l.4 1.9c0 .1.1.1.1.1l.5-.2c.1 0 .1-.1 0-.1l-.9-1.6c.1-.3-.1-.2-.1-.1zM308.9 264.5l-1 1.6v.1l.5.2s.1 0 .1-.1l.5-1.8c.1 0 0-.1-.1 0zM311 266.6l-1.9.4c-.1 0-.1.1-.1.1l.2.5c0 .1.1.1.1 0l1.6-.9c.2 0 .2-.2.1-.1zM310.9 269.5l-1.6-1h-.1l-.2.5s0 .1.1.1l1.8.5c.1 0 .1-.1 0-.1zM308.9 271.5l-.4-1.9c0-.1-.1-.1-.1-.1l-.5.2c-.1 0-.1.1 0 .1l.9 1.6c0 .2.1.2.1.1zM306 271.5l1-1.6v-.1l-.5-.2s-.1 0-.1.1l-.5 1.8h.1zM303.9 269.4l1.9-.4c.1 0 .1-.1.1-.1l-.2-.5c0-.1-.1-.1-.1 0l-1.6.9c-.2 0-.2.1-.1.1zM304 266.5l1.6 1h.1l.2-.5s0-.1-.1-.1l-1.8-.5c0-.1-.1 0 0 .1z"/><path class="st33" d="M304.5 267.9l.6.1c.1 0 .1 0 .1-.1v-.2c0-.1 0-.1-.1-.1l-.6.1c-.1 0-.1.2 0 .2zM305.3 265.9l.3.5s.1.1.1 0l.1-.1v-.1l-.5-.4c.1-.1 0 0 0 .1zM307.5 265l-.1.6c0 .1 0 .1.1.1h.2c.1 0 .1 0 .1-.1l-.1-.6c0-.1-.1-.1-.2 0zM309.6 265.8l-.5.3s-.1.1 0 .1l.1.1h.1l.4-.5c0 .1 0 0-.1 0zM310.5 268.1l-.6-.1c-.1 0-.1 0-.1.1v.2c0 .1 0 .1.1.1l.6-.1c.1-.1.1-.2 0-.2zM309.6 270.1l-.3-.5s-.1-.1-.1 0l-.1.1v.1l.5.4c-.1.1.1 0 0-.1zM307.4 271l.1-.6c0-.1 0-.1-.1-.1h-.2c-.1 0-.1 0-.1.1l.1.6c0 .1.1.1.2 0zM305.3 270.1l.5-.3s.1-.1 0-.1l-.1-.1h-.1l-.4.5s.1.1.1 0z"/><path class="st32" d="M307.5 270c-.3 0-.5-.1-.8-.2-1-.4-1.4-1.6-1-2.6.3-.7 1-1.1 1.8-1.1.3 0 .5.1.8.2.5.2.8.6 1 1.1s.2 1-.1 1.5c-.2.6-.9 1.1-1.7 1.1z"/><path class="st4" d="M307.5 266.3c.2 0 .5 0 .7.2.8.4 1.2 1.4.8 2.2-.3.6-.9 1-1.5 1-.2 0-.5 0-.7-.2-.8-.4-1.2-1.4-.8-2.2.3-.6.9-1 1.5-1m0-.5c-.9 0-1.6.5-2 1.3-.2.5-.3 1.1-.1 1.7.2.5.6 1 1.1 1.2.3.1.6.2.9.2.9 0 1.6-.5 2-1.3.5-1.1 0-2.4-1.1-2.9-.2-.1-.5-.2-.8-.2z"/></g></g><g><path class="st31" d="M329 269.2c.4-.4.9-.6 1.5-.7 0-.9-.2-1.7-.6-2.5-1.1.4-2.4.1-3.2-.9-.4-.4-.6-.9-.7-1.5-.9 0-1.7.2-2.5.6.4 1.1.1 2.4-.9 3.2-.4.4-.9.6-1.5.7 0 .9.2 1.7.6 2.5 1.1-.4 2.4-.1 3.2.9.4.4.6.9.7 1.5.9 0 1.7-.2 2.5-.6-.3-1.1 0-2.4.9-3.2z"/><path class="st32" d="M326.6 259.5l-1.2 1.4v.1l.5.3h.1l.7-1.7c0-.1-.1-.2-.1-.1zM328.3 261.7l-1.9.2c-.1 0-.1.1-.1.1l.1.6c0 .1.1.1.1.1l1.7-.7c.3-.1.2-.3.1-.3zM328 264.6l-1.4-1.2h-.1l-.3.5v.1l1.7.7c.1.1.2 0 .1-.1zM325.7 266.4l-.2-1.9c0-.1-.1-.1-.1-.1l-.6.1c-.1 0-.1.1-.1.1l.7 1.7c.2.2.3.2.3.1zM322.8 266l1.2-1.4v-.1l-.5-.3h-.1l-.7 1.7c-.1.1.1.2.1.1zM321 263.7l1.9-.2c.1 0 .1-.1.1-.1l-.1-.6c0-.1-.1-.1-.1-.1l-1.7.7c-.2.2-.2.4-.1.3zM321.4 260.9l1.4 1.2h.1l.3-.5v-.1l-1.7-.7c-.1-.1-.2 0-.1.1zM323.7 259.1l.2 1.9c0 .1.1.1.1.1l.6-.1c.1 0 .1-.1.1-.1l-.7-1.7c-.2-.2-.3-.2-.3-.1z"/><path class="st32" d="M328.3 261.7l-1.9.2c-.1 0-.1.1-.1.1l.1.6c0 .1.1.1.1.1l1.7-.7c.3-.1.2-.3.1-.3zM328 264.6l-1.4-1.2h-.1l-.3.5v.1l1.7.7c.1.1.2 0 .1-.1zM325.7 266.4l-.2-1.9c0-.1-.1-.1-.1-.1l-.6.1c-.1 0-.1.1-.1.1l.7 1.7c.2.2.3.2.3.1zM322.8 266l1.2-1.4v-.1l-.5-.3h-.1l-.7 1.7c-.1.1.1.2.1.1zM321 263.7l1.9-.2c.1 0 .1-.1.1-.1l-.1-.6c0-.1-.1-.1-.1-.1l-1.7.7c-.2.2-.2.4-.1.3zM321.4 260.9l1.4 1.2h.1l.3-.5v-.1l-1.7-.7c-.1-.1-.2 0-.1.1zM323.7 259.1l.2 1.9c0 .1.1.1.1.1l.6-.1c.1 0 .1-.1.1-.1l-.7-1.7c-.2-.2-.3-.2-.3-.1zM326.6 259.5l-1.2 1.4v.1l.5.3h.1l.7-1.7c0-.1-.1-.2-.1-.1z"/><path class="st33" d="M325.1 259.8l-.2.6c0 .1 0 .1.1.1h.2c.1 0 .1 0 .1-.1v-.6c0-.1-.1-.1-.2 0zM327 260.9l-.5.3s-.1.1 0 .1l.1.2h.1l.4-.4c.1-.2 0-.3-.1-.2zM327.7 263.2l-.6-.2c-.1 0-.1 0-.1.1v.2c0 .1 0 .1.1.1h.6s.1-.2 0-.2zM326.6 265.1l-.3-.5s-.1-.1-.1 0l-.2.1v.1l.4.4c.1.1.2 0 .2-.1zM324.3 265.7l.2-.6c0-.1 0-.1-.1-.1h-.2c-.1 0-.1 0-.1.1v.6c0 .1.1.1.2 0zM322.3 264.6l.5-.3s.1-.1 0-.1l-.1-.2h-.1l-.4.4c0 .2.1.3.1.2zM321.7 262.3l.6.2c.1 0 .1 0 .1-.1v-.2c0-.1 0-.1-.1-.1h-.6c-.1 0-.1.2 0 .2zM322.8 260.4l.3.5s.1.1.1 0l.2-.1v-.1l-.4-.4c-.1-.1-.2 0-.2.1z"/><path class="st32" d="M324.6 264.7c-.4 0-.7-.1-1-.3-.4-.3-.8-.7-.9-1.2-.1-.5 0-1 .2-1.5.4-.6 1-.9 1.7-.9.4 0 .7.1 1 .3.9.6 1.2 1.7.7 2.7-.4.6-1 .9-1.7.9z"/><path class="st4" d="M324.6 261.1c.3 0 .6.1.9.2.8.5 1 1.5.6 2.3-.3.5-.9.8-1.4.8-.3 0-.6-.1-.9-.2-.8-.5-1-1.5-.6-2.3.3-.5.9-.8 1.4-.8m0-.5c-.8 0-1.5.4-1.9 1.1-.6 1-.3 2.4.7 3 .3.2.7.3 1.1.3.8 0 1.5-.4 1.9-1.1.6-1 .3-2.4-.7-3-.3-.2-.7-.3-1.1-.3z"/><g><path class="st32" d="M334.4 264.8l-1.7.9s-.1.1 0 .1l.4.5h.1l1.3-1.4c.1-.1 0-.2-.1-.1zM335.2 267.6l-1.8-.5c-.1 0-.1 0-.1.1l-.1.6c0 .1 0 .1.1.1h1.9c.1-.2.1-.3 0-.3zM333.8 270.1l-.9-1.7s-.1-.1-.1 0l-.5.4v.1l1.4 1.3c.1.1.2 0 .1-.1zM331.1 270.9l.5-1.8c0-.1 0-.1-.1-.1l-.6-.1c-.1 0-.1 0-.1.1v1.9c.1.1.2.1.3 0zM328.5 269.5l1.7-.9s.1-.1 0-.1l-.4-.5h-.1l-1.3 1.4c-.1 0 0 .1.1.1zM327.7 266.7l1.8.5c.1 0 .1 0 .1-.1l.1-.6c0-.1 0-.1-.1-.1h-1.9c-.1.1-.1.3 0 .3zM329.1 264.2l.9 1.7s.1.1.1 0l.5-.4v-.1l-1.4-1.3c0-.1-.1 0-.1.1zM331.9 263.4l-.5 1.8c0 .1 0 .1.1.1l.6.1c.1 0 .1 0 .1-.1v-1.9c-.1-.1-.3-.1-.3 0z"/><path class="st32" d="M335.2 267.6l-1.8-.5c-.1 0-.1 0-.1.1l-.1.6c0 .1 0 .1.1.1h1.9c.1-.2.1-.3 0-.3zM333.8 270.1l-.9-1.7s-.1-.1-.1 0l-.5.4v.1l1.4 1.3c.1.1.2 0 .1-.1zM331.1 270.9l.5-1.8c0-.1 0-.1-.1-.1l-.6-.1c-.1 0-.1 0-.1.1v1.9c.1.1.2.1.3 0zM328.5 269.5l1.7-.9s.1-.1 0-.1l-.4-.5h-.1l-1.3 1.4c-.1 0 0 .1.1.1zM327.7 266.7l1.8.5c.1 0 .1 0 .1-.1l.1-.6c0-.1 0-.1-.1-.1h-1.9c-.1.1-.1.3 0 .3zM329.1 264.2l.9 1.7s.1.1.1 0l.5-.4v-.1l-1.4-1.3c0-.1-.1 0-.1.1zM331.9 263.4l-.5 1.8c0 .1 0 .1.1.1l.6.1c.1 0 .1 0 .1-.1v-1.9c-.1-.1-.3-.1-.3 0zM334.4 264.8l-1.7.9s-.1.1 0 .1l.4.5h.1l1.3-1.4c.1-.1 0-.2-.1-.1z"/><path class="st33" d="M333 264.5l-.4.5v.1l.2.1h.1l.2-.6c.1-.1-.1-.1-.1-.1zM334.4 266.3l-.6.1c-.1 0-.1.1-.1.1v.2c0 .1.1.1.1.1l.6-.2c.1-.2.1-.4 0-.3zM334.1 268.6l-.5-.4h-.1l-.1.2v.1l.6.2c.1.1.2 0 .1-.1zM332.4 270l-.1-.6c0-.1-.1-.1-.1-.1h-.2c-.1 0-.1.1-.1.1l.2.6c.1.1.3.1.3 0zM330 269.7l.4-.5v-.1l-.2-.1h-.1l-.2.6c-.1.1 0 .2.1.1zM328.6 268l.6-.1c.1 0 .1-.1.1-.1v-.2c0-.1-.1-.1-.1-.1l-.6.2c-.1.2-.1.3 0 .3zM328.9 265.6l.5.4h.1l.1-.2v-.1l-.6-.2c-.1-.1-.2.1-.1.1zM330.6 264.3l.1.6c0 .1.1.1.1.1h.2c.1 0 .1-.1.1-.1l-.2-.6c-.2-.2-.3-.1-.3 0z"/><path class="st32" d="M331.4 269.1c-.6 0-1.2-.3-1.5-.8-.3-.4-.4-.9-.4-1.4.1-.5.3-1 .8-1.3.3-.3.7-.4 1.2-.4.6 0 1.2.3 1.5.8.3.4.4.9.4 1.4-.1.5-.3 1-.8 1.3-.4.3-.8.4-1.2.4z"/><path class="st4" d="M331.4 265.5c.5 0 1 .2 1.3.7.6.7.4 1.8-.3 2.4-.3.2-.7.3-1 .3-.5 0-1-.2-1.3-.7-.6-.7-.4-1.8.3-2.4.3-.2.6-.3 1-.3m0-.5c-.5 0-.9.2-1.3.4-.5.4-.8.9-.8 1.4-.1.6.1 1.2.4 1.6.4.6 1.1.9 1.7.9.5 0 .9-.2 1.3-.4.5-.4.8-.9.8-1.4.1-.6-.1-1.2-.4-1.6-.4-.6-1-.9-1.7-.9z"/></g><g><path class="st32" d="M322.1 266.5l-1.2 1.4v.1l.5.3h.1l.7-1.7c.1-.2 0-.2-.1-.1zM323.9 268.7l-1.9.2c-.1 0-.1.1-.1.1l.1.6c0 .1.1.1.1.1l1.7-.7c.2-.1.2-.3.1-.3zM323.5 271.6l-1.4-1.2h-.1l-.3.5v.1l1.7.7c.1.1.2 0 .1-.1zM321.2 273.4l-.2-1.9c0-.1-.1-.1-.1-.1l-.6.1c-.1 0-.1.1-.1.1l.7 1.7c.2.2.3.2.3.1zM318.3 273l1.2-1.4v-.1l-.5-.3h-.1l-.7 1.7c0 .1.1.2.1.1zM316.6 270.7l1.9-.2c.1 0 .1-.1.1-.1l-.1-.6c0-.1-.1-.1-.1-.1l-1.7.7c-.3.2-.2.3-.1.3zM316.9 267.9l1.4 1.2h.1l.3-.5v-.1l-1.7-.7c-.1-.1-.1 0-.1.1zM319.2 266.1l.2 1.9c0 .1.1.1.1.1l.6-.1c.1 0 .1-.1.1-.1l-.7-1.7c-.2-.2-.3-.2-.3-.1z"/><path class="st32" d="M323.9 268.7l-1.9.2c-.1 0-.1.1-.1.1l.1.6c0 .1.1.1.1.1l1.7-.7c.2-.1.2-.3.1-.3zM323.5 271.6l-1.4-1.2h-.1l-.3.5v.1l1.7.7c.1.1.2 0 .1-.1zM321.2 273.4l-.2-1.9c0-.1-.1-.1-.1-.1l-.6.1c-.1 0-.1.1-.1.1l.7 1.7c.2.2.3.2.3.1zM318.3 273l1.2-1.4v-.1l-.5-.3h-.1l-.7 1.7c0 .1.1.2.1.1zM316.6 270.7l1.9-.2c.1 0 .1-.1.1-.1l-.1-.6c0-.1-.1-.1-.1-.1l-1.7.7c-.3.2-.2.3-.1.3zM316.9 267.9l1.4 1.2h.1l.3-.5v-.1l-1.7-.7c-.1-.1-.1 0-.1.1zM319.2 266.1l.2 1.9c0 .1.1.1.1.1l.6-.1c.1 0 .1-.1.1-.1l-.7-1.7c-.2-.2-.3-.2-.3-.1zM322.1 266.5l-1.2 1.4v.1l.5.3h.1l.7-1.7c.1-.2 0-.2-.1-.1z"/><path class="st33" d="M320.7 266.8l-.2.6c0 .1 0 .1.1.1h.2c.1 0 .1 0 .1-.1v-.6c-.1-.1-.2-.1-.2 0zM322.6 267.9l-.5.3s-.1.1 0 .1l.1.2h.1l.4-.4c0-.2 0-.3-.1-.2zM323.2 270.2l-.6-.2c-.1 0-.1 0-.1.1v.2c0 .1 0 .1.1.1h.6c.1-.1.1-.2 0-.2zM322.1 272.1l-.3-.5s-.1-.1-.1 0l-.2.1v.1l.4.4c.1.1.2 0 .2-.1zM319.8 272.7l.2-.6c0-.1 0-.1-.1-.1h-.2c-.1 0-.1 0-.1.1v.6c0 .1.2.1.2 0zM317.9 271.6l.5-.3s.1-.1 0-.1l-.1-.2h-.1l-.4.4c-.1.2 0 .3.1.2zM317.2 269.3l.6.2c.1 0 .1 0 .1-.1v-.2c0-.1 0-.1-.1-.1h-.6s-.1.2 0 .2zM318.3 267.4l.3.5s.1.1.1 0l.2-.1v-.1l-.4-.4c-.1-.1-.2 0-.2.1z"/><path class="st32" d="M320.2 271.7c-.4 0-.7-.1-1-.3-.4-.3-.8-.7-.9-1.2-.1-.5 0-1 .2-1.5.4-.6 1-.9 1.7-.9.4 0 .7.1 1 .3.9.6 1.2 1.7.7 2.7-.4.6-1.1.9-1.7.9z"/><path class="st4" d="M320.2 268.1c.3 0 .6.1.9.2.8.5 1.1 1.5.6 2.3-.3.5-.9.8-1.4.8-.3 0-.6-.1-.9-.2-.8-.5-1-1.5-.6-2.3.2-.5.8-.8 1.4-.8m0-.5c-.8 0-1.5.4-1.9 1.1-.6 1-.3 2.4.7 3 .3.2.7.3 1.1.3.8 0 1.5-.4 1.9-1.1.6-1 .3-2.4-.7-3-.3-.2-.7-.3-1.1-.3z"/></g><g><path class="st32" d="M330.5 271.9l-1.7.9s-.1.1 0 .1l.4.5h.1l1.3-1.4c.1-.1 0-.2-.1-.1zM331.3 274.6l-1.8-.5c-.1 0-.1 0-.1.1l-.1.6c0 .1 0 .1.1.1h1.9c.1-.1.1-.2 0-.3zM329.9 277.2l-.9-1.7s-.1-.1-.1 0l-.5.4v.1l1.4 1.3c.1 0 .2 0 .1-.1zM327.1 278l.5-1.8c0-.1 0-.1-.1-.1l-.5-.1c-.1 0-.1 0-.1.1v1.9c.1 0 .2.1.2 0zM324.6 276.6l1.7-.9s.1-.1 0-.1l-.4-.5h-.1l-1.3 1.4c-.1 0 0 .1.1.1zM323.8 273.8l1.8.5c.1 0 .1 0 .1-.1l.1-.6c0-.1 0-.1-.1-.1h-1.9c-.1.1-.1.3 0 .3zM325.2 271.3l.9 1.7s.1.1.1 0l.5-.4v-.1l-1.4-1.3c0-.1-.1 0-.1.1zM328 270.5l-.5 1.8c0 .1 0 .1.1.1l.6.1c.1 0 .1 0 .1-.1v-1.9c-.1-.1-.3-.1-.3 0z"/><path class="st32" d="M331.3 274.6l-1.8-.5c-.1 0-.1 0-.1.1l-.1.6c0 .1 0 .1.1.1h1.9c.1-.1.1-.2 0-.3zM329.9 277.2l-.9-1.7s-.1-.1-.1 0l-.5.4v.1l1.4 1.3c.1 0 .2 0 .1-.1zM327.1 278l.5-1.8c0-.1 0-.1-.1-.1l-.5-.1c-.1 0-.1 0-.1.1v1.9c.1 0 .2.1.2 0zM324.6 276.6l1.7-.9s.1-.1 0-.1l-.4-.5h-.1l-1.3 1.4c-.1 0 0 .1.1.1zM323.8 273.8l1.8.5c.1 0 .1 0 .1-.1l.1-.6c0-.1 0-.1-.1-.1h-1.9c-.1.1-.1.3 0 .3zM325.2 271.3l.9 1.7s.1.1.1 0l.5-.4v-.1l-1.4-1.3c0-.1-.1 0-.1.1zM328 270.5l-.5 1.8c0 .1 0 .1.1.1l.6.1c.1 0 .1 0 .1-.1v-1.9c-.1-.1-.3-.1-.3 0zM330.5 271.9l-1.7.9s-.1.1 0 .1l.4.5h.1l1.3-1.4c.1-.1 0-.2-.1-.1z"/><path class="st33" d="M329.1 271.6l-.4.5v.1l.2.1h.1l.2-.6c.1-.1-.1-.2-.1-.1zM330.4 273.3l-.6.1c-.1 0-.1.1-.1.1v.2c0 .1.1.1.1.1l.6-.2c.2-.1.1-.3 0-.3zM330.2 275.7l-.5-.4h-.1l-.1.2v.1l.6.2c.1.1.1 0 .1-.1zM328.5 277.1l-.1-.6c0-.1-.1-.1-.1-.1h-.2c-.1 0-.1.1-.1.1l.2.6c.1.1.3.1.3 0zM326.1 276.8l.4-.5v-.1l-.2-.1h-.1l-.2.6c-.1.1 0 .2.1.1zM324.7 275.1l.6-.1c.1 0 .1-.1.1-.1v-.2c0-.1-.1-.1-.1-.1l-.6.2c-.1.2-.1.3 0 .3zM325 272.7l.5.4h.1l.1-.2v-.1l-.6-.2c-.1-.1-.2 0-.1.1zM326.7 271.3l.1.6c0 .1.1.1.1.1h.2c.1 0 .1-.1.1-.1l-.2-.6c-.2-.1-.3-.1-.3 0z"/><path class="st32" d="M327.5 276.2c-.6 0-1.2-.3-1.5-.8-.3-.4-.4-.9-.4-1.4.1-.5.3-1 .8-1.3.3-.3.7-.4 1.2-.4.6 0 1.2.3 1.5.8.3.4.4.9.4 1.4-.1.5-.3 1-.8 1.3-.4.3-.8.4-1.2.4z"/><path class="st4" d="M327.5 272.6c.5 0 1 .2 1.3.7.6.7.4 1.8-.3 2.4-.3.2-.7.3-1 .3-.5 0-1-.2-1.3-.7-.6-.7-.4-1.8.3-2.4.3-.2.6-.3 1-.3m0-.5c-.5 0-.9.2-1.3.4-.5.4-.8.9-.8 1.4s.1 1.2.4 1.6c.4.6 1.1.9 1.7.9.5 0 .9-.2 1.3-.4 1-.7 1.2-2.1.4-3.1-.4-.5-1-.8-1.7-.8z"/></g></g><g><path d="M176 283.5l-.5.5.3.3-.3.3-.3-.3-.1.1c-.3-.2-.4-.5-.3-1.1l.5-.1-.9-5.2-.9.2.9 5H174.1l-.9-5-.9.2.9 5.2.5-.1c.3.5.3.8.1 1.1h-.1l-.2.4-.4-.2.2-.4-.6-.3-1.7 3.9c.3-.2.6-.4.9-.4l1.1-2.6.4.2-1.2 2.6c.2.2.4.6.4.9l1.7-3.9-.4-.2c.2-.3.2-.6.1-1 .1.1.2.1.3.1.1 0 .2-.1.2-.2 0 .4.1.8.4 1l-.3.3 2.9 3.1c-.1-.4-.1-.7 0-1l-2-2.1.3-.3 2 2.1c.3-.1.7-.1 1 0l-2.8-3.1z"/></g><g><path d="M168.8 282l.1.4-.4.1-.1-.4h-.1c-.2-.4-.1-.7.3-1.1l.4.2 2.2-4.8-.8-.4-2.2 4.6s-.1 0-.1-.1c-.1 0-.1 0-.1-.1l2.2-4.6-.8-.4-2.2 4.8.4.2c0 .5-.2.8-.6.9v-.1l-.4.2-.2-.4.4-.2-.4-.6-3.6 2.2c.4 0 .7 0 1 .2l2.4-1.5.2.4-2.5 1.5c.1.3 0 .7-.2 1l3.6-2.2-.2-.3c.4-.1.6-.4.7-.8 0 .1.1.2.2.3h.3c-.3.3-.3.7-.2 1l-.4.1.6 4.2c.1-.4.3-.6.6-.8l-.4-2.9.4-.1.4 2.8c.3.1.6.3.8.6l-.6-4.2-.7.3z"/></g><g><path d="M183.7 283.8l.1.4-.4.1-.1-.4h-.1c-.2-.3-.1-.7.2-1.1l.4.2 1.8-5-.8-.3-1.7 4.8s-.1 0-.1-.1h-.1l1.7-4.8-.8-.3-1.8 5 .4.2c0 .5-.1.9-.5 1l-.1-.1-.3.3-.3-.3.4-.3-.4-.6-3.4 2.5c.4-.1.7 0 1 .1l2.3-1.7.3.3-2.3 1.7c.1.3 0 .7-.1 1l3.4-2.5-.2-.3c.3-.1.5-.4.6-.9 0 .1.1.2.2.2h.3c-.3.4-.3.7-.1 1.1l-.4.1 1 4.1c.1-.4.2-.7.5-.9l-.7-2.8.4-.1.7 2.8c.3.1.6.2.9.5l-1-4.1-.9.2z"/></g><g><path d="M370.2 283.7l-.5.5.3.3-.3.3-.3-.3-.1.1c-.3-.2-.4-.5-.3-1.1l.5-.1-.9-5.2-.9.2.9 5H368.3l-.9-5-.9.2.9 5.2.5-.1c.3.5.3.8.1 1.1h-.1l-.2.4-.4-.2.2-.4-.6-.3-1.7 3.9c.3-.2.6-.4.9-.4l1.1-2.6.4.2-1.2 2.6c.2.2.4.6.4.9l1.7-3.9-.4-.2c.2-.3.2-.6.1-1 .1.1.2.1.3.1.1 0 .2-.1.2-.2 0 .4.1.8.4 1l-.3.3 2.9 3.1c-.1-.4-.1-.7 0-1l-2-2.1.3-.3 2 2.1c.3-.1.7-.1 1 0l-2.8-3.1z"/></g><g><path d="M363 282.2l.1.4-.4.1-.1-.4h-.1c-.2-.4-.1-.7.3-1.1l.4.2 2.2-4.8-.8-.4-2.2 4.6s-.1 0-.1-.1c-.1 0-.1 0-.1-.1l2.2-4.6-.8-.4-2.2 4.8.4.2c0 .5-.2.8-.6.9v-.1l-.4.2-.2-.4.4-.2-.4-.6-3.6 2.2c.4 0 .7 0 1 .2l2.4-1.5.2.4-2.5 1.5c.1.3 0 .7-.2 1l3.6-2.2-.2-.3c.4-.1.6-.4.7-.8 0 .1.1.2.2.3h.3c-.3.3-.3.7-.2 1l-.4.1.6 4.2c.1-.4.3-.6.6-.8l-.4-2.9.4-.1.4 2.8c.3.1.6.3.8.6l-.6-4.2-.7.3z"/></g><g><path d="M377.9 284l.1.4-.4.1-.1-.4h-.1c-.2-.3-.1-.7.2-1.1l.4.2 1.8-5-.8-.3-1.7 4.8s-.1 0-.1-.1h-.1l1.7-4.8-.8-.3-1.8 5 .4.2c0 .5-.1.9-.5 1l-.1-.1-.3.3-.3-.3.4-.3-.4-.6-3.4 2.5c.4-.1.7 0 1 .1l2.3-1.7.3.3-2.3 1.7c.1.3 0 .7-.1 1l3.4-2.5-.2-.3c.3-.1.5-.4.6-.9 0 .1.1.2.2.2h.3c-.3.4-.3.7-.1 1.1l-.4.1 1 4.1c.1-.4.2-.7.5-.9l-.7-2.8.4-.1.7 2.8c.3.1.6.2.9.5l-1-4.1-.9.2z"/></g><path class="st7" d="M379.4 287.3c-1.5-1.6-4.2-2.3-6.4-2-2.1.3-5.7 2.4-4 5 1.2 1.9 2.5.9 4.2.7 2-.2 4.5 1.9 6.2.1 1.3-1.4 1-2.8 0-3.8zM355.1 287.3c1.5-1.6 4.2-2.3 6.4-2 2.1.3 5.7 2.4 4 5-1.2 1.9-2.5.9-4.2.7-2-.2-4.5 1.9-6.2.1-1.4-1.4-1-2.8 0-3.8z"/><path class="st9" d="M346.6 291.3h40.8"/><path class="st7" d="M160.8 287.1c1.5-1.6 4.2-2.3 6.4-2 2.1.3 5.7 2.4 4 5-1.2 1.9-2.5.9-4.2.7-2-.2-4.5 1.9-6.2.1-1.4-1.4-1-2.8 0-3.8zM185.1 287.1c-1.5-1.6-4.2-2.3-6.4-2-2.1.3-5.7 2.4-4 5 1.2 1.9 2.5.9 4.2.7 2-.2 4.5 1.9 6.2.1 1.4-1.4 1-2.8 0-3.8z"/><path class="st9" d="M156 291.3h40.8"/><g><radialGradient id="SVGID_5_" cx="362.066" cy="149.445" r="23.846" gradientUnits="userSpaceOnUse"><stop offset="0" stop-color="#ffde17"/><stop offset=".099" stop-color="#ffdf32"/><stop offset=".291" stop-color="#ffe462"/><stop offset=".555" stop-color="#ffeb99"/><stop offset=".88" stop-color="#fff8df"/><stop offset="1" stop-color="#fff"/></radialGradient><circle cx="362.1" cy="149.4" r="23.8" fill="url(#SVGID_5_)"/><g class="st2"><path class="st3" d="M397.8 197.9c0 1.6-1.3 3-3 3H227.5c-1.6 0-3-1.4-3-3V111c0-1.7 1.4-3 3-3h167.3c1.7 0 3 1.3 3 3v86.9z"/></g><path class="st4" d="M246.7 171.3h28"/><path class="st5" d="M246.7 171.3h24.4"/><path d="M274.7 171.3c-1.7.6-3.8 1.7-5.1 2.9l1-2.9-1-2.9c1.3 1.2 3.4 2.3 5.1 2.9z"/><text transform="translate(231.826 144.403)"><tspan x="0" y="0" class="st0 st1">HRP-conjugated</tspan><tspan x="5.1" y="10" class="st0 st1">anti-IgG/A/M</tspan><tspan x="19.6" y="20" class="st0 st1">(1 hr)</tspan></text><text transform="translate(250.162 181.854)"><tspan x="0" y="0" class="st0 st1">+TMB</tspan><tspan x="-3" y="10" class="st0 st1">(15 min)</tspan></text><text transform="translate(354.477 121.607)" class="st0 st1">high</text><text transform="translate(351.731 130.607)" class="st0 st1">OD</text><text transform="matrix(.583 0 0 .583 364.14 133.27)" class="st0 st1">450</text><text transform="translate(306.572 121.607)" class="st0 st1">low</text><text transform="translate(302.622 130.607)" class="st0 st1">OD</text><text transform="matrix(.583 0 0 .583 315.03 133.27)" class="st0 st1">450</text><path class="st9" d="M329.7 173.7l3.6-3.7M339.7 173.7l3.7-3.7"/><path class="st7" d="M324.3 167.5c-1.5-1.6-4.2-2.3-6.4-2-2.1.3-5.7 2.4-4 5 1.2 1.9 2.5.9 4.2.7 2-.2 4.5 1.9 6.2.1 1.4-1.4 1-2.7 0-3.8zM300 167.5c1.5-1.6 4.2-2.3 6.4-2 2.1.3 5.7 2.4 4 5-1.2 1.9-2.5.9-4.2.7-2-.2-4.5 1.9-6.2.1-1.4-1.4-1-2.7 0-3.8z"/><path class="st9" d="M294.6 171.9h36.5"/><text transform="translate(347.473 180.084)"><tspan x="0" y="0" class="st0 st1">antigen-</tspan><tspan x="-6" y="9" class="st0 st1">specific Abs</tspan><tspan x="-1.1" y="18" class="st0 st1">detected</tspan></text><path class="st32" d="M353.5 140.9l-1.1 2.7s0 .1.1.1l.9.2c.1 0 .1 0 .1-.1l.2-2.9c0-.1-.1-.1-.2 0zM357 143.3l-2.7 1.1s-.1.1 0 .1l.5.8s.1.1.1 0l2.2-1.9c.1 0 0-.1-.1-.1zM357.8 147.5l-2.7-1.1s-.1 0-.1.1l-.2.9c0 .1 0 .1.1.1l2.9.2c.1 0 .1-.2 0-.2zM355.4 151l-1.1-2.7s-.1-.1-.1 0l-.8.5s-.1.1 0 .1l1.9 2.2s.1 0 .1-.1zM351.2 151.7l1.1-2.7c0-.1 0-.1-.1-.1l-.9-.2c-.1 0-.1 0-.1.1l-.2 2.9c0 .1.2.1.2 0zM347.7 149.3l2.7-1.1s.1-.1 0-.1l-.5-.8s-.1-.1-.1 0l-2.2 1.9c0 .1 0 .2.1.1zM347 145.2l2.7 1.1c.1 0 .1 0 .1-.1l.2-.9c0-.1 0-.1-.1-.1l-2.9-.2c-.1 0-.1.1 0 .2zM349.4 141.7l1.1 2.7s.1.1.1 0l.8-.5s.1-.1 0-.1l-1.9-2.2c-.1-.1-.2 0-.1.1z"/><path class="st32" d="M357 143.3l-2.7 1.1s-.1.1 0 .1l.5.8s.1.1.1 0l2.2-1.9c.1 0 0-.1-.1-.1zM357.8 147.5l-2.7-1.1s-.1 0-.1.1l-.2.9c0 .1 0 .1.1.1l2.9.2c.1 0 .1-.2 0-.2zM355.4 151l-1.1-2.7s-.1-.1-.1 0l-.8.5s-.1.1 0 .1l1.9 2.2s.1 0 .1-.1zM351.2 151.7l1.1-2.7c0-.1 0-.1-.1-.1l-.9-.2c-.1 0-.1 0-.1.1l-.2 2.9c0 .1.2.1.2 0zM347.7 149.3l2.7-1.1s.1-.1 0-.1l-.5-.8s-.1-.1-.1 0l-2.2 1.9c0 .1 0 .2.1.1zM347 145.2l2.7 1.1c.1 0 .1 0 .1-.1l.2-.9c0-.1 0-.1-.1-.1l-2.9-.2c-.1 0-.1.1 0 .2zM349.4 141.7l1.1 2.7s.1.1.1 0l.8-.5s.1-.1 0-.1l-1.9-2.2c-.1-.1-.2 0-.1.1zM353.5 140.9l-1.1 2.7s0 .1.1.1l.9.2c.1 0 .1 0 .1-.1l.2-2.9c0-.1-.1-.1-.2 0z"/><path class="st33" d="M351.7 141.9v1.1c0 .1 0 .1.1.1l.3-.1c.1 0 .1-.1.1-.1l-.3-1.1c-.1 0-.2 0-.2.1zM354.9 142.6l-.8.8v.1l.3.2h.1l.5-1c0-.1-.1-.2-.1-.1zM356.8 145.6h-1.1c-.1 0-.1 0-.1.1l.1.3c0 .1.1.1.1.1l1.1-.3c0-.1 0-.2-.1-.2zM356.1 148.8l-.8-.8h-.1l-.2.3v.1l1 .5c.1.1.2 0 .1-.1zM353.1 150.7v-1.1c0-.1 0-.1-.1-.1l-.3.1c-.1 0-.1.1-.1.1l.3 1.1c.1 0 .2 0 .2-.1zM349.9 150l.8-.8v-.1l-.3-.2h-.1l-.5 1c-.1.1 0 .2.1.1zM348 147h1.1c.1 0 .1 0 .1-.1l-.1-.3c0-.1-.1-.1-.1-.1l-1.1.3c0 .1 0 .2.1.2zM348.7 143.8l.8.8h.1l.2-.3v-.1l-1-.5c-.1 0-.2.1-.1.1z"/><path class="st32" d="M352.3 149.1c-.2 0-.4 0-.6-.1-.7-.2-1.3-.6-1.6-1.2-.4-.6-.5-1.3-.3-2 .3-1.2 1.3-2 2.6-2 .2 0 .4 0 .6.1.7.2 1.3.6 1.6 1.2.4.6.5 1.3.3 2-.3 1.1-1.3 2-2.6 2z"/><path class="st4" d="M352.3 144.1c.2 0 .4 0 .5.1 1.3.3 2.1 1.6 1.8 2.9-.3 1.1-1.2 1.8-2.3 1.8-.2 0-.4 0-.5-.1-1.3-.3-2.1-1.6-1.8-2.9.3-1.1 1.3-1.8 2.3-1.8m0-.5c-1.3 0-2.5.9-2.8 2.2-.2.7 0 1.5.4 2.2.4.7 1 1.1 1.8 1.3.2.1.4.1.7.1 1.3 0 2.5-.9 2.8-2.2.4-1.5-.6-3.1-2.1-3.5-.3-.1-.5-.1-.8-.1z"/><g><path class="st32" d="M361.1 148l2.9.7c.1 0 .1 0 .1-.1l.1-.9c0-.1 0-.1-.1-.1l-2.9.2c-.2 0-.2.2-.1.2zM362.9 144.2l1.5 2.5s.1.1.1 0l.7-.6v-.1l-2.2-1.9c0-.1-.1 0-.1.1zM366.9 142.8l-.7 2.9c0 .1 0 .1.1.1l.9.1c.1 0 .1 0 .1-.1l-.2-2.9c0-.2-.1-.2-.2-.1zM370.8 144.6l-2.5 1.5s-.1.1 0 .1l.6.7h.1l1.9-2.2s0-.1-.1-.1zM372.2 148.6l-2.9-.7c-.1 0-.1 0-.1.1l-.1.9c0 .1 0 .1.1.1l2.9-.2c.1 0 .2-.1.1-.2zM370.3 152.5l-1.5-2.5s-.1-.1-.1 0l-.7.6v.1l2.2 1.9c.1 0 .2-.1.1-.1zM366.3 153.8l.7-2.9c0-.1 0-.1-.1-.1l-.9-.1c-.1 0-.1 0-.1.1l.2 2.9c0 .2.2.2.2.1zM362.5 152l2.5-1.5s.1-.1 0-.1l-.6-.7h-.1l-1.9 2.2c-.1 0 0 .2.1.1z"/><path class="st32" d="M362.9 144.2l1.5 2.5s.1.1.1 0l.7-.6v-.1l-2.2-1.9c0-.1-.1 0-.1.1zM366.9 142.8l-.7 2.9c0 .1 0 .1.1.1l.9.1c.1 0 .1 0 .1-.1l-.2-2.9c0-.2-.1-.2-.2-.1zM370.8 144.6l-2.5 1.5s-.1.1 0 .1l.6.7h.1l1.9-2.2s0-.1-.1-.1zM372.2 148.6l-2.9-.7c-.1 0-.1 0-.1.1l-.1.9c0 .1 0 .1.1.1l2.9-.2c.1 0 .2-.1.1-.2zM370.3 152.5l-1.5-2.5s-.1-.1-.1 0l-.7.6v.1l2.2 1.9c.1 0 .2-.1.1-.1zM366.3 153.8l.7-2.9c0-.1 0-.1-.1-.1l-.9-.1c-.1 0-.1 0-.1.1l.2 2.9c0 .2.2.2.2.1zM362.5 152l2.5-1.5s.1-.1 0-.1l-.6-.7h-.1l-1.9 2.2c-.1 0 0 .2.1.1zM361.1 148l2.9.7c.1 0 .1 0 .1-.1l.1-.9c0-.1 0-.1-.1-.1l-2.9.2c-.2 0-.2.2-.1.2z"/><path class="st33" d="M362.4 149.7l1.1-.2c.1 0 .1-.1.1-.1l-.1-.3c0-.1-.1-.1-.1-.1l-1 .5c-.2.1-.1.2 0 .2zM362.6 146.4l.9.7h.1l.2-.3s0-.1-.1-.1l-1.1-.4c0-.1-.1.1 0 .1zM365.3 144.1l.2 1.1c0 .1.1.1.1.1l.3-.1c.1 0 .1-.1.1-.1l-.5-1c-.1-.2-.3-.1-.2 0zM368.5 144.3l-.7.9v.1l.3.2s.1 0 .1-.1l.4-1.1c.1 0 0-.1-.1 0zM370.9 146.9l-1.1.2c-.1 0-.1.1-.1.1l.1.3c0 .1.1.1.1.1l1-.5c.1 0 .1-.2 0-.2zM370.7 150.2l-.9-.7h-.1l-.2.3s0 .1.1.1l1.1.4v-.1zM368 152.6l-.2-1.1c0-.1-.1-.1-.1-.1l-.3.1c-.1 0-.1.1-.1.1l.5 1c.1.1.2.1.2 0zM364.7 152.4l.7-.9v-.1l-.3-.2s-.1 0-.1.1l-.4 1.1h.1z"/><path class="st32" d="M366.5 151c-1.4-.1-2.5-1.4-2.4-2.8.1-1.4 1.3-2.4 2.6-2.4h.2c1.4.1 2.5 1.4 2.4 2.8-.1 1.4-1.3 2.4-2.6 2.4h-.2z"/><path class="st4" d="M366.7 146h.2c1.3.1 2.3 1.2 2.2 2.6-.1 1.2-1.1 2.2-2.4 2.2h-.2c-1.3-.1-2.3-1.2-2.2-2.6.2-1.3 1.2-2.2 2.4-2.2m0-.5c-1.5 0-2.7 1.2-2.9 2.6-.1.8.2 1.5.7 2.1.5.6 1.2.9 2 1h.2c1.5 0 2.7-1.2 2.9-2.6.1-1.6-1.1-3-2.6-3.1h-.3z"/></g><g><path class="st32" d="M257.5 114.4l-.5 2.9c0 .1 0 .1.1.1h.9c.1 0 .1 0 .1-.1l-.5-2.9c0-.1-.1-.1-.1 0zM261.4 115.9l-2.4 1.7v.1l.6.6h.1l1.7-2.4c.2.1.1 0 0 0zM263.1 119.8l-2.9-.5c-.1 0-.1 0-.1.1v.9c0 .1 0 .1.1.1l2.9-.5c.1.1.1-.1 0-.1zM261.6 123.8l-1.7-2.4h-.1l-.6.6v.1l2.4 1.7c-.1.1 0 0 0 0zM257.7 125.5l.5-2.9c0-.1 0-.1-.1-.1h-.9c-.1 0-.1 0-.1.1l.5 2.9c-.1.1.1.1.1 0zM253.7 123.9l2.4-1.7v-.1l-.6-.6h-.1l-1.7 2.4c-.2 0-.1.1 0 0zM252 120l2.9.5c.1 0 .1 0 .1-.1v-.9c0-.1 0-.1-.1-.1l-2.9.5c-.1 0-.1.1 0 .1zM253.6 116.1l1.7 2.4h.1l.6-.6v-.1l-2.4-1.7c0-.2-.1-.1 0 0z"/><path class="st32" d="M261.4 115.9l-2.4 1.7v.1l.6.6h.1l1.7-2.4c.2.1.1 0 0 0zM263.1 119.8l-2.9-.5c-.1 0-.1 0-.1.1v.9c0 .1 0 .1.1.1l2.9-.5c.1.1.1-.1 0-.1zM261.6 123.8l-1.7-2.4h-.1l-.6.6v.1l2.4 1.7c-.1.1 0 0 0 0zM257.7 125.5l.5-2.9c0-.1 0-.1-.1-.1h-.9c-.1 0-.1 0-.1.1l.5 2.9c-.1.1.1.1.1 0zM253.7 123.9l2.4-1.7v-.1l-.6-.6h-.1l-1.7 2.4c-.2 0-.1.1 0 0zM252 120l2.9.5c.1 0 .1 0 .1-.1v-.9c0-.1 0-.1-.1-.1l-2.9.5c-.1 0-.1.1 0 .1zM253.6 116.1l1.7 2.4h.1l.6-.6v-.1l-2.4-1.7c0-.2-.1-.1 0 0zM257.5 114.4l-.5 2.9c0 .1 0 .1.1.1h.9c.1 0 .1 0 .1-.1l-.5-2.9c0-.1-.1-.1-.1 0z"/><path class="st33" d="M255.9 115.8l.3 1.1c0 .1.1.1.1.1l.3-.1c.1 0 .1-.1 0-.1l-.6-1c0-.2-.2-.1-.1 0zM259.1 115.7l-.6 1v.1l.3.1s.1 0 .1-.1l.3-1.1h-.1zM261.7 118.2l-1.1.3c-.1 0-.1.1-.1.1l.1.3c0 .1.1.1.1 0l1-.6c.1 0 .1-.1 0-.1zM261.7 121.5l-1-.6h-.1l-.1.3s0 .1.1.1l1.1.3c.1.1.1-.1 0-.1zM259.3 124l-.3-1.1c0-.1-.1-.1-.1-.1l-.3.1c-.1 0-.1.1 0 .1l.6 1c0 .2.1.1.1 0zM256 124.1l.6-1v-.1l-.3-.1s-.1 0-.1.1l-.3 1.1c-.1 0 0 .1.1 0zM253.4 121.6l1.1-.3c.1 0 .1-.1.1-.1l-.1-.3c0-.1-.1-.1-.1 0l-1 .6c-.1 0-.1.1 0 .1zM253.4 118.3l1 .6h.1l.1-.3s0-.1-.1-.1l-1.1-.3s-.1.1 0 .1z"/><circle class="st32" cx="257.5" cy="120" r="2.6"/><path class="st4" d="M257.5 117.7c1.3 0 2.4 1.1 2.4 2.4 0 1.3-1.1 2.4-2.4 2.4-1.3 0-2.4-1.1-2.4-2.4.1-1.4 1.1-2.4 2.4-2.4m0-.5c-1.6 0-2.9 1.3-2.9 2.9 0 1.6 1.3 2.9 2.9 2.9 1.6 0 2.9-1.3 2.9-2.9 0-1.6-1.3-2.9-2.9-2.9z"/><g><path d="M264.7 129l.2-.5 3.3 1.5c.3-.3.7-.4 1.2-.4l-4.9-2.3-.4.8.5.2-.2.5-.5-.2-.1.1c-.5-.1-.8-.4-.9-1.1l.5-.3-3.5-5.8-1 .6 3.4 5.6c-.1 0-.1.1-.2.1s-.1.1-.2.1l-3.4-5.6-1 .6 3.5 5.8.5-.3c.6.4.7.8.6 1.3h-.1v.5h-.5v-.6h-.9l-.2 5.4c.2-.4.5-.7.9-.9l.1-3.7h.5l-.2 3.7c.4.2.7.5.9.9l.2-5.4h-.5c.1-.5 0-.9-.4-1.3h.4c.1-.1.2-.2.2-.3.2.5.5.9 1 1l-.2.4 4.9 2.3c-.3-.4-.5-.8-.4-1.2l-3.1-1.5z"/></g></g><g><path d="M356.3 153.4l-.4.5.3.3-.3.3-.3-.3-.1.1c-.4-.1-.5-.4-.5-1l.4-.1-1.6-4.9-.8.3 1.5 4.7h-.1c-.1 0-.1 0-.1.1l-1.5-4.7-.8.3 1.6 4.9.4-.1c.3.4.4.7.2 1.1h-.1l-.1.4-.4-.1.1-.4-.7-.2-1.1 4c.2-.3.5-.4.8-.5l.7-2.7.4.1-.7 2.7c.3.2.4.5.5.8l1.1-4-.4-.1c.2-.3.1-.7-.1-1.1.1.1.2.1.3.1.1 0 .2-.2.2-.3 0 .5.2.8.5 1l-.2.3 3.2 2.5c-.2-.3-.2-.6-.1-1l-2.2-1.7.3-.3 2.2 1.7c.3-.2.6-.2 1-.1l-3.1-2.6z"/></g><g><path d="M377.6 154.6c-.3-.2-.5-.4-.6-.8l-2.8-.3.1-.4 2.8.3c.2-.3.4-.5.8-.6l-4.1-.5-.1.7h.4l-.1.4h-.4v.1c-.4.1-.7-.1-.9-.6l.3-.3-3.9-3.3-.6.7 3.8 3.2-.1.1-.1.1-3.8-3.2-.6.7 3.9 3.3.3-.3c.5.2.7.4.7.8h-.1l.1.4-.4.1-.1-.4-.7.2 1.1 3.9c.1-.4.2-.6.5-.8l-.8-2.7.4-.1.8 2.7c.3 0 .6.2.8.5l-1.1-3.9-.4.1c0-.4-.2-.7-.6-.8.1 0 .2 0 .3-.1.1-.1.1-.3 0-.4.3.4.6.6 1 .6v.4l4.2.2z"/></g><g><path d="M365.3 164l-.5.5.3.3-.3.3-.3-.3-.1.1c-.3-.2-.4-.5-.3-1.1l.5-.1-.9-5.2-.9.2.9 5H363.4l-.9-5-.9.2.9 5.2.5-.1c.3.5.3.8.1 1.1h-.1l-.2.4-.4-.2.2-.4-.6-.3-1.7 3.9c.3-.2.6-.4.9-.4l1.1-2.6.4.2-1.2 2.6c.2.2.4.6.4.9l1.7-3.9-.4-.2c.2-.3.2-.6.1-1 .1.1.2.1.3.1.1 0 .2-.1.2-.2 0 .4.1.8.4 1l-.3.3 2.9 3.1c-.1-.4-.1-.7 0-1l-2-2.1.3-.3 2 2.1c.3-.1.7-.1 1 0l-2.8-3.1z"/></g><g><path d="M358.1 162.5l.1.4-.4.1-.1-.4h-.1c-.2-.4-.1-.7.3-1.1l.4.2 2.2-4.8-.8-.4-2.2 4.6s-.1 0-.1-.1c-.1 0-.1 0-.1-.1l2.2-4.6-.8-.4-2.2 4.8.4.2c0 .5-.2.8-.6.9v-.1l-.4.2-.2-.4.4-.2-.4-.6-3.6 2.2c.4 0 .7 0 1 .2l2.4-1.5.2.4-2.5 1.5c.1.3 0 .7-.2 1l3.6-2.2-.2-.3c.4-.1.6-.4.7-.8 0 .1.1.2.2.3h.3c-.3.3-.3.7-.2 1l-.4.1.6 4.2c.1-.4.3-.6.6-.8l-.4-2.9.4-.1.4 2.8c.3.1.6.3.8.6l-.6-4.2-.7.3z"/></g><g><path d="M373 164.3l.1.4-.4.1-.1-.4h-.1c-.2-.3-.1-.7.2-1.1l.4.2 1.8-5-.8-.3-1.7 4.8s-.1 0-.1-.1h-.1l1.7-4.8-.8-.3-1.8 5 .4.2c0 .5-.1.9-.5 1l-.1-.1-.3.3-.3-.3.4-.3-.4-.6-3.4 2.5c.4-.1.7 0 1 .1l2.3-1.7.3.3-2.3 1.7c.1.3 0 .7-.1 1l3.4-2.5-.2-.3c.3-.1.5-.4.6-.9 0 .1.1.2.2.2h.3c-.3.4-.3.7-.1 1.1l-.4.1 1 4.1c.1-.4.2-.7.5-.9l-.7-2.8.4-.1.7 2.8c.3.1.6.2.9.5l-1-4.1-.9.2z"/></g><path class="st7" d="M374.4 167.5c-1.5-1.6-4.2-2.3-6.4-2-2.1.3-5.7 2.4-4 5 1.2 1.9 2.5.9 4.2.7 2-.2 4.5 1.9 6.2.1 1.4-1.4 1-2.7 0-3.8zM350.1 167.5c1.5-1.6 4.2-2.3 6.4-2 2.1.3 5.7 2.4 4 5-1.2 1.9-2.5.9-4.2.7-2-.2-4.5 1.9-6.2.1-1.3-1.4-1-2.7 0-3.8z"/><path class="st9" d="M341.6 171.9h40.8"/></g><g><path class="st4" d="M175.2 104v110.4"/><path class="st35" d="M175.2 104v104.3"/><path class="st36" d="M175.2 214.4c-1.1-2.8-2.9-6.4-4.8-8.5l4.8 1.7 4.8-1.7c-1.9 2.1-3.7 5.6-4.8 8.5z"/></g><g><path class="st4" d="M175.2 144.9c0 9.5 0 9.5 42.1 9.5"/><path class="st35" d="M175.2 144.9c0 9.1 0 9.5 36.1 9.5"/><path class="st36" d="M217.4 154.5c-2.8 1-6.4 2.8-8.6 4.7l1.7-4.7-1.7-4.8c2.2 1.9 5.7 3.7 8.6 4.8z"/></g></g><g id="a_-_schematic"><g id="inset_clip_group_1_"><defs><path id="SVGID_6_" d="M17.1 9.7h77.3V87H17.1z"/></defs><clipPath id="SVGID_7_"><use xlink:href="#SVGID_6_" overflow="visible"/></clipPath><g class="st37"><path class="st10" d="M82.4 42.7c.6-1.7.9-3.5.7-5.2-.2-1.4-.9-2.6-.9-4.1 0-1.8 1.1-3.1 2-4.7 1-1.8.9-3.7.1-4.9-.7-1.1-2.4-.2-3.4.8-1.7 1.7-1 4.5-2.4 6.5-1 1.4-2.3 1.7-3.4 2.5-2.5 1.7-4.4 4.9-5 8.3-.4 2.5-.6 5.1-.4 7.4.1 1.5.2 3.4.9 4.4 2.1 3.1 7.8-3.9 9.7-6.7.8-1.3 1.5-2.8 2.1-4.3z"/><path class="st7" d="M76.8 61.7c-3.4 1.3-7.8.4-10.9-1.7-3-2-6.7-7.7-2.2-10.3 3.1-1.9 4.4.5 6.8 2 2.8 1.8 8.1.6 9.2 4.4.9 3-.6 4.8-2.9 5.6z"/></g><path d="M73.2 71.6c-1.2 1-2.6 1.9-4 2.7-2.1 1.4-4.1 3.1-5.8 4.9-1.3 1.4-2.8 3-4.7 2.6-4.6-1.1-2.1-12.6-2.5-16-.2-2-.6-4.1.2-6 1-2.3 3.6-3.7 6.1-3.8h.3c1.4 1.6 3 3 4.7 4 1.6.9 4 1.7 6.3 1.8.2.2.4.5.6.7 1.1 1.8 1.6 4.1.8 6.1-.4 1.4-1.1 2.2-2 3z" clip-path="url(#SVGID_7_)" fill="#abe0f4"/><path d="M182.1 160.1c-12.4-21.1-32.6-39.3-52-50.7-25.6-15-53.5-25.9-82-33.9-29.6-8.3-67.8-19-98.2-6.7-24.3 9.9-42.6 36.4-43.5 62.5-.1 1.5 0 3 0 4.5 1.4 30.3 17.7 53.3 42.1 64.8 5 37.4 33.7 62.1 71.8 64.8 27.7 2 55.4 4.4 83.1 6 32.4 1.8 61.8-8.6 80-36.9 16.3-25 12.1-51.5-1.3-74.4z" clip-path="url(#SVGID_7_)" fill="#fff6ea" stroke="#e9f5f9" stroke-width="5" stroke-miterlimit="10"/><g class="st37"><circle class="st40" cx="97.3" cy="-14.5" r="40.3"/><path d="M97.3 32.6c-25.9 0-47-21.1-47-47.1s21.1-47.1 47-47.1 47 21.1 47 47.1-21 47.1-47 47.1zm0-87.1c-22.1 0-40 18-40 40 0 22.1 17.9 40 40 40s40-18 40-40c0-22.1-17.9-40-40-40z" fill="#fce8de"/><path d="M97.3-61.2c25.7 0 46.6 20.9 46.6 46.7 0 25.7-20.9 46.7-46.6 46.7-25.7 0-46.6-20.9-46.6-46.7 0-25.7 20.9-46.7 46.6-46.7m0 87.2c22.3 0 40.4-18.1 40.4-40.5S119.6-55 97.3-55C75-55 56.9-36.8 56.9-14.5S75 26 97.3 26m0-88c-26.2 0-47.5 21.3-47.5 47.5S71.1 33 97.3 33s47.5-21.3 47.5-47.5S123.5-62 97.3-62zm0 87.1c-21.8 0-39.6-17.8-39.6-39.6s17.8-39.6 39.6-39.6 39.6 17.8 39.6 39.6-17.8 39.6-39.6 39.6z" fill="#f2c9c0"/></g><g opacity=".4" clip-path="url(#SVGID_7_)"><circle cx="99.8" cy="-18.2" fill="none" stroke="#e4ae23" stroke-width=".75" stroke-miterlimit="10" r="38.4"/><path class="st45" d="M134.4-4.9c-.7.1-1.2.5-1.6.9-.4.5-.6 1.1-.5 1.7.1 1.3 1.3 2.4 2.7 2.3 1.4-.1 2.4-1.4 2.3-2.8-.2-1.5-1.5-2.3-2.9-2.1zM132.5 1.1c-1.3-.5-2.6.1-3.2 1.2-.6 1.2-.1 2.7 1.1 3.4 1.2.6 2.9.2 3.4-1.2.6-1.5 0-2.9-1.3-3.4zM127.9 6.2c-1.3-.3-2.6.4-2.9 1.6-.4 1.2.2 2.6 1.5 3.1s2.8-.3 3.2-1.7c.4-1.3-.4-2.6-1.8-3zM106.1 19.8c-.1-1.4-1.2-2.2-2.5-2.2s-2.4 1.1-2.4 2.5c0 1.3 1.2 2.6 2.6 2.4 1.5-.2 2.5-1.4 2.3-2.7zM99.1 18.9c-.7-1.1-2.1-1.6-3.2-.9-1.1.6-1.6 2-1.1 3.2.6 1.3 2.2 1.7 3.4 1 1.3-.7 1.6-2.2.9-3.3zM92.9 19.1c-.1-1.3-1-2.5-2.3-2.5-1.3 0-2.6.9-2.7 2.3-.1 1.4 1 2.6 2.5 2.7 1.4.1 2.5-1.2 2.5-2.5zM86.4 17.7c.2-.6.2-1.3 0-1.8-.2-.6-.6-1-1.2-1.3-1.2-.5-2.7 0-3.3 1.2-.6 1.2 0 2.8 1.3 3.3 1.3.6 2.7-.1 3.2-1.4zM80.7 14.2c.4-1.4-.4-2.6-1.6-3-1.2-.4-2.7.2-3.2 1.5s.3 2.9 1.7 3.3c1.4.4 2.7-.4 3.1-1.8zM75.5 9.7c.2-1.4-.7-2.6-2-2.8-1.3-.2-2.6.6-2.9 2-.3 1.4.7 2.8 2.2 3 1.4.2 2.6-.8 2.7-2.2zM62.6-12c1.3-.6 1.7-1.9 1.3-3.1-.5-1.2-1.9-1.9-3.2-1.5-1.3.4-2.1 2-1.5 3.3.7 1.4 2.2 1.9 3.4 1.3zM63-19c1.1-.9 1.3-2.3.5-3.4-.7-1.1-2.2-1.4-3.4-.7-1.2.8-1.4 2.4-.6 3.6.9 1.3 2.5 1.4 3.5.5zM62.6-25.1c1.3-.1 2.5-1 2.5-2.3 0-1.3-.9-2.5-2.3-2.7-1.3-.1-2.5 1-2.6 2.5-.2 1.4 1 2.5 2.4 2.5zM64.3-31.5c.6.1 1.3 0 1.7-.3.5-.3.9-.8 1.1-1.4.3-1.2-.4-2.6-1.7-3-1.3-.4-2.7.5-3 1.8-.3 1.4.6 2.6 1.9 2.9zM66.6-37.7c1.1.8 2.5.5 3.3-.5.8-1 .7-2.6-.4-3.4-1-.8-2.7-.7-3.6.5-.7 1.1-.4 2.6.7 3.4zM72.5-42.5c1.4-.2 2.2-1.3 2.1-2.5-.1-1.2-1.2-2.3-2.5-2.3-1.4 0-2.5 1.3-2.3 2.7.2 1.4 1.4 2.3 2.7 2.1zM93.4-55.8c.3 1.4 1.5 2.1 2.8 1.9 1.3-.2 2.3-1.4 2.1-2.8-.2-1.3-1.5-2.5-3-2.1-1.4.3-2.2 1.6-1.9 3zM100.3-55.5c.6 1.3 1.9 1.9 3.1 1.4 1.2-.5 2-1.8 1.5-3.2-.4-1.4-2-2-3.4-1.5-1.3.6-1.8 2-1.2 3.3zM107.2-54c.8 1 2.2 1.4 3.3.6 1.1-.8 1.5-2.2.8-3.4-.7-1.2-2.3-1.4-3.5-.7-1.3.8-1.4 2.5-.6 3.5zM113.2-54c-.2.6-.2 1.3.1 1.8.2.5.6 1 1.2 1.2 1.2.5 2.6-.1 3.2-1.3.5-1.2-.1-2.7-1.4-3.3-1.4-.4-2.7.4-3.1 1.6zM119.2-51.1c-.6 1.2-.2 2.5.9 3.2 1.1.6 2.6.4 3.3-.8.7-1.1.4-2.8-.9-3.4-1.3-.7-2.7-.2-3.3 1zM124.2-46.5c-.5 1.3.1 2.6 1.3 3.1 1.1.5 2.6 0 3.2-1.2.6-1.2 0-2.8-1.4-3.3-1.3-.6-2.6.1-3.1 1.4zM128.8-41.9c-.7 1.2-.4 2.6.8 3.2 1.1.7 2.5.5 3.3-.7.8-1.1.4-2.7-.8-3.4-1.2-.7-2.6-.2-3.3.9zM132.7-36.8c-1 .9-1.3 2.4-.5 3.4.9 1 2.3 1.4 3.5.6 1.2-.8 1.3-2.5.5-3.6-.8-1.3-2.5-1.3-3.5-.4z"/></g></g><path class="st21" d="M10.4 166.6c.4.6.9 1.1 1.4 1.7.8.9 1.4 1.8 1.9 2.9.4.7.9 1.7 1.7 1.7 2.1.1 2.5-5.2 3-6.6.3-.8.8-1.7.6-2.6-.1-1.1-1.1-2-2.2-2.4h-.1c-.8.5-1.7.9-2.5 1.1-.8.2-1.9.2-2.9 0l-.3.3c-.7.6-1.2 1.6-1.1 2.5 0 .5.2.9.5 1.4zM72.1 176.8c-.5.5-1.2.8-1.8 1.2-1 .6-1.8 1.4-2.6 2.2-.6.6-1.3 1.4-2.1 1.2-2.1-.5-.9-5.7-1.1-7.2-.1-.9-.3-1.8.1-2.7.4-1.1 1.6-1.7 2.8-1.7h.1c.6.7 1.3 1.3 2.1 1.8.7.4 1.8.7 2.8.8.1.1.2.2.2.3.5.8.7 1.9.4 2.8-.2.6-.6 1-.9 1.3zM41.7 168.9c-.5.5-1.1.9-1.7 1.3-.9.7-1.8 1.5-2.5 2.4-.5.6-1.2 1.4-2 1.3-2.1-.4-1.2-5.6-1.5-7.1-.1-.9-.4-1.8 0-2.7.4-1.1 1.5-1.7 2.7-1.8h.1c.6.7 1.4 1.3 2.2 1.7.7.4 1.8.7 2.9.7l.3.3c.5.8.8 1.8.5 2.7-.3.4-.6.9-1 1.2zM95 190.5c.1.7.4 1.4.6 2.1.4 1.1.6 2.2.7 3.4.1.8.2 1.8.9 2.2 1.9.9 4.2-3.9 5.3-5 .6-.6 1.3-1.3 1.6-2.2.3-1.1-.3-2.3-1.1-3 0 0-.1 0-.1-.1-.9.2-1.9.2-2.8.1-.8-.1-1.9-.5-2.7-1.1-.1 0-.3.1-.4.1-.9.3-1.7 1-2 1.9-.1.6-.1 1.1 0 1.6z"/><path class="st46" d="M94.4 84.9v2.3h-2.2"/><path class="st47" d="M87.9 87.2H21.4"/><path class="st46" d="M19.2 87.2H17v-2.3"/><path class="st47" d="M17 80.6V14.1"/><path class="st46" d="M17 12V9.7h2.2"/><path class="st47" d="M23.5 9.7H90"/><path class="st46" d="M92.2 9.7h2.2V12"/><path class="st47" d="M94.4 16.2v66.6"/><text transform="translate(5.22 197.153)"><tspan x="0" y="0" class="st0 st1">Target</tspan><tspan x="0" y="4.8" class="st0 st1">host cell</tspan></text><text transform="translate(40.564 33.247)"><tspan x="0" y="0" class="st0 st1">spike</tspan><tspan x="-3.7" y="8" class="st0 st1">protein</tspan></text><text transform="rotate(21.261 -117.025 193.933)" class="st0 st1">RBD</text><text transform="rotate(16.645 -191.053 221.396)" class="st0 st1">ACE2</text><text transform="translate(18.523 83.272)" class="st0 st1">Target cell</text><path class="st10" d="M76.1 163.6c.3-.8.4-1.6.3-2.3-.1-.6-.4-1.2-.4-1.8 0-.8.5-1.4.9-2.1.5-.8.4-1.7 0-2.2-.3-.5-1.1-.1-1.5.4-.8.8-.5 2-1.1 2.9-.4.6-1 .8-1.5 1.1-1.1.8-2 2.2-2.2 3.7-.2 1.1-.3 2.3-.2 3.3 0 .7.1 1.5.4 2 1 1.4 3.5-1.8 4.4-3 .3-.7.7-1.3.9-2z"/><path class="st7" d="M73.6 172.1c-1.5.6-3.5.2-4.9-.8-1.3-.9-3-3.4-1-4.6 1.4-.9 2 .2 3.1.9 1.2.8 3.6.2 4.1 2 .4 1.4-.3 2.1-1.3 2.5z"/><path class="st10" d="M59.8 151.5c.7-.4 1.3-1 1.7-1.6.3-.6.4-1.1.9-1.7.5-.6 1.3-.8 2-1.1.9-.3 1.4-1 1.4-1.7.1-.6-.8-.8-1.4-.7-1.1.1-1.6 1.2-2.7 1.5-.7.2-1.3-.1-1.9-.1-1.3-.1-2.9.4-4.1 1.4-.9.8-1.7 1.6-2.3 2.4-.4.6-.9 1.2-.9 1.8-.2 1.7 3.8.9 5.3.5.7 0 1.3-.3 2-.7z"/><path class="st7" d="M52.4 156.5c-1.6-.5-2.8-2.1-3.3-3.7-.4-1.5-.1-4.6 2.2-4.2 1.6.2 1.4 1.4 1.8 2.6.4 1.4 2.6 2.5 1.9 4.2-.5 1.3-1.6 1.5-2.6 1.1z"/><path class="st10" d="M58.2 124.5c.7.4 1.5.6 2.3.6.7 0 1.2-.2 1.9-.2.8.1 1.3.7 2 1.2.7.6 1.6.6 2.2.3.5-.3.2-1.1-.2-1.6-.7-.9-1.9-.7-2.7-1.5-.6-.5-.6-1.1-.9-1.7-.6-1.2-1.9-2.3-3.4-2.7-1.1-.3-2.2-.6-3.3-.6-.7 0-1.5-.1-2 .1-1.5.8 1.3 3.7 2.4 4.7.5.7 1.1 1.1 1.7 1.4z"/><path class="st7" d="M50.1 120.9c-.4-1.6.3-3.5 1.4-4.8 1.1-1.2 3.8-2.5 4.7-.4.7 1.5-.5 1.9-1.3 2.9-1 1.1-.7 3.6-2.5 3.8-1.4.4-2-.4-2.3-1.5z"/><path class="st10" d="M106.8 152.4c-.7-.5-1.2-1.1-1.6-1.7-.3-.6-.3-1.2-.7-1.7-.5-.7-1.2-.9-1.9-1.2-.8-.4-1.3-1.1-1.3-1.8 0-.6.8-.7 1.5-.6 1.1.2 1.5 1.4 2.6 1.7.7.3 1.3 0 1.9 0 1.3 0 2.9.6 4 1.7.8.8 1.5 1.7 2.1 2.6.4.6.8 1.3.8 1.9 0 1.7-3.9.6-5.3.1-.9-.2-1.5-.6-2.1-1z"/><path class="st7" d="M113.7 157.9c1.6-.4 3-1.9 3.6-3.5.6-1.5.5-4.5-1.9-4.4-1.6.1-1.5 1.3-2 2.5-.6 1.4-2.8 2.3-2.2 4 .5 1.5 1.5 1.7 2.5 1.4z"/><path class="st10" d="M92 164.4c-.2-.8-.3-1.6-.2-2.4.1-.6.4-1.1.5-1.8 0-.8-.4-1.4-.8-2.1-.4-.8-.3-1.7 0-2.2.3-.5 1.1-.1 1.5.4.7.8.4 2 1 2.9.4.6 1 .8 1.5 1.2 1.1.8 1.9 2.3 2.1 3.8.2 1.1.2 2.3.1 3.3-.1.7-.1 1.5-.5 2-1 1.4-3.5-1.9-4.2-3.2-.5-.6-.8-1.2-1-1.9z"/><path class="st7" d="M94.1 173c1.5.6 3.5.3 4.9-.6 1.4-.9 3.1-3.3 1.2-4.6-1.4-.9-2 .1-3.1.8-1.3.8-3.6.1-4.2 1.8-.4 1.4.2 2.2 1.2 2.6z"/><path class="st10" d="M108.5 123.2c-.7.4-1.4.8-2.2.8-.6.1-1.2-.1-1.9 0-.8.2-1.3.8-1.8 1.4-.7.6-1.5.8-2.1.6-.5-.2-.3-1 0-1.6.6-.9 1.8-.9 2.6-1.7.5-.6.5-1.2.7-1.8.5-1.3 1.7-2.4 3.1-3.1 1.1-.5 2.1-.8 3.2-1 .7-.1 1.5-.3 2-.1 1.6.6-.9 3.8-1.9 4.9-.6.7-1.1 1.2-1.7 1.6z"/><path class="st7" d="M116.2 118.8c.2-1.6-.6-3.5-1.9-4.6-1.2-1.1-4-2.1-4.7.1-.5 1.6.7 1.9 1.6 2.8 1.1 1 1.1 3.5 2.9 3.6 1.3 0 1.9-.8 2.1-1.9z"/><path class="st10" d="M79.9 108.2c0 .8.2 1.6.6 2.3.3.6.8.9 1.1 1.5.3.8.1 1.5 0 2.3-.1.9.3 1.7.8 2.1.5.3 1-.3 1.3-.9.4-1-.3-2-.1-3.1.2-.7.7-1.1 1-1.6.7-1.1 1-2.8.7-4.3-.3-1.1-.6-2.2-1.1-3.2-.3-.6-.7-1.4-1.1-1.7-1.4-.9-2.6 3-2.9 4.4-.3.8-.4 1.5-.3 2.2z"/><path class="st7" d="M79 99.4c1.2-1.1 3.2-1.5 4.8-1.2 1.6.3 4.1 2 2.7 3.9-1 1.3-1.9.6-3.2.3-1.5-.3-3.5 1.1-4.6-.3-.9-1-.5-1.9.3-2.7z"/><path class="st8" d="M88.3 160.1c-.1-.5-.3-1.1-.6-1.5-.3-.4-.6-.6-.8-1-.3-.5-.1-1-.1-1.5 0-.6-.3-1.1-.7-1.3-.3-.2-.7.3-.8.7-.2.7.3 1.3.3 2.1-.1.5-.4.8-.6 1.2-.4.8-.5 1.9-.2 2.9.2.7.5 1.4.9 2.1.2.4.5.9.9 1.1 1 .5 1.6-2.2 1.7-3.2.1-.6.1-1.1 0-1.6z"/><path class="st6" d="M89.5 166c-.7.8-2 1.2-3.2 1.1-1.1-.1-2.9-1.1-2-2.5.6-.9 1.2-.5 2.1-.4 1 .1 2.2-1 3.1-.1.7.6.5 1.3 0 1.9z"/><path class="st8" d="M67.6 154.4c.4-.4.7-.9.8-1.4.1-.4.1-.8.2-1.2.2-.5.7-.7 1.1-1.1.5-.4.7-.9.6-1.4-.1-.4-.6-.3-1-.2-.7.3-.8 1.1-1.5 1.5-.4.3-.8.2-1.3.3-.9.2-1.8.8-2.4 1.7-.4.6-.8 1.3-1 2-.2.4-.4 1-.3 1.3.2 1.1 2.7-.1 3.5-.7.5-.1.9-.4 1.3-.8z"/><path class="st6" d="M63.7 159c-1.1-.1-2.2-.8-2.8-1.8-.6-.9-.9-2.9.6-3.1 1.1-.1 1.2.7 1.6 1.4.6.8 2.2 1.1 2 2.4 0 .8-.7 1.1-1.4 1.1z"/><path class="st8" d="M60 136.9c.6 0 1.1-.1 1.6-.4.4-.2.6-.5 1.1-.7.5-.2 1 0 1.5.1.6.1 1.2-.1 1.4-.5.2-.3-.2-.7-.6-.9-.7-.3-1.4.2-2.1 0-.5-.1-.7-.5-1.1-.7-.7-.5-1.9-.8-2.9-.6-.8.1-1.5.4-2.2.6-.4.2-.9.4-1.2.7-.7.9 1.9 1.8 2.9 2.1.7.3 1.1.3 1.6.3z"/><path class="st6" d="M54.1 137.3c-.7-.8-.9-2.2-.6-3.3.3-1 1.5-2.7 2.7-1.7.9.7.3 1.3.1 2.1-.2 1 .7 2.4-.3 3.1-.8.6-1.5.4-1.9-.2z"/><path class="st8" d="M107.8 139.1c-.5-.1-1.1-.2-1.5-.5-.4-.2-.6-.6-1-.8-.5-.3-1-.1-1.5-.1-.6 0-1.1-.3-1.3-.7-.2-.3.3-.7.7-.8.7-.2 1.3.3 2.1.2.5-.1.8-.4 1.1-.6.8-.4 1.9-.5 2.9-.2.7.2 1.4.5 2.1.9.4.2.9.5 1.1.9.5 1-2.1 1.6-3.1 1.7-.6 0-1.1.1-1.6 0z"/><path class="st6" d="M113.7 140.2c.8-.8 1.2-2.1 1-3.2-.1-1.1-1.1-2.9-2.5-2-.9.6-.5 1.3-.4 2.1.1 1-1 2.3-.1 3.1.8.7 1.4.5 2 0z"/><path class="st8" d="M99.3 156c-.3-.4-.6-.9-.7-1.4-.1-.4 0-.8-.1-1.3-.2-.5-.6-.8-1-1.2-.5-.4-.6-1-.5-1.4.1-.4.7-.3 1.1-.1.6.3.7 1.2 1.3 1.6.4.3.8.3 1.2.4.9.3 1.7 1 2.2 1.9.4.7.7 1.4.8 2.1.1.4.3 1 .2 1.4-.3 1.1-2.6-.4-3.4-1-.4-.2-.8-.6-1.1-1z"/><path class="st6" d="M102.7 161c1.1 0 2.3-.6 3-1.5.7-.9 1.2-2.8-.4-3.2-1.1-.2-1.2.6-1.8 1.2-.6.8-2.3.9-2.2 2.2.1.9.7 1.2 1.4 1.3z"/><path class="st8" d="M97 116.4c-.3.5-.6.9-1.1 1.2-.4.2-.8.3-1.1.6-.4.4-.5.9-.7 1.4-.2.6-.7.9-1.1 1-.4.1-.5-.5-.5-.9.1-.7.8-1.1 1-1.8.1-.5-.1-.9-.1-1.3-.1-.9.2-2 .9-2.8.5-.6 1-1.1 1.6-1.6.4-.3.8-.6 1.2-.7 1.1-.1.7 2.6.4 3.6-.1.4-.3.9-.5 1.3z"/><path class="st6" d="M100.2 111.4c-.4-1-1.5-1.9-2.6-2.1-1.1-.3-3.1 0-2.8 1.6.2 1.1 1 .9 1.8 1.1 1 .3 1.7 1.7 2.9 1.2.9-.4 1-1.1.7-1.8z"/><path class="st8" d="M70.4 116.6c.3.5.6.9 1.1 1.2.4.2.8.3 1.1.6.4.4.5.9.7 1.4.2.6.7.9 1.1 1 .4 0 .5-.5.5-.9-.1-.7-.8-1.1-1-1.8-.1-.5.1-.9.1-1.3.1-.9-.3-2-.9-2.8-.5-.6-1.1-1.1-1.6-1.6-.4-.3-.8-.6-1.2-.6-1.1-.1-.6 2.6-.3 3.6 0 .3.2.7.4 1.2z"/><path class="st6" d="M67.1 111.6c.4-1 1.4-1.9 2.5-2.2 1-.3 3.1-.1 2.8 1.5-.2 1.1-1 .9-1.8 1.2-1 .3-1.7 1.8-2.8 1.3-.8-.4-.9-1.1-.7-1.8z"/><circle transform="rotate(-45.001 83.396 136.692)" class="st40" cx="83.4" cy="136.7" r="18.1"/><path class="st48" d="M83.4 158c-11.7 0-21.3-9.6-21.3-21.3s9.6-21.3 21.3-21.3 21.3 9.6 21.3 21.3S95.1 158 83.4 158zm0-39.1c-9.8 0-17.8 8-17.8 17.8s8 17.8 17.8 17.8 17.8-8 17.8-17.8-8-17.8-17.8-17.8z"/><path class="st49" d="M83.4 115.8c11.5 0 20.9 9.4 20.9 20.9s-9.4 20.9-20.9 20.9c-11.5 0-20.9-9.4-20.9-20.9s9.4-20.9 20.9-20.9m0 39c10 0 18.1-8.1 18.1-18.1 0-10-8.1-18.1-18.1-18.1-10 0-18.1 8.1-18.1 18.1 0 10 8.1 18.1 18.1 18.1m0-39.8c-11.9 0-21.7 9.7-21.7 21.7 0 11.9 9.7 21.7 21.7 21.7 11.9 0 21.7-9.7 21.7-21.7S95.3 115 83.4 115zm0 39.1c-9.6 0-17.4-7.8-17.4-17.4 0-9.6 7.8-17.4 17.4-17.4 9.6 0 17.4 7.8 17.4 17.4 0 9.6-7.8 17.4-17.4 17.4z"/><path class="st4" d="M72.3 28.1L57.1 53.7"/><path class="st50" d="M72.2 28.3l-.6 1"/><path fill="none" stroke="#000" stroke-width=".563" stroke-miterlimit="10" stroke-dasharray="2.4476,2.4476" d="M70.3 31.4l-11.8 20"/><path class="st50" d="M57.9 52.5l-.6.9"/><path transform="rotate(-59.33 72.17 28.349)" d="M71.9 26.5h.6v3.7h-.6z"/><path transform="rotate(-59.33 57.285 53.442)" d="M57 51.6h.6v3.7H57z"/><text transform="translate(71.96 134.847)"><tspan x="0" y="0" class="st0 st1">SARS-</tspan><tspan x="0" y="9" class="st0 st1">CoV-2</tspan></text><path class="st52" d="M91.2 120c-.1.3-.4.4-.7.3l-.3-.1c-.3-.1-.4-.4-.3-.7l.8-1.8c.1-.3.4-.4.7-.3l.3.1c.3.1.4.4.3.7l-.8 1.8z"/><path class="st53" d="M91.2 120c-.1.3-.4.4-.7.3l-.3-.1c-.3-.1-.4-.4-.3-.7l.8-1.8c.1-.3.4-.4.7-.3l.3.1c.3.1.4.4.3.7l-.8 1.8z"/><path class="st52" d="M100.7 130.5c-.3.1-.5 0-.6-.3l-.1-.3c-.1-.3 0-.5.3-.6l1.8-.7c.3-.1.5 0 .6.3l.1.3c.1.3 0 .5-.3.6l-1.8.7z"/><path class="st53" d="M100.7 130.5c-.3.1-.5 0-.6-.3l-.1-.3c-.1-.3 0-.5.3-.6l1.8-.7c.3-.1.5 0 .6.3l.1.3c.1.3 0 .5-.3.6l-1.8.7z"/><path class="st52" d="M100.1 144.5c-.3-.1-.4-.4-.3-.7l.1-.3c.1-.3.4-.4.7-.3l1.8.8c.3.1.4.4.3.7l-.1.3c-.1.3-.4.4-.7.3l-1.8-.8z"/><path class="st53" d="M100.1 144.5c-.3-.1-.4-.4-.3-.7l.1-.3c.1-.3.4-.4.7-.3l1.8.8c.3.1.4.4.3.7l-.1.3c-.1.3-.4.4-.7.3l-1.8-.8z"/><path class="st52" d="M89.6 154c-.1-.3 0-.5.3-.6l.3-.1c.3-.1.5 0 .6.3l.7 1.8c.1.3 0 .5-.3.6l-.3.1c-.3.1-.5 0-.6-.3l-.7-1.8z"/><path class="st53" d="M89.6 154c-.1-.3 0-.5.3-.6l.3-.1c.3-.1.5 0 .6.3l.7 1.8c.1.3 0 .5-.3.6l-.3.1c-.3.1-.5 0-.6-.3l-.7-1.8z"/><path class="st52" d="M75.6 153.4c.1-.3.4-.4.7-.3l.3.1c.3.1.4.4.3.7l-.8 1.8c-.1.3-.4.4-.7.3l-.3-.1c-.3-.1-.4-.4-.3-.7l.8-1.8z"/><path class="st53" d="M75.6 153.4c.1-.3.4-.4.7-.3l.3.1c.3.1.4.4.3.7l-.8 1.8c-.1.3-.4.4-.7.3l-.3-.1c-.3-.1-.4-.4-.3-.7l.8-1.8z"/><path class="st52" d="M66.1 142.9c.3-.1.5 0 .6.3l.1.3c.1.3 0 .5-.3.6l-1.8.7c-.3.1-.5 0-.6-.3l-.1-.3c-.1-.3 0-.5.3-.6l1.8-.7z"/><path class="st53" d="M66.1 142.9c.3-.1.5 0 .6.3l.1.3c.1.3 0 .5-.3.6l-1.8.7c-.3.1-.5 0-.6-.3l-.1-.3c-.1-.3 0-.5.3-.6l1.8-.7z"/><path class="st52" d="M66.7 128.9c.3.1.4.4.3.7l-.1.3c-.1.3-.4.4-.7.3l-1.8-.8c-.3-.1-.4-.4-.3-.7l.1-.3c.1-.3.4-.4.7-.3l1.8.8z"/><path class="st53" d="M66.7 128.9c.3.1.4.4.3.7l-.1.3c-.1.3-.4.4-.7.3l-1.8-.8c-.3-.1-.4-.4-.3-.7l.1-.3c.1-.3.4-.4.7-.3l1.8.8z"/><path class="st52" d="M77.2 119.4c.1.3 0 .5-.3.6l-.3.1c-.3.1-.5 0-.6-.3l-.7-1.8c-.1-.3 0-.5.3-.6l.3-.1c.3-.1.5 0 .6.3l.7 1.8z"/><path class="st53" d="M77.2 119.4c.1.3 0 .5-.3.6l-.3.1c-.3.1-.5 0-.6-.3l-.7-1.8c-.1-.3 0-.5.3-.6l.3-.1c.3-.1.5 0 .6.3l.7 1.8z"/><path class="st52" d="M92.8 120.8c-.1.2-.4.3-.7.2l-.3-.1c-.2-.1-.3-.4-.2-.7l.9-1.7c.1-.2.4-.3.7-.2l.3.1c.2.1.3.4.2.7l-.9 1.7z"/><path class="st53" d="M92.8 120.8c-.1.2-.4.3-.7.2l-.3-.1c-.2-.1-.3-.4-.2-.7l.9-1.7c.1-.2.4-.3.7-.2l.3.1c.2.1.3.4.2.7l-.9 1.7z"/><path class="st52" d="M101.2 132.1c-.3.1-.5-.1-.6-.3l-.1-.3c-.1-.3.1-.5.3-.6l1.9-.6c.3-.1.5.1.6.3l.1.3c.1.3-.1.5-.3.6l-1.9.6z"/><path class="st53" d="M101.2 132.1c-.3.1-.5-.1-.6-.3l-.1-.3c-.1-.3.1-.5.3-.6l1.9-.6c.3-.1.5.1.6.3l.1.3c.1.3-.1.5-.3.6l-1.9.6z"/><path class="st52" d="M99.3 146.1c-.2-.1-.3-.4-.2-.7l.1-.3c.1-.2.4-.3.7-.2l1.7.9c.2.1.3.4.2.7l-.1.3c-.1.2-.4.3-.7.2l-1.7-.9z"/><path class="st53" d="M99.3 146.1c-.2-.1-.3-.4-.2-.7l.1-.3c.1-.2.4-.3.7-.2l1.7.9c.2.1.3.4.2.7l-.1.3c-.1.2-.4.3-.7.2l-1.7-.9z"/><path class="st52" d="M88 154.5c-.1-.3.1-.5.3-.6l.3-.1c.3-.1.5.1.6.3l.6 1.9c.1.3-.1.5-.3.6l-.3.1c-.3.1-.5-.1-.6-.3l-.6-1.9z"/><path class="st53" d="M88 154.5c-.1-.3.1-.5.3-.6l.3-.1c.3-.1.5.1.6.3l.6 1.9c.1.3-.1.5-.3.6l-.3.1c-.3.1-.5-.1-.6-.3l-.6-1.9z"/><path class="st52" d="M74 152.5c.1-.2.4-.3.7-.2l.3.1c.2.1.3.4.2.7l-.9 1.7c-.1.2-.4.3-.7.2l-.3-.1c-.2-.1-.3-.4-.2-.7l.9-1.7z"/><path class="st53" d="M74 152.5c.1-.2.4-.3.7-.2l.3.1c.2.1.3.4.2.7l-.9 1.7c-.1.2-.4.3-.7.2l-.3-.1c-.2-.1-.3-.4-.2-.7l.9-1.7z"/><path class="st52" d="M65.6 141.3c.3-.1.5.1.6.3l.1.3c.1.3-.1.5-.3.6l-1.9.6c-.3.1-.5-.1-.6-.3l-.1-.3c-.1-.3.1-.5.3-.6l1.9-.6z"/><path class="st53" d="M65.6 141.3c.3-.1.5.1.6.3l.1.3c.1.3-.1.5-.3.6l-1.9.6c-.3.1-.5-.1-.6-.3l-.1-.3c-.1-.3.1-.5.3-.6l1.9-.6z"/><path class="st52" d="M67.5 127.3c.2.1.3.4.2.7l-.1.3c-.1.2-.4.3-.7.2l-1.7-.9c-.2-.1-.3-.4-.2-.7l.1-.3c.1-.2.4-.3.7-.2l1.7.9z"/><path class="st53" d="M67.5 127.3c.2.1.3.4.2.7l-.1.3c-.1.2-.4.3-.7.2l-1.7-.9c-.2-.1-.3-.4-.2-.7l.1-.3c.1-.2.4-.3.7-.2l1.7.9z"/><path class="st52" d="M78.8 118.9c.1.3-.1.5-.3.6l-.3.1c-.3.1-.5-.1-.6-.3l-.6-1.9c-.1-.3.1-.5.3-.6l.3-.1c.3-.1.5.1.6.3l.6 1.9z"/><path class="st53" d="M78.8 118.9c.1.3-.1.5-.3.6l-.3.1c-.3.1-.5-.1-.6-.3l-.6-1.9c-.1-.3.1-.5.3-.6l.3-.1c.3-.1.5.1.6.3l.6 1.9z"/><path class="st54" d="M97.9 143.3c-.2.5-.4.9-.7 1.4M96.5 145.7l-.9 1.2"/><path class="st55" d="M97 144.7c-.5-.2-1.1 0-1.3.5-.2.5-.1 1.1.4 1.4.5.3 1.2.1 1.4-.5.3-.6 0-1.2-.5-1.4z"/><path class="st54" d="M94.8 147.8c-.4.4-.8.7-1.1 1M84.9 152.5l-1.5.1M82.2 152.6c-.5 0-1-.1-1.5-.2"/><path class="st55" d="M83.1 152.1c-.3-.5-.9-.6-1.3-.4-.5.2-.7.8-.4 1.3.2.5.9.7 1.4.4.5-.3.6-.9.3-1.3z"/><path class="st54" d="M79.4 152.1l-.7-.2-.7-.3"/><path class="st55" d="M80.5 152.1c0-.5-.4-1-1-1s-1.1.4-1.1 1c-.1.6.4 1.1 1 1.1.7 0 1.2-.5 1.1-1.1z"/><path class="st54" d="M76.8 151.2c-.5-.2-.9-.4-1.4-.7"/><path class="st55" d="M77.8 151.6c.1-.3.1-.5 0-.7-.1-.2-.3-.4-.5-.5-.5-.2-1.1 0-1.4.5-.2.5 0 1.1.5 1.4.7.1 1.2-.2 1.4-.7z"/><path class="st54" d="M74.4 149.8l-1.2-.9"/><path class="st55" d="M75.5 150.1c.1-.6-.2-1.1-.7-1.3-.5-.2-1.1.1-1.3.6-.2.5.1 1.2.7 1.4.6.2 1.1-.1 1.3-.7z"/><path class="st54" d="M67.5 138.2v-1.5M67.5 135.5c0-.5.1-1 .2-1.5"/><path class="st55" d="M68.1 136.4c.5-.4.6-1 .2-1.4-.3-.4-.9-.6-1.4-.3-.5.3-.6 1-.2 1.5.4.5 1 .5 1.4.2z"/><path class="st54" d="M68 132.7l.2-.7.2-.8"/><path class="st55" d="M67.9 133.8c.5 0 1-.4 1-.9s-.4-1-1-1.1c-.6-.1-1.1.4-1.1 1 .1.6.6 1 1.1 1z"/><path class="st54" d="M68.9 130.1c.2-.5.4-.9.7-1.4"/><path class="st55" d="M68.7 131.1c.3.1.5 0 .7-.1.2-.1.4-.3.4-.6.1-.5-.2-1.1-.7-1.2-.5-.2-1.1.2-1.3.7 0 .6.3 1.1.9 1.2z"/><path class="st54" d="M70.3 127.7l.9-1.2"/><path class="st55" d="M69.6 128.6c.5.3 1 .2 1.4-.2.3-.4.3-1.1-.2-1.4-.4-.3-1.1-.3-1.5.2-.3.4-.1 1.1.3 1.4z"/><path class="st54" d="M81.9 120.8h1.5M84.6 120.8c.5 0 1 .1 1.5.2"/><path class="st55" d="M83.6 121.2c.2.5.8.8 1.3.6.5-.2.8-.8.6-1.3-.2-.6-.8-.8-1.4-.6-.5.2-.7.8-.5 1.3z"/><path class="st54" d="M87.4 121.3l.7.2.7.2"/><path class="st55" d="M86.5 121.8c.3.4.9.6 1.4.3.4-.3.6-.9.3-1.4-.3-.5-1-.6-1.5-.3s-.6 1-.2 1.4z"/><path class="st54" d="M90 122.2c.5.2.9.4 1.4.7"/><path class="st55" d="M89 121.8c-.1.3-.1.5 0 .7.1.2.3.4.5.5.5.2 1.1 0 1.3-.5.2-.5-.1-1.1-.6-1.4-.5-.1-1.1.2-1.2.7z"/><path class="st54" d="M92.4 123.6l1.2.9"/><path class="st55" d="M91.4 123c-.3.5-.1 1 .4 1.3.4.3 1.1.1 1.4-.3.3-.5.2-1.2-.4-1.4-.5-.3-1.1-.1-1.4.4z"/><path class="st54" d="M94.6 125.3c.4.4.7.8 1 1.1"/><path class="st55" d="M93.5 124.9c-.2.5.1 1.1.5 1.3.5.2 1.1 0 1.3-.5.2-.5 0-1.2-.6-1.4-.4-.2-1 .1-1.2.6z"/><path class="st54" d="M96.4 127.4c.3.4.6.9.8 1.3"/><path class="st55" d="M95.4 126.9c-.3.5-.1 1.1.3 1.3.4.3 1 .2 1.4-.3.3-.5.2-1.1-.3-1.4-.5-.3-1.1-.1-1.4.4z"/><path class="st54" d="M97.8 129.8l.3.7.3.7"/><text transform="translate(69.43 17.432)"><tspan x="0" y="0" class="st0 st1">SARS-</tspan><tspan x="0" y="8" class="st0 st1">CoV-2</tspan></text><g><path class="st56" d="M71.8 125.4c.2-.2.7 0 .9-.2.2-.2 0-.7.2-.9.2-.2.7.1.9-.1.2-.1.1-.7.3-.8.2-.1.7.1.9 0 .2-.1.2-.7.4-.8.2-.1.7.2.9.1.2-.1.2-.7.4-.8.2-.1.6.3.9.2.2-.1.3-.6.5-.7.2-.1.6.3.9.3.2-.1.3-.6.6-.7.2-.1.6.4.8.3.2 0 .4-.6.6-.6.2 0 .5.4.8.4"/></g><g><path class="st56" d="M72.5 148.7c-.2-.2 0-.7-.2-.9-.2-.2-.7 0-.9-.2-.2-.2 0-.7-.1-.9-.2-.2-.7-.1-.9-.3-.2-.2.1-.7 0-.9-.1-.2-.7-.2-.8-.4-.1-.2.2-.7.1-.9-.1-.2-.7-.2-.8-.5-.1-.2.2-.7.1-.9-.1-.2-.7-.3-.7-.5-.1-.2.3-.6.2-.9-.1-.2-.6-.4-.7-.6-.1-.3.4-.6.3-.9-.1-.3-.6-.4-.6-.7 0-.3.4-.6.4-.8"/></g><g><path class="st56" d="M94.9 148c-.2.2-.7 0-.9.2-.2.2 0 .7-.2.9-.2.2-.7-.1-.9.1-.2.1-.1.7-.3.8-.2.1-.7-.1-.9 0-.2.1-.2.7-.4.8-.2.1-.7-.2-.9-.1-.2.1-.2.7-.4.8-.2.1-.6-.3-.9-.2-.2.1-.3.6-.5.7-.2.1-.6-.3-.9-.3-.2.1-.3.6-.6.7-.2.1-.6-.4-.8-.3-.2 0-.4.6-.6.6-.2 0-.5-.4-.8-.4"/></g><g><path class="st56" d="M97.4 128.6c.1.2-.2.7-.1.9.1.2.7.2.8.5.1.2-.3.7-.2.9.1.2.7.3.7.5.1.2-.3.6-.2.9.1.2.6.4.7.6.1.2-.4.6-.3.8 0 .2.6.4.6.7 0 .2-.4.6-.4.8 0 .3.5.5.6.7 0 .3-.5.5-.5.8 0 .2.5.4.5.6 0 .2-.5.4-.5.6 0 .2.5.5.4.7 0 .2-.5.3-.6.5 0 .2.4.5.4.7 0 .2-.6.3-.6.5s.4.5.3.7c-.1.2-.6.3-.7.4-.1.2.3.6.3.7-.1.2-.6.2-.7.4-.1.2.3.6.2.8"/></g><g><defs><path id="SVGID_8_" d="M119.6 204.6c0 3-2.4 5.5-5.3 5.5H6c-2.9 0-5.3-2.5-5.3-5.5V5.8C.7 2.8 3.1.3 6 .3h108.3c2.9 0 5.3 2.5 5.3 5.5v198.8z"/></defs><clipPath id="SVGID_9_"><use xlink:href="#SVGID_8_" overflow="visible"/></clipPath><path d="M114.6 209.2c-.7.2-1.4.2-2.1.3-1.1.1-2.3.4-3.4.7-.8.3-1.8.6-2.4.1-1.6-1.4 1.8-5.4 2.4-6.9.3-.8.6-1.8 1.3-2.3.9-.7 2.2-.7 3.2-.2 0 0 .1 0 .1.1.2.9.6 1.8 1 2.6.5.7 1.2 1.5 2.1 2 0 .1.1.3.1.4.1 1-.2 2-1 2.6-.4.2-.8.4-1.3.6z" clip-path="url(#SVGID_9_)" fill="#abe0f4"/><path class="st58" d="M114 216.6c-5.5-9.5-14.6-17.6-23.3-22.7-11.5-6.7-24-11.6-36.8-15.2-13.3-3.7-30.4-8.5-44-3C-1 180-9.2 191.9-9.6 203.6v2c.6 13.6 7.9 23.9 18.9 29 2.2 16.8 15.1 27.8 32.2 29.1 12.4.9 24.9 2 37.3 2.7 14.5.8 27.7-3.8 35.9-16.5 7.2-11.2 5.3-23.1-.7-33.3z"/><path class="st58" d="M111.7 217.8c-.9-1.8-2-3.6-3.2-5.3-15.4-21.9-44.1-31.4-69.4-35.6-23.1-3.8-51 .4-50.9 29.4.1 10.6 5.7 21.5 14.9 27 1.2.7 2.5 1.4 3.4 2.6.5.7.8 1.5 1.1 2.3 3.5 9.8 7.7 17.8 17.6 22.6 10.5 5.1 22.8 4.9 34.2 6.2 11.8 1.3 24.5 2.3 35.9-1.9 20.1-7.3 25.1-29.7 16.4-47.3z"/><g class="st59"><path class="st10" d="M20.4 139.3c-.7-.5-1.2-1.1-1.6-1.7-.3-.6-.3-1.2-.7-1.7-.5-.7-1.2-.9-1.9-1.2-.8-.4-1.3-1.1-1.3-1.8 0-.6.8-.7 1.5-.6 1.1.2 1.5 1.4 2.6 1.7.7.3 1.3 0 1.9 0 1.3 0 2.9.6 4 1.7.8.8 1.5 1.7 2.1 2.6.4.6.8 1.3.8 1.9 0 1.7-3.9.6-5.3.1-.8-.3-1.5-.6-2.1-1z"/><path class="st7" d="M27.4 144.8c1.6-.4 3-1.9 3.6-3.5.6-1.5.5-4.5-1.9-4.4-1.6.1-1.5 1.3-2 2.5-.6 1.4-2.8 2.3-2.2 4 .4 1.4 1.5 1.6 2.5 1.4z"/><path class="st10" d="M5.6 151.2c-.2-.8-.3-1.6-.2-2.4.1-.6.4-1.1.5-1.8 0-.8-.4-1.4-.8-2.1-.4-.8-.3-1.7 0-2.2.3-.5 1.1-.1 1.5.4.7.8.4 2 1 2.9.4.6 1 .8 1.5 1.2 1.1.8 1.9 2.3 2.1 3.8.2 1.1.2 2.3.1 3.3-.1.7-.1 1.5-.5 2-1 1.4-3.5-1.9-4.2-3.2-.5-.5-.8-1.2-1-1.9z"/><path class="st7" d="M7.8 159.8c1.5.6 3.5.3 4.9-.6 1.4-.9 3.1-3.3 1.2-4.6-1.4-.9-2 .1-3.1.8-1.3.8-3.6.1-4.2 1.8-.5 1.4.2 2.2 1.2 2.6z"/><path class="st10" d="M22.1 110c-.7.4-1.4.8-2.2.8-.6.1-1.2-.1-1.9 0-.8.2-1.3.8-1.8 1.4-.7.6-1.5.8-2.1.6-.5-.2-.3-1 0-1.6.6-.9 1.8-.9 2.6-1.7.5-.6.5-1.2.7-1.8.5-1.3 1.7-2.4 3.1-3.1 1.1-.5 2.1-.8 3.2-1 .7-.1 1.5-.3 2-.1 1.6.6-.9 3.8-1.9 4.9-.5.8-1.1 1.3-1.7 1.6z"/><path class="st7" d="M29.8 105.6c.2-1.6-.6-3.5-1.9-4.6-1.2-1.1-4-2.1-4.7.1-.5 1.6.7 1.9 1.6 2.8 1.1 1 1.1 3.5 2.9 3.6 1.4.1 2-.8 2.1-1.9z"/><path class="st8" d="M2 146.9c-.1-.5-.3-1.1-.6-1.5-.3-.4-.6-.6-.8-1-.3-.5-.1-1-.1-1.5 0-.6-.3-1.1-.7-1.3-.3-.2-.7.3-.8.7-.2.7.3 1.3.3 2.1-.1.5-.4.8-.6 1.2-.4.8-.5 1.9-.2 2.9.2.7.5 1.4.9 2.1.2.4.5.9.9 1.1 1 .5 1.6-2.2 1.7-3.2v-1.6z"/><path class="st6" d="M3.1 152.8c-.7.8-2 1.2-3.2 1.1-1.1-.1-2.9-1.1-2-2.5.6-.9 1.2-.5 2.1-.4 1 .1 2.2-1 3.1-.1.7.7.5 1.4 0 1.9z"/><g><path class="st8" d="M21.5 125.9c-.5-.1-1.1-.2-1.5-.5-.4-.2-.6-.6-1-.8-.5-.3-1-.1-1.5-.1-.6 0-1.1-.3-1.3-.7-.2-.3.3-.7.7-.8.7-.2 1.3.3 2.1.2.5-.1.8-.4 1.1-.6.8-.4 1.9-.5 2.9-.2.7.2 1.4.5 2.1.9.4.2.9.5 1.1.9.5 1-2.1 1.6-3.1 1.7-.7.1-1.2.1-1.6 0z"/><path class="st6" d="M27.3 127c.8-.8 1.2-2.1 1-3.2-.1-1.1-1.1-2.9-2.5-2-.9.6-.5 1.3-.4 2.1.1 1-1 2.3-.1 3.1.8.7 1.5.5 2 0z"/></g><g><path class="st8" d="M13 142.9c-.3-.4-.6-.9-.7-1.4-.1-.4 0-.8-.1-1.3-.2-.5-.6-.8-1-1.2-.5-.4-.6-1-.5-1.4.1-.4.7-.3 1.1-.1.6.3.7 1.2 1.3 1.6.4.3.8.3 1.2.4.9.3 1.7 1 2.2 1.9.4.7.7 1.4.8 2.1.1.4.3 1 .2 1.4-.3 1.1-2.6-.4-3.4-1-.5-.3-.8-.7-1.1-1z"/><path class="st6" d="M16.4 147.8c1.1 0 2.3-.6 3-1.5.7-.9 1.2-2.8-.4-3.2-1.1-.2-1.2.6-1.8 1.2-.6.8-2.3.9-2.2 2.2.1.9.7 1.3 1.4 1.3z"/></g><g><path class="st8" d="M10.6 103.2c-.3.5-.6.9-1.1 1.2-.4.2-.8.3-1.1.6-.4.4-.5.9-.7 1.4-.2.6-.7.9-1.1 1-.4.1-.5-.5-.5-.9.1-.7.8-1.1 1-1.8.1-.5-.1-.9-.1-1.3-.1-.9.2-2 .9-2.8.5-.6 1-1.1 1.6-1.6.4-.3.8-.6 1.2-.7 1.1-.1.7 2.6.4 3.6-.1.5-.2.9-.5 1.3z"/><path class="st6" d="M13.8 98.2c-.4-1-1.5-1.9-2.6-2.1-1.1-.3-3.1 0-2.8 1.6.2 1.1 1 .9 1.8 1.1 1 .3 1.7 1.7 2.9 1.2.9-.4 1-1.1.7-1.8z"/></g><g><circle transform="rotate(-43.506 -2.963 123.513)" class="st40" cx="-3" cy="123.5" r="18.1"/><path class="st48" d="M-3 144.8c-11.7 0-21.3-9.6-21.3-21.3 0-11.7 9.6-21.3 21.3-21.3s21.3 9.6 21.3 21.3c0 11.8-9.5 21.3-21.3 21.3zm0-39c-9.8 0-17.8 8-17.8 17.8s8 17.8 17.8 17.8 17.8-8 17.8-17.8c0-9.9-8-17.8-17.8-17.8z"/><path class="st49" d="M-3 102.6c11.5 0 20.9 9.4 20.9 20.9S8.6 144.4-3 144.4c-11.5 0-20.9-9.4-20.9-20.9s9.4-20.9 20.9-20.9m0 39.1c10 0 18.1-8.1 18.1-18.1 0-10-8.1-18.1-18.1-18.1-10 0-18.1 8.1-18.1 18.1 0 9.9 8.1 18.1 18.1 18.1m0-39.9c-11.9 0-21.7 9.7-21.7 21.7 0 11.9 9.7 21.7 21.7 21.7 11.9 0 21.7-9.7 21.7-21.7 0-11.9-9.7-21.7-21.7-21.7zm0 39.1c-9.6 0-17.4-7.8-17.4-17.4 0-9.6 7.8-17.4 17.4-17.4 9.6 0 17.4 7.8 17.4 17.4 0 9.6-7.8 17.4-17.4 17.4z"/></g></g><g class="st59"><path class="st52" d="M5.1 107c-.1.3-.4.4-.7.3l-.3-.1c-.3-.1-.4-.4-.3-.7l.8-1.8c.1-.3.4-.4.7-.3l.3.1c.3.1.4.4.3.7l-.8 1.8z"/><path class="st53" d="M5.1 107c-.1.3-.4.4-.7.3l-.3-.1c-.3-.1-.4-.4-.3-.7l.8-1.8c.1-.3.4-.4.7-.3l.3.1c.3.1.4.4.3.7l-.8 1.8z"/><path class="st52" d="M14.6 117.5c-.3.1-.5 0-.6-.3l-.1-.3c-.1-.3 0-.5.3-.7l1.8-.7c.3-.1.5 0 .6.3l.1.3c.1.3 0 .5-.3.6l-1.8.8z"/><path class="st53" d="M14.6 117.5c-.3.1-.5 0-.6-.3l-.1-.3c-.1-.3 0-.5.3-.7l1.8-.7c.3-.1.5 0 .6.3l.1.3c.1.3 0 .5-.3.6l-1.8.8z"/><path class="st52" d="M13.9 131.5c-.3-.1-.4-.4-.3-.7l.1-.3c.1-.3.4-.4.7-.3l1.8.8c.3.1.4.4.3.7l-.1.3c-.1.3-.4.4-.7.3l-1.8-.8z"/><path class="st53" d="M13.9 131.5c-.3-.1-.4-.4-.3-.7l.1-.3c.1-.3.4-.4.7-.3l1.8.8c.3.1.4.4.3.7l-.1.3c-.1.3-.4.4-.7.3l-1.8-.8z"/><path class="st52" d="M3.5 141c-.1-.3 0-.5.3-.6l.3-.1c.3-.1.5 0 .6.3l.7 1.8c.1.3 0 .5-.3.6l-.3.1c-.3.1-.5 0-.6-.3l-.7-1.8z"/><path class="st53" d="M3.5 141c-.1-.3 0-.5.3-.6l.3-.1c.3-.1.5 0 .6.3l.7 1.8c.1.3 0 .5-.3.6l-.3.1c-.3.1-.5 0-.6-.3l-.7-1.8z"/><g><path class="st52" d="M6.6 107.8c-.1.2-.4.3-.7.2l-.3-.1c-.2-.1-.3-.4-.2-.7l.9-1.7c.1-.2.4-.3.7-.2l.3.1c.2.1.3.4.2.7l-.9 1.7z"/><path class="st53" d="M6.6 107.8c-.1.2-.4.3-.7.2l-.3-.1c-.2-.1-.3-.4-.2-.7l.9-1.7c.1-.2.4-.3.7-.2l.3.1c.2.1.3.4.2.7l-.9 1.7z"/></g><g><path class="st52" d="M15.1 119.1c-.3.1-.5-.1-.6-.3l-.1-.3c-.1-.3.1-.5.3-.6l1.9-.6c.3-.1.5.1.6.3l.1.3c.1.3-.1.5-.3.6l-1.9.6z"/><path class="st53" d="M15.1 119.1c-.3.1-.5-.1-.6-.3l-.1-.3c-.1-.3.1-.5.3-.6l1.9-.6c.3-.1.5.1.6.3l.1.3c.1.3-.1.5-.3.6l-1.9.6z"/></g><g><path class="st52" d="M13.1 133.1c-.2-.1-.3-.4-.2-.7l.1-.3c.1-.2.4-.3.7-.2l1.7.9c.2.1.3.4.2.7l-.1.3c-.1.2-.4.3-.7.2l-1.7-.9z"/><path class="st53" d="M13.1 133.1c-.2-.1-.3-.4-.2-.7l.1-.3c.1-.2.4-.3.7-.2l1.7.9c.2.1.3.4.2.7l-.1.3c-.1.2-.4.3-.7.2l-1.7-.9z"/></g><g><path class="st52" d="M1.8 141.5c-.1-.3.1-.5.3-.6l.3-.1c.3-.1.5.1.6.3l.6 1.9c.1.3-.1.5-.3.6l-.3.2c-.3.1-.5-.1-.6-.3l-.6-2z"/><path class="st53" d="M1.8 141.5c-.1-.3.1-.5.3-.6l.3-.1c.3-.1.5.1.6.3l.6 1.9c.1.3-.1.5-.3.6l-.3.2c-.3.1-.5-.1-.6-.3l-.6-2z"/></g></g><path class="st60" d="M11.9 117.9c.1.2.6.3.7.6.1.2-.3.6-.2.9.1.2.6.4.7.6.1.2-.4.6-.3.8 0 .2.6.4.6.7 0 .2-.4.6-.4.8 0 .3.5.5.6.7 0 .3-.5.5-.5.8 0 .2.5.4.5.6 0 .2-.5.4-.5.6 0 .2.5.5.4.7 0 .2-.5.3-.6.5 0 .2.4.5.4.7 0 .2-.6.3-.6.5s.4.5.3.7c-.1.2-.6.3-.7.4-.1.2.3.6.2.7M7.8 135.5c-.1.1.1.4-.1.5-.2.2-.7-.1-.9.1-.2.1-.1.7-.3.8-.2.1-.7-.1-.9 0-.2.1-.2.7-.4.8-.2.1-.7-.2-.9-.1-.2.1-.2.7-.4.8-.2.1-.6-.3-.9-.2-.2.1-.3.6-.5.7-.2.1-.6-.3-.9-.3-.2.1-.3.6-.6.7-.2.1-.6-.4-.8-.3-.2 0-.4.6-.6.6-.2 0-.5-.4-.8-.4"/><g class="st59"><path class="st54" d="M-1.4 139.6c-.4 0-.9.1-1.3.1-8.8 0-15.9-7.1-15.9-15.9s7.1-15.9 15.9-15.9c6.3 0 11.8 3.7 14.4 9.1M11.9 129.9c-.8 1.8-1.8 3.4-3.1 4.8"/><path class="st55" d="M10.8 131.7c-.5-.2-1.1 0-1.3.5-.2.5-.1 1.1.4 1.4.5.3 1.2.1 1.4-.5.3-.6 0-1.2-.5-1.4zM8.9 133.8c-.6-.1-1.1.1-1.2.7-.2.5.1 1.1.6 1.3.5.2 1.2-.1 1.3-.7.2-.6-.1-1.1-.7-1.3zM.3 108.9c.3.4.9.6 1.4.3.4-.3.6-.9.3-1.4-.3-.5-1-.6-1.5-.3-.5.2-.5.9-.2 1.4zM2.8 108.8c-.1.3-.1.5 0 .7.1.2.3.4.5.5.5.2 1.1 0 1.3-.5.2-.5-.1-1.1-.6-1.4-.5-.1-1 .2-1.2.7zM5.3 110.1c-.3.5-.1 1 .4 1.3.4.3 1.1.1 1.4-.3.3-.5.2-1.2-.4-1.4-.6-.3-1.2-.1-1.4.4zM7.4 111.9c-.2.5.1 1.1.5 1.3.5.2 1.1 0 1.3-.5.2-.5 0-1.2-.6-1.4-.5-.2-1 .1-1.2.6zM9.3 113.9c-.3.5-.1 1.1.3 1.3.4.3 1 .2 1.4-.3.3-.5.2-1.1-.3-1.4-.6-.3-1.1-.1-1.4.4zM10.9 116c-.4.4-.5 1-.2 1.4.4.4 1 .6 1.5.2.5-.3.6-1 .2-1.5-.4-.5-1.1-.5-1.5-.1zM11.6 129.2c-.3 0-.5.2-.7.4-.2.2-.3.4-.2.7.1.5.6 1 1.1 1 .6 0 1-.6 1-1.2-.1-.6-.6-1-1.2-.9z"/></g></g><path class="st55" d="M97.8 142.2c-.3 0-.5.2-.7.4-.2.2-.3.4-.2.7.1.5.6 1 1.1 1 .6 0 1-.6 1-1.2-.1-.6-.7-1-1.2-.9zM97.1 128.9c-.4.4-.5 1-.2 1.4.4.4 1 .6 1.5.2.5-.3.6-1 .2-1.5-.4-.4-1.1-.4-1.5-.1zM72.1 126.6c.6-.1.9-.5.9-1.1 0-.5-.5-1-1-1-.6 0-1 .5-1 1.1 0 .7.5 1.1 1.1 1zM80.8 121.1c.1.6.6.9 1.2.8.5-.1.9-.6.9-1.2-.1-.5-.6-1-1.2-.9-.7.2-1.1.7-.9 1.3zM95.1 146.8c-.6-.1-1.1.1-1.2.7-.2.5.1 1.1.6 1.3.5.2 1.2-.1 1.3-.7.2-.6-.2-1.2-.7-1.3zM86 152.4c-.1-.6-.5-.9-1-.9s-1 .5-1 1 .5 1.1 1.1 1c.6 0 1-.5.9-1.1zM68 139.3c.5-.2.7-.8.5-1.3-.2-.5-.8-.8-1.3-.6-.5.2-.9.8-.6 1.4.2.5.9.7 1.4.5zM73.3 148.2c.1-.6-.3-1.1-.8-1.1-.5-.1-1.1.2-1.2.8-.1.6.3 1.2.9 1.2.6.1 1.1-.3 1.1-.9z"/><g class="st2"><path d="M119.4 207.1c0 1.7-1.3 3-3 3H3.7c-1.7 0-3-1.3-3-3V3.3c0-1.6 1.4-3 3-3h112.7c1.7 0 3 1.4 3 3v203.8z" fill="none" stroke="#333" stroke-width=".245" stroke-miterlimit="10"/></g><text transform="translate(3.652 206.857)" class="st0 st1">Target cell</text><g><path class="st30" d="M89.4 184.6v2h-2"/><path class="st62" d="M83.8 186.6H56.3"/><path class="st30" d="M54.4 186.6h-2v-2"/><path class="st62" d="M52.4 180.9v-27.5"/><path class="st30" d="M52.4 151.5v-2h2"/><path class="st62" d="M58.1 149.5h27.5"/><path class="st30" d="M87.4 149.5h2v2"/><path class="st62" d="M89.4 155.2v27.5"/></g><text transform="translate(71.282 185.547)" class="st0 st1">inset</text></g></svg>