<svg xmlns="http://www.w3.org/2000/svg" viewBox="0 0 512 512">
<style type="text/css">
	.fa-primary{fill:#f64f59;}.fa-secondary{fill:#12c2e9;opacity:.5}
</style>
<path class="fa-secondary" d="M208,80c70.7,0,128,57.3,128,128s-57.3,128-128,128S80,278.7,80,208c0-33.9,13.5-66.5,37.5-90.5
	C141.4,93.4,174,79.9,208,80 M208,0C93.1,0,0,93.1,0,208s93.1,208,208,208s208-93.1,208-208S322.9,0,208,0z"/>
<path class="fa-primary" d="M504.9,476.7L476.6,505c-9.3,9.4-24.4,9.4-33.8,0.1c0,0-0.1-0.1-0.1-0.1L343,405.3c-4.5-4.5-7-10.6-7-17V372l36-36h16.3
	c6.4,0,12.5,2.5,17,7l99.7,99.7C514.3,452.1,514.3,467.3,504.9,476.7z"/>
<path class="fa-secondary" d="M247.6,158.3c0,23-18.6,41.6-41.6,41.6s-41.6-18.6-41.6-41.6s18.6-41.6,41.6-41.6S247.6,135.3,247.6,158.3z"/>
<path class="fa-primary" d="M235.2,210.2h-5.4c-15,6.9-32.3,6.9-47.4,0H177c-24.1,0-43.6,19.5-43.6,43.6v13.5c0,8.6,7,15.6,15.6,15.6l0,0h114.3
	c8.6,0,15.6-7,15.6-15.6l0,0v-13.5C278.8,229.8,259.3,210.3,235.2,210.2z"/>
</svg>
