<svg xmlns="http://www.w3.org/2000/svg" viewBox="0 0 208.4 2077.8">
<defs>
<linearGradient id="Gradient1" x1="0%" y1="0%" x2="0%" y2="100%">
  <stop class="stop1" offset="0%" stop-color="#12c2e9" />
  <stop class="stop2" offset="50%" stop-color="#c471ed" />
  <stop class="stop3" offset="100%" stop-color="#f64f59" />
</linearGradient>
</defs>
<path fill="url(#Gradient1)" d="M0,0l10.7,31.5C21,62.9,43,125.5,64,189c21,62.8,43,125.5,37.3,189c-5.3,62.8-37.3,125.5-16,189
	c21.7,62.6,60.8,134.6,66.5,198.1c5.3,62.5-23.8,116.4-55.8,179.9c-32,62.3-32,125.5-21.3,187.6c10.3,63.6,32.3,127,64,189
	c32.3,63.5,74.3,127,69.3,189c-5,63.3-59,127-96,189c-37,63.2-59,125.5-69.3,189c-15.1,71.2-13,56.5-23.3,107.4L0,2077.8l0,0v-31.5
	c0-31.5,0-94.1,0-157.6c0-62.8,0-125.5,0-189c0-62.8,0-125.5,0-189c0-62.6,0-125.5,0-189c0-62.5,0-125.5,0-189
	c0-62.3,0-125.5,0-187.6c0-63.6,0-127,0-189c0-63.5,0-127,0-189c0-63.3,0-127,0-189c0-63.2,0-125.5,0-189C0,126,0,63.5,0,31.7V0z"/>
</svg>
