<svg id="Layer_1" xmlns="http://www.w3.org/2000/svg" viewBox="0 0 480.6 266.8" enable-background="new 0 0 480.6 266.8"><style>.st4{fill:none;stroke:#231f20;stroke-width:.5;stroke-miterlimit:10}.st6{fill:#010101}.st7{font-family:&apos;Lato&apos;,sans-serif}.st8{font-size:8px}.st10,.st9{opacity:.8}.st9{fill:#f15b2b}.st10{fill:#f89521}.st11{font-size:7.7008px}.st13{fill:none;stroke:#bdbec0;stroke-linecap:square;stroke-miterlimit:10;stroke-dasharray:2,2}.st14{fill:#bdbec0}.st15{font-size:7px}.st16{fill:none;stroke:#231f20;stroke-width:.5;stroke-linecap:square;stroke-miterlimit:10}.st17{opacity:.7}.st18{fill:#f68821}.st19{font-size:10px}.st20{font-size:6.7382px}.st21{fill:none;stroke:#bdbec0;stroke-miterlimit:10;stroke-dasharray:2}.st23{fill:#08a650}.st25{fill:none;stroke:#bdbec0;stroke-miterlimit:10;stroke-dasharray:2,2}.st26{opacity:.3;fill:#2075bc}.st27,.st28{opacity:.3;fill:#08a650}.st28{fill:#ec2227}.st29{opacity:.2;fill:#9e2064}.st30{font-family:&apos;Lato&apos;,sans-serif}.st33{opacity:.3;fill:#00a651}.st39{font-size:11.5513px}.st40{fill:none;stroke:#bdbec0;stroke-miterlimit:10}.st43{fill:#f89521}.st44{fill:#f15b2b}</style><path d="M109.7 181.4c3.8 11.3 3 21.7-1.8 23.3-4.8 1.6-11.8-6.2-15.6-17.4-3.8-11.3-3-21.7 1.8-23.3 4.9-1.7 11.8 6.1 15.6 17.4z" opacity=".4" fill="#673090"/><defs><filter id="Adobe_OpacityMaskFilter" filterUnits="userSpaceOnUse" x="-98.3" y="179.2" width="672" height="156.4"><feColorMatrix values="-1 0 0 0 1 0 -1 0 0 1 0 0 -1 0 1 0 0 0 1 0" color-interpolation-filters="sRGB" result="source"/><feFlood result="back" flood-color="#fff" flood-opacity="1"/><feBlend in="source" in2="back"/></filter></defs><mask maskUnits="userSpaceOnUse" x="-98.3" y="179.2" width="672" height="156.4" id="SVGID_1_"><path fill="#fff" d="M-114.8 256.3h732V335h-732z" filter="url(#Adobe_OpacityMaskFilter)"/></mask><path d="M573 304.7C385.3 127.6 85.3 141.1-97.6 334.9" opacity=".5" mask="url(#SVGID_1_)" fill="none" stroke="#818285" stroke-width="2" stroke-miterlimit="10"/><path class="st4" d="M169.2 190.4l-1.4-1.3m1.4-1.1l-1.4 1.3m1.4-1.1l-1.4-1.4m1.4-1.1l-1.4 1.3m1.4-1.1l-1.3-1.4m1.3-1.1l-1.3 1.4m1.3-1.2l-1.3-1.3m1.3-1.1l-1.3 1.3m1.3-1.1l-1.3-1.4m1.3-1.1l-1.3 1.4m1.3-1.2l-1.3-1.3m1.3-1.1l-1.3 1.3m4.4 12.3l-1.4-1.3m1.4-1.2l-1.4 1.4m1.4-1.2l-1.4-1.3m1.4-1.1l-1.4 1.3m1.4-1.1l-1.4-1.4m1.4-1.1l-1.4 1.3m1.4-1.1l-1.4-1.3m1.4-1.2l-1.4 1.4m1.4-1.1l-1.4-1.4m1.4-1.1l-1.4 1.3m1.4-1.1l-1.4-1.3m1.4-1.2l-1.4 1.4"/><path d="M215 176c0 4.9-11.3 8.8-25.2 8.8-13.9 0-25.2-4-25.2-8.8 0-4.9 11.3-8.8 25.2-8.8 14 0 25.2 4 25.2 8.8z" opacity=".8" fill="#f15a29"/><text transform="translate(172.6 178.446)" class="st6 st7 st8">LAMTOR1</text><path class="st9" d="M228.1 165.3c0 5.6-5 10.1-11.2 10.1-6.2 0-11.2-4.5-11.2-10.1s5-10.1 11.2-10.1c6.2 0 11.2 4.5 11.2 10.1z"/><path class="st10" d="M210.8 159.2c0 5.6-5 10.1-11.2 10.1-6.2 0-11.2-4.5-11.2-10.1s5-10.1 11.2-10.1c6.1 0 11.2 4.5 11.2 10.1z"/><path class="st9" d="M191.2 158.5c0 5.6-5 10.1-11.2 10.1-6.2 0-11.2-4.5-11.2-10.1s5-10.1 11.2-10.1c6.2 0 11.2 4.5 11.2 10.1z"/><text transform="translate(178.159 160.448)" class="st6 st7 st11">3</text><text transform="translate(197.449 161.344)" class="st6 st7 st11">4</text><text transform="translate(214.972 167.265)" class="st6 st7 st11">5</text><text transform="translate(159.964 136.543)" class="st6 st7 st8">RAGULATOR</text><path fill="none" stroke="#bdbec0" stroke-linecap="square" stroke-miterlimit="10" stroke-dasharray="2" d="M240.9 134.2h-29"/><path class="st13" d="M241.3 139.4v-5.2"/><path class="st14" d="M241.3 143.3c.7-1.8 1.8-4.1 3-5.5l-3 1.1-3-1.1c1.2 1.4 2.3 3.7 3 5.5z"/><text transform="translate(221.152 132.438)" class="st6 st7 st15">GEF</text><path class="st16" d="M224.9 143h-72m72 5.2V143m-72 5.2V143"/><path class="st4" d="M190.2 143v-5.1"/><g class="st17"><path class="st18" d="M339.6 154.2c0 10.4-13 18.8-29.1 18.8s-29.1-8.4-29.1-18.8 13-18.8 29.1-18.8c16.1-.1 29.1 8.4 29.1 18.8z"/><path class="st18" d="M334 171.1c0 6.2-10.5 11.3-23.4 11.3-12.9 0-23.4-5.1-23.4-11.3 0-6.2 10.5-11.3 23.4-11.3 12.9 0 23.4 5 23.4 11.3z"/><path class="st18" d="M340.6 165.2c0 6.1-13.5 11-30.1 11s-30.1-4.9-30.1-11 13.5-11.1 30.1-11.1c16.6.1 30.1 5 30.1 11.1z"/></g><text transform="translate(289.518 161.843)" class="st6 st7 st19">mTORC1</text><g class="st17"><path class="st18" d="M339.6 68.5c0 10.4-13 18.8-29.1 18.8s-29.1-8.4-29.1-18.8 13-18.8 29.1-18.8 29.1 8.4 29.1 18.8z"/><path class="st18" d="M334 85.4c0 6.2-10.5 11.3-23.4 11.3-12.9 0-23.4-5.1-23.4-11.3 0-6.2 10.5-11.3 23.4-11.3 12.9 0 23.4 5.1 23.4 11.3z"/><path class="st18" d="M340.6 79.6c0 6.1-13.5 11-30.1 11s-30.1-4.9-30.1-11 13.5-11.1 30.1-11.1 30.1 5 30.1 11.1z"/></g><text transform="translate(289.518 76.178)" class="st6 st7 st19">mTORC1</text><text transform="translate(224.135 140.452)" class="st6 st7 st20">(+)</text><path class="st21" d="M241.3 134.2v3.5"/><path class="st10" d="M174.9 164.6c0 5.6-5 10.1-11.2 10.1-6.2 0-11.2-4.5-11.2-10.1s5-10.1 11.2-10.1c6.2 0 11.2 4.5 11.2 10.1z"/><text transform="translate(161.765 166.224)" class="st6 st7 st11">2</text><path d="M240.6 148.2c7.6-.1 14 7.1 14.1 16.1.2 9-5.9 16.5-13.5 16.6-7.6.1-14-7.1-14.1-16.1-.2-9 5.9-16.4 13.5-16.6z" fill="#8ec641"/><path class="st23" d="M266 147.9c7.6-.1 14 7.1 14.1 16.1.2 9-5.9 16.5-13.5 16.6-7.6.1-14-7.1-14.1-16.1-.2-9.1 5.8-16.5 13.5-16.6z"/><path d="M249.5 170.1c0 3.3-3.8 5.9-8.6 5.9-4.7 0-8.6-2.6-8.6-5.9 0-3.2 3.8-5.9 8.6-5.9 4.7 0 8.6 2.7 8.6 5.9z" opacity=".3" fill="#046938"/><text transform="translate(232.695 173.01)" class="st6 st7 st8">GTP</text><text transform="translate(253.817 161.224)" class="st6 st7 st15">RagC/D</text><text transform="translate(228.856 161.224)" class="st6 st7 st15">RagA/B</text><text transform="translate(165.064 200.249)" class="st6 st7 st15">SLC38A9</text><text transform="rotate(71.326 -71.906 150.808)" class="st6 st7 st15">KICSTOR</text><text transform="translate(122.008 131.49)" class="st6 st7 st15">V-ATPase</text><text transform="translate(175.622 109.128)" class="st6 st7 st15">GAP</text><text transform="translate(179.585 118.664)" class="st6 st7 st20">(-)</text><text transform="translate(260.835 131.743)" class="st6 st7 st15">GAP</text><text transform="translate(250.696 131.672)" class="st6 st7 st20">(-)</text><path class="st21" d="M140.3 103.2l101 21.2"/><path class="st25" d="M76.8 102.7l16.6-3.6"/><path transform="rotate(-12.088 93.39 99.135)" class="st14" d="M92.9 95.9h1v6.5h-1z"/><path class="st25" d="M93.1 156l-4.7-21.7"/><path class="st14" d="M93.9 159.8c.3-1.9.9-4.4 1.8-6l-2.7 1.7-3.2-.4c1.5 1.1 3.1 3.1 4.1 4.7z"/><path class="st25" d="M185 207.7l8.9 12.1"/><path class="st14" d="M182.7 204.6c.5 1.9 1 4.4.8 6.2l1.8-2.7 3.1-.9c-1.8-.4-4.1-1.5-5.7-2.6z"/><path class="st25" d="M217.4 240.7l121.8-1.1"/><path class="st14" d="M213.6 240.8c1.8.7 4.1 1.8 5.5 3l-1.1-3 1.1-3.1c-1.5 1.2-3.7 2.4-5.5 3.1z"/><path class="st25" d="M148.1 181.7l-.4 38.8"/><path class="st14" d="M148.1 177.8c-.7 1.8-1.9 4.1-3.1 5.4l3.1-1.1 3 1.1c-1.2-1.3-2.3-3.6-3-5.4z"/><path class="st25" d="M154.4 180.4l-.4 38.8"/><path class="st14" d="M154.4 176.5c-.7 1.8-1.9 4.1-3.1 5.4l3.1-1.1 3 1.1c-1.2-1.3-2.3-3.6-3-5.4z"/><path class="st25" d="M160.2 180.4l-.4 38.8"/><path class="st14" d="M160.2 176.5c-.7 1.8-1.9 4.1-3.1 5.4l3.1-1.1 3 1.1c-1.2-1.3-2.3-3.5-3-5.4z"/><path class="st25" d="M31 71l2.2 11.5"/><path transform="rotate(-10.498 33.154 82.533)" class="st14" d="M29.9 82h6.5v1h-6.5z"/><path class="st25" d="M27.8 27.7l.2 12.5"/><path transform="rotate(-.647 28.003 40.158)" class="st14" d="M24.7 39.7h6.5v1h-6.5z"/><path class="st25" d="M66 27.7l.2 12.5"/><path transform="rotate(-.647 66.145 40.197)" class="st14" d="M62.9 39.7h6.5v1h-6.5z"/><path class="st25" d="M64.2 72.2l-4.5 7.9"/><path transform="rotate(-60.066 59.688 80.08)" class="st14" d="M59.2 76.8h1v6.5h-1z"/><path class="st26" d="M49.9 97.5c0 5.2-4.3 9.5-9.5 9.5s-9.5-4.3-9.5-9.5 4.3-9.5 9.5-9.5 9.5 4.2 9.5 9.5zm21 7.7c0 5.2-4.3 9.5-9.5 9.5s-9.5-4.3-9.5-9.5 4.3-9.5 9.5-9.5 9.5 4.2 9.5 9.5z"/><path class="st26" d="M63.1 92.5c0 5.2-4.3 9.5-9.5 9.5s-9.5-4.3-9.5-9.5 4.3-9.5 9.5-9.5 9.5 4.3 9.5 9.5zM48.4 112c0 5.2-4.3 9.5-9.5 9.5s-9.5-4.3-9.5-9.5 4.3-9.5 9.5-9.5 9.5 4.2 9.5 9.5z"/><path class="st26" d="M61.4 116.9c0 5.2-4.3 9.5-9.5 9.5s-9.5-4.3-9.5-9.5 4.3-9.5 9.5-9.5 9.5 4.3 9.5 9.5z"/><text transform="translate(32.99 106.985)" class="st6 st7 st8">GATOR2</text><ellipse class="st27" cx="25.1" cy="59.4" rx="7.5" ry="9.8"/><ellipse class="st27" cx="35.6" cy="59.4" rx="7.5" ry="9.8"/><text transform="translate(17.242 61.384)" class="st6 st7 st8">SESN2</text><ellipse class="st28" cx="61.1" cy="59.4" rx="7.5" ry="9.8"/><ellipse class="st28" cx="71.6" cy="59.4" rx="7.5" ry="9.8"/><text transform="translate(49.699 61.384)" class="st6 st7 st8">CASTOR</text><path class="st29" d="M245.5 81.5c0 6.9-4.3 12.5-9.6 12.5s-9.6-5.6-9.6-12.5 4.3-12.5 9.6-12.5 9.6 5.6 9.6 12.5z"/><path class="st29" d="M259 81.5c0 6.9-4.3 12.5-9.6 12.5s-9.6-5.6-9.6-12.5 4.3-12.5 9.6-12.5 9.6 5.6 9.6 12.5z"/><text transform="translate(231.975 78.968)"><tspan x="0" y="0" class="st6 st7 st8">FLCN</tspan><tspan x="-4.2" y="9.6" class="st6 st7 st8">FNIP1/2</tspan></text><path class="st27" d="M116.6 90.2a9.476 9.476 0 1 1-13.402 13.4A9.476 9.476 0 0 1 116.6 90.2z"/><path class="st27" d="M124.5 77.3a9.476 9.476 0 1 1-13.4 0c3.6-3.7 9.7-3.7 13.4 0z"/><path class="st27" d="M131.5 90.3a9.476 9.476 0 1 1-13.402 13.4A9.476 9.476 0 0 1 131.5 90.3z"/><text transform="translate(101.029 95.58)" class="st6 st7 st8">GATOR1</text><circle class="st27" cx="27.9" cy="15.7" r="4.8"/><text transform="translate(22.062 17.565)" class="st6 st7 st8">Leu</text><circle class="st28" cx="66.1" cy="15.7" r="4.8"/><text transform="translate(60.253 17.565)" class="st6 st7 st8">Arg</text><circle class="st28" cx="202.7" cy="226.4" r="4.8"/><text transform="translate(196.815 228.245)" class="st6 st7 st8">Arg</text><text transform="translate(146.52 227.983)" class="st6 st7 st8">EAA</text><text transform="translate(346.446 241.604)" class="st6 st30" font-size="14">protein</text><text transform="translate(321.78 131.828)" class="st6 st30" font-size="13">active</text><text transform="translate(231.576 234.986)" class="st6 st7 st19">lysosomal hydrolases</text><circle class="st33" cx="145.4" cy="234.1" r="4.8"/><circle class="st33" cx="140.1" cy="245.4" r="4.8"/><circle class="st33" cx="131.6" cy="231.2" r="4.8"/><circle class="st33" cx="157.2" cy="238.9" r="4.8"/><circle class="st33" cx="169.3" cy="245.4" r="4.8"/><circle class="st33" cx="193" cy="245.4" r="4.8"/><circle class="st33" cx="181.1" cy="234.1" r="4.8"/><circle class="st33" cx="170.3" cy="226.4" r="4.8"/><path class="st21" d="M241.3 125.7v12m9.4-38.3l11.1 40.3"/><path class="st4" d="M351.2 191l-1.3-1.3m1.3-1.1l-1.3 1.3m1.3-1.1l-1.3-1.4m1.3-1.1l-1.3 1.4m1.4-1.2l-1.4-1.3m1.4-1.2l-1.4 1.4m1.4-1.2l-1.4-1.3m1.4-1.1l-1.4 1.3m1.4-1.1l-1.4-1.4m1.4-1.1l-1.4 1.4m1.4-1.2l-1.4-1.3m1.4-1.1l-1.4 1.3"/><text transform="translate(361.109 175.333)" class="st6 st7 st15">GAP</text><path class="st16" d="M378.7 153.5v47.7m5.2-47.7h-5.2m5.2 47.7h-5.2"/><path fill="none" stroke="#bdbec0" stroke-miterlimit="10" stroke-dasharray="1" d="M378.7 176.8h-19.6"/><path d="M440.3 167c0 6.2-5 11.2-11.2 11.2h-37.7c-6.2 0-11.2-5-11.2-11.2 0-6.2 5-11.2 11.2-11.2h37.7c6.2 0 11.2 5 11.2 11.2z" opacity=".6" fill="#719cd2"/><text transform="translate(400.024 169.868)" class="st6 st7 st8">TSC2</text><path d="M424.2 187.6c0 5.5-4.4 9.9-9.9 9.9H390c-5.4 0-9.9-4.4-9.9-9.9 0-5.4 4.4-9.9 9.9-9.9h24.3c5.5 0 9.9 4.4 9.9 9.9z" opacity=".6" fill="#4d67b0"/><text transform="translate(391.992 189.77)" class="st6 st7 st8">TSC1</text><path d="M445.3 201.8c-.1 4.4-3.6 7.9-7.9 7.8l-14-.2c-4.3 0-7.8-3.6-7.8-8s3.6-7.8 7.9-7.8l14 .2c4.4.1 7.9 3.7 7.8 8z" opacity=".5" fill="#4a5eaa"/><text transform="translate(417.075 204.26)" class="st6 st7 st15">TBC1D7</text><path d="M356.5 177.3c0 4.8-5 8.8-11.2 8.8-6.2 0-11.2-3.9-11.2-8.8 0-4.8 5-8.8 11.2-8.8 6.1 0 11.2 3.9 11.2 8.8z" fill="#3db54a"/><text transform="translate(334.129 179.4)" class="st6 st7 st8">RHEB</text><text transform="translate(354.039 156.874)" class="st6 st7 st39">+</text><text transform="translate(194.446 212.184)" class="st6 st7 st39">+</text><text transform="translate(365.071 183.45)" class="st6 st7 st20">(-)</text><g><path class="st13" d="M346 152.6c7.8 2.7 9.4 7.1 7 17.3"/><path class="st14" d="M342 151.5c1.7 1.3 3.7 3.1 4.8 4.9l-.2-3.5 2.1-2.9c-1.9.8-4.6 1.3-6.7 1.5z"/></g><path class="st40" d="M359.1 180.8v-8m-92.6-32.3h-9.4"/><path d="M275.1 170.1c0 3.2-4 5.9-8.8 5.9-4.9 0-8.8-2.6-8.8-5.9 0-3.2 4-5.9 8.8-5.9 4.8 0 8.8 2.7 8.8 5.9z" opacity=".3" fill="#f8ed34"/><text transform="translate(257.591 172.797)" class="st6 st7 st8">GDP</text><g><path fill="none" stroke="#bdbec0" stroke-width="1.5" stroke-miterlimit="10" stroke-dasharray="2,2" d="M310.5 123.3v-16.8"/><path class="st14" d="M310.5 127c.6-1.7 1.7-3.8 2.9-5.1l-2.9 1-2.9-1c1.2 1.2 2.3 3.4 2.9 5.1zm0-24.1c.6 1.7 1.7 3.8 2.9 5.1l-2.9-1-2.9 1c1.2-1.3 2.3-3.4 2.9-5.1z"/></g><g class="st17"><path class="st43" d="M148.5 150.8c0 9.1-2.5 16.5-5.6 16.5-3.1 0-5.6-7.4-5.6-16.5s2.5-16.5 5.6-16.5c3.1-.1 5.6 7.3 5.6 16.5z"/><path class="st44" d="M154.9 153.2c0 9.1-2.5 16.5-5.6 16.5s-5.6-7.4-5.6-16.5 2.5-16.5 5.6-16.5 5.6 7.4 5.6 16.5zm-12.8.4c0 9.1-2.5 16.5-5.6 16.5-3.1 0-5.6-7.4-5.6-16.5s2.5-16.5 5.6-16.5c3.1-.1 5.6 7.4 5.6 16.5z"/><path class="st43" d="M155.4 161.8c0 9.1-2.5 16.5-5.6 16.5-3.1 0-5.6-7.4-5.6-16.5s2.5-16.5 5.6-16.5c3.1 0 5.6 7.4 5.6 16.5zm-13.3 0c0 9.1-2.5 16.5-5.6 16.5-3.1 0-5.6-7.4-5.6-16.5s2.5-16.5 5.6-16.5c3.1 0 5.6 7.4 5.6 16.5z"/><path class="st44" d="M149.4 163.6c0 9.1-2.5 16.5-5.6 16.5-3.1 0-5.6-7.4-5.6-16.5s2.5-16.5 5.6-16.5c3.1 0 5.6 7.4 5.6 16.5z"/><path class="st43" d="M146.4 190.6c0 4.6-1.3 8.4-2.8 8.4-1.6 0-2.8-3.8-2.8-8.4 0-4.6 1.3-8.4 2.8-8.4 1.6 0 2.8 3.8 2.8 8.4z"/><path class="st44" d="M149.7 191.9c0 4.6-1.3 8.4-2.8 8.4-1.6 0-2.8-3.8-2.8-8.4 0-4.6 1.3-8.4 2.8-8.4 1.5 0 2.8 3.7 2.8 8.4zm-6.5.1c0 4.6-1.3 8.4-2.8 8.4-1.6 0-2.8-3.8-2.8-8.4 0-4.6 1.3-8.4 2.8-8.4 1.5 0 2.8 3.8 2.8 8.4z"/><path class="st43" d="M149.9 196.2c0 4.6-1.3 8.4-2.8 8.4-1.6 0-2.8-3.8-2.8-8.4 0-4.6 1.3-8.4 2.8-8.4 1.5 0 2.8 3.8 2.8 8.4z"/><path class="st44" d="M142.9 165.1h1.6v26.6h-1.6z"/><path class="st43" d="M143.2 196.2c0 4.6-1.3 8.4-2.8 8.4-1.6 0-2.8-3.8-2.8-8.4 0-4.6 1.3-8.4 2.8-8.4 1.5 0 2.8 3.8 2.8 8.4z"/><path class="st44" d="M146.9 197.1c0 4.6-1.3 8.4-2.8 8.4-1.6 0-2.8-3.8-2.8-8.4 0-4.6 1.3-8.4 2.8-8.4 1.5 0 2.8 3.8 2.8 8.4z"/><path d="M126.5 166.3c-1.2 0-2.4 0-3.6.1-2.2.1-4.4.2-6.5.8-3.3 1-5.8 4.1-4.5 7.7 1.6 4.5 7.2 7.4 10.4 10.7 3 3 5 6.4 7.1 10.1 1.4 2.4 4.5 5 7.4 2.9 1.3-.9.8-2.8.7-4.1-.2-2.5-.8-3.8-2.9-5.2-1.4-.9-2.8-1.7-3.6-3.2-1-2-1-4.4-.5-6.4s1.5-3.9 2.1-5.9c.6-1.7 1.3-4.5-.2-6-.9-.9-2.2-.9-3.4-1.1-.7-.3-1.6-.4-2.5-.4z" fill="#e51e25"/></g><path class="st21" d="M64.5 137.7l52.3-13.8m-2.5-7.3l1.6 6.1M63 130.2l1.5 6"/><g><path transform="rotate(-12.485 154.122 190.802)" class="st23" d="M153.4 186.5h1.5v8.7h-1.5z"/><path transform="rotate(-12.492 156.479 190.325)" class="st23" d="M155.7 186h1.5v8.7h-1.5z"/><path transform="rotate(-12.492 158.733 189.745)" class="st23" d="M158 185.5h1.5v8.7H158z"/><path transform="rotate(-12.499 161.136 189.28)" class="st23" d="M160.4 184.9h1.5v8.7h-1.5z"/><path transform="rotate(-12.485 163.407 188.74)" class="st23" d="M162.7 184.4h1.5v8.7h-1.5z"/><path transform="rotate(-12.578 165.723 188.212)" class="st23" d="M165 183.9h1.5v8.7H165z"/><path transform="rotate(-12.485 165.59 192.283)" class="st23" d="M164.9 191.9h1.5v.8h-1.5z"/><path transform="rotate(-12.492 161.557 185.17)" class="st23" d="M160.8 184.7h1.5v.8h-1.5z"/><path transform="rotate(-12.485 160.874 193.329)" class="st23" d="M160.2 192.9h1.5v.8h-1.5z"/><path transform="rotate(-12.569 156.898 186.215)" class="st23" d="M156.1 185.8h1.5v.8h-1.5z"/><path transform="rotate(-12.492 156.123 194.43)" class="st23" d="M155.4 194h1.5v.8h-1.5z"/><path transform="rotate(-12.492 152.142 187.183)" class="st23" d="M151.5 186.8h1.5v.8h-1.5z"/><path class="st23" d="M150.7 195.2l1.4-.3.2.8-1.4.3z"/><path transform="rotate(-12.492 147.555 188.28)" class="st23" d="M146.8 187.9h1.5v.8h-1.5z"/><path transform="rotate(-12.499 146.857 196.41)" class="st23" d="M146.1 196.1h1.5v.8h-1.5z"/><path class="st23" d="M142.1 189.1l1.4-.4.2.8-1.4.3z"/><path transform="rotate(-12.562 151.797 191.314)" class="st23" d="M151.1 187h1.5v8.7h-1.5z"/><path transform="rotate(-12.485 149.48 191.833)" class="st23" d="M148.8 187.5h1.5v8.7h-1.5z"/><path transform="rotate(-12.562 147.155 192.345)" class="st23" d="M146.4 188h1.5v8.7h-1.5z"/><path transform="rotate(-12.487 144.874 192.906)" class="st23" d="M144.1 188.5h1.5v8.7h-1.5z"/><path transform="rotate(-12.492 142.548 193.417)" class="st23" d="M141.8 189.1h1.5v8.7h-1.5z"/><path class="st40" d="M164.8 184l-1.7-7.7"/></g></svg>