<svg version="1.1" id="Layer_1" xmlns="http://www.w3.org/2000/svg" x="0" y="0" viewBox="0 0 900.2 729.9" xml:space="preserve"><style>.st0{fill:#fff}.st2{fill:none;stroke:#ed1c24;stroke-miterlimit:10}.st3{fill:#333}.st4{font-family:&apos;Lato&apos;,sans-serif;font-weight:700}.st6{font-family:&apos;Lato&apos;,sans-serif}.st7{font-size:15.8871px}.st8{fill:#666766}.st10,.st9{fill:#00a651;stroke:#00a651;stroke-miterlimit:10}.st10{fill:none;stroke:#000;stroke-width:2}.st11{fill:#e6e7e8}.st13{fill:#f7941d;stroke:#000;stroke-miterlimit:10}.st18{font-size:24.1343px}.st19{font-size:16.894px}.st20{fill:none;stroke:#000;stroke-width:3;stroke-miterlimit:10}.st21{fill:#f7941d}.st24{fill:none;stroke:#a7a9ac;stroke-width:.5;stroke-miterlimit:10;stroke-dasharray:3,2}.st27{font-size:17.6966px}.st28{fill:#f3b8bd}.st29{fill:#f3c262}.st30,.st33,.st34{fill:#f7941d;stroke:#f7941d;stroke-miterlimit:10}.st33,.st34{fill:none;stroke:#00aeef;stroke-width:2}.st34{stroke:#00a651}.st35{font-size:19.3074px}.st36{fill:#00a651}.st37{fill:#ed1c24;stroke:#ed1c24;stroke-miterlimit:10}.st38{opacity:.2;fill:#00a651}.st39{font-size:15.9712px}.st41,.st42,.st43{fill:#f3c262;stroke:#fbb040;stroke-miterlimit:10}.st42,.st43{fill:none;stroke:#000}.st43{fill:#fff}.st44{fill:#bddfba}.st46{font-size:21.7208px}.st47{font-size:14.4806px}.st50,.st51{fill:none;stroke-miterlimit:10}.st50{opacity:.5;stroke:#000;stroke-width:.25}.st51{stroke:#231f20;stroke-width:.5}.st56{font-size:17.3794px}.st57{opacity:.7;fill:none;stroke:#000;stroke-width:.25;stroke-miterlimit:10}.st58{font-size:26.5477px}</style><g><path class="st0" d="M896.4 624.3c2 0 3.6 1.6 3.6 3.6V724c0 2-1.6 3.6-3.6 3.6H545c-2 0-3.6-1.6-3.6-3.6v-96.1c0-2 1.6-3.6 3.6-3.6h351.4z"/><path d="M896.4 624.3c2 0 3.6 1.6 3.6 3.6V724c0 2-1.6 3.6-3.6 3.6H545c-2 0-3.6-1.6-3.6-3.6v-96.1c0-2 1.6-3.6 3.6-3.6h351.4z" fill="none" stroke="#a7a9ac" stroke-miterlimit="10" stroke-dasharray="5,3"/></g><path class="st2" d="M657.8 676.6l8.2-3.7M666 672.9l8.1 3.3M674.1 676.2l.2 8.5M674.3 684.7l-8.4 4.1M665.9 688.8l-7.8 4.6M658.1 693.4l.3 9.1M658.4 702.5l7.4 5.2M665.8 707.7l8.7-3.9"/><text transform="translate(675.23 650.159)" class="st3 st4" font-size="19.859">mTORC1</text><text transform="translate(705.609 674.65)" class="st3 st6 st7">On</text><text transform="translate(558.43 676.78)"><tspan x="0" y="0" class="st8 st6 st7">Translation</tspan><tspan x="-4.3" y="19.1" class="st8 st6 st7">Biosynthesis</tspan><tspan x="12.8" y="38.1" class="st8 st6 st7">Growth</tspan></text><text transform="translate(807.926 676.78)"><tspan x="0" y="0" class="st8 st6 st7">Autophagy</tspan><tspan x=".8" y="19.1" class="st8 st6 st7">Lysosome-</tspan><tspan x="1.5" y="38.1" class="st8 st6 st7">biogenesis</tspan></text><text transform="translate(704.674 717.749)" class="st3 st6 st7">Off</text><path class="st9" d="M774.4 705.6c0-1.4 1.2-2.6 2.6-2.6 1.4 0 2.6 1.2 2.6 2.6 0 1.4-1.2 2.6-2.6 2.6-1.4 0-2.6-1.1-2.6-2.6zM759.2 703.9c0-1.4 1.2-2.6 2.6-2.6 1.4 0 2.6 1.2 2.6 2.6 0 1.4-1.2 2.6-2.6 2.6-1.5.1-2.6-1.1-2.6-2.6zM767.9 695.2c0-1.4 1.2-2.6 2.6-2.6 1.4 0 2.6 1.2 2.6 2.6 0 1.4-1.2 2.6-2.6 2.6-1.5 0-2.6-1.2-2.6-2.6zM754.7 689.6c0-1.4 1.2-2.6 2.6-2.6s2.6 1.2 2.6 2.6c0 1.4-1.2 2.6-2.6 2.6s-2.6-1.2-2.6-2.6zM767 683.5c0-1.4 1.2-2.6 2.6-2.6s2.6 1.2 2.6 2.6c0 1.4-1.2 2.6-2.6 2.6s-2.6-1.2-2.6-2.6zM768.8 669.4c0-1.4 1.2-2.6 2.6-2.6 1.4 0 2.6 1.2 2.6 2.6 0 1.4-1.2 2.6-2.6 2.6-1.4.1-2.6-1.1-2.6-2.6zM757.3 677.1c0-1.4 1.2-2.6 2.6-2.6 1.4 0 2.6 1.2 2.6 2.6 0 1.4-1.2 2.6-2.6 2.6-1.4 0-2.6-1.2-2.6-2.6zM778.3 678.3c0-1.4 1.2-2.6 2.6-2.6 1.4 0 2.6 1.2 2.6 2.6 0 1.4-1.2 2.6-2.6 2.6-1.4 0-2.6-1.2-2.6-2.6zM780.9 693.6c0-1.4 1.2-2.6 2.6-2.6 1.4 0 2.6 1.2 2.6 2.6 0 1.4-1.2 2.6-2.6 2.6-1.4 0-2.6-1.2-2.6-2.6zM676.7 676.4c-.1 1.4-1.4 2.5-2.8 2.4-1.4-.1-2.5-1.4-2.4-2.8.1-1.4 1.4-2.5 2.8-2.4 1.4.1 2.5 1.4 2.4 2.8zM668.6 673.1c-.1 1.4-1.4 2.5-2.8 2.4-1.4-.1-2.5-1.4-2.4-2.8.1-1.4 1.4-2.5 2.8-2.4 1.4.2 2.5 1.4 2.4 2.8zM676.9 684.9c-.1 1.4-1.4 2.5-2.8 2.4-1.4-.1-2.5-1.4-2.4-2.8.1-1.4 1.4-2.5 2.8-2.4 1.4.1 2.5 1.4 2.4 2.8zM668.5 689c-.1 1.4-1.4 2.5-2.8 2.4-1.4-.1-2.5-1.4-2.4-2.8.1-1.4 1.4-2.5 2.8-2.4 1.4.1 2.5 1.3 2.4 2.8zM677.1 704c-.1 1.4-1.4 2.5-2.8 2.4-1.4-.1-2.5-1.4-2.4-2.8.1-1.4 1.4-2.5 2.8-2.4 1.4.1 2.5 1.4 2.4 2.8zM661 702.7c-.1 1.4-1.4 2.5-2.8 2.4-1.4-.1-2.5-1.4-2.4-2.8.1-1.4 1.4-2.5 2.8-2.4 1.4.1 2.5 1.4 2.4 2.8zM668.4 707.9c-.1 1.4-1.4 2.5-2.8 2.4-1.4-.1-2.5-1.4-2.4-2.8.1-1.4 1.4-2.5 2.8-2.4 1.4.1 2.5 1.4 2.4 2.8zM660.4 676.8c-.1 1.4-1.4 2.5-2.8 2.4-1.4-.1-2.5-1.4-2.4-2.8.1-1.4 1.4-2.5 2.8-2.4 1.5.1 2.5 1.3 2.4 2.8zM660.7 693.6c-.1 1.4-1.4 2.5-2.8 2.4-1.4-.1-2.5-1.4-2.4-2.8.1-1.4 1.4-2.5 2.8-2.4 1.4.1 2.5 1.3 2.4 2.8z"/><g><g><path class="st10" d="M689.6 696.5h47.5"/><g><path d="M743.2 696.5c-2.8 1.1-6.4 2.9-8.5 4.8l1.7-4.8-1.7-4.8c2.1 1.9 5.6 3.7 8.5 4.8z"/></g></g></g><g><g><path class="st10" d="M695.6 684.9h47.6"/><g><path d="M689.6 684.9c2.8 1.1 6.4 2.9 8.5 4.8l-1.7-4.8 1.7-4.8c-2.2 1.9-5.7 3.7-8.5 4.8z"/></g></g></g><g><path class="st11" d="M534.8 726.3c0 2-1.6 3.6-3.6 3.6H3.6c-2 0-3.6-1.6-3.6-3.6V279.6c0-2 1.6-3.6 3.6-3.6h527.6c2 0 3.6 1.6 3.6 3.6v446.7z"/></g><g><path d="M308.2 379.4c3.5 2.5 6.5 5.3 9 8.2 22.8 26.3 9.4 67.2-11.9 91.6-2.2 2.3-4.6 4.4-7.1 6.1-5.8 4.1-12.3 6.6-19.3 7.9-3.5.7-7.1 1-10.7 1-10.4-4.1-20.3-8.5-30.1-12-3.3-1.2-6.5-2.3-9.7-3.2-24.6-6.2-44.2 8.1-69 8.8-26.1-1.4-42.9-25.1-35.1-51 1.1-3.7 2.4-7.2 3.9-10.6 6.1-13.6 15.2-25.3 22.7-37.5 1.4-2.2 2.7-4.4 3.8-6.5 1.8-3.5 3.5-7 5.3-10.4 1.8-3.5 3.6-6.9 5.4-10.3 1.8-3.4 3.6-6.7 5.5-10 11.8-24.7 36.7-40 61.1-40.5 3.5-.1 7 .2 10.4.7 3.8.4 7.3 1.3 10.4 2.5 2.6 1.4 5 3.1 7.1 4.9 2.1 1.8 4.1 3.8 5.8 5.9 14.2 15.8 14.9 40.7 36.3 49.9 2.1 1.5 4.2 3 6.2 4.5z" fill="#d1d3d4"/><path class="st13" d="M267.7 496.6l-.4-.2c-3.7-1.5-7.4-3-11-4.5-6.6-2.7-12.8-5.3-19.1-7.6-3.5-1.3-6.7-2.3-9.5-3.1-3.9-1-7.9-1.5-12-1.5-9.3 0-18 2.4-27.2 4.9-9.1 2.5-18.6 5.1-29 5.4-13.3-.7-25-7-32.2-17.2-7.3-10.4-9.3-23.9-5.3-37 1-3.6 2.3-7.2 4-10.9 4.2-9.5 9.9-18.1 15.5-26.4 2.5-3.7 5-7.6 7.4-11.4 1.3-2.2 2.6-4.3 3.8-6.4 1.7-3.4 3.5-6.9 5.2-10.4 1.8-3.5 3.6-6.9 5.4-10.3 1.8-3.4 3.7-6.8 5.5-10.1 11.7-24.4 37.1-41.2 63.2-41.7 3.6-.1 7.3.2 10.9.7 3.9.5 7.6 1.3 10.9 2.6l.3.1c2.7 1.5 5.2 3.2 7.5 5.2 2.1 1.8 4.1 3.9 6.1 6.2 5.7 6.3 9.3 14.1 12.8 21.6 5.3 11.5 10.4 22.3 22.6 27.6l.5.3c1.8 1.3 3.5 2.6 5.3 3.9l.9.7c3.5 2.6 6.7 5.4 9.4 8.5 22.9 26.4 11 68.5-11.9 94.7-2.4 2.5-4.9 4.6-7.5 6.5-5.8 4.1-12.7 6.9-20.2 8.3-3.6.7-7.4 1-11.1 1.1l-.8.4zm-52-21.6c4.6 0 8.9.5 13.3 1.6 3.1.9 6.3 1.9 9.9 3.2 6.3 2.3 12.6 4.9 19.3 7.6 3.4 1.4 6.9 2.9 10.5 4.3 3.3-.1 6.6-.4 9.8-1 6.9-1.3 13.1-3.8 18.4-7.5 2.4-1.7 4.7-3.6 6.7-5.8 21.5-24.6 32.9-64 11.8-88.3-2.5-2.8-5.3-5.4-8.6-7.8l-.9-.7c-1.7-1.2-3.4-2.5-5.1-3.8-13.7-6-19.4-18.2-24.8-29.9-3.3-7.2-6.8-14.6-12.1-20.5-1.8-2.2-3.7-4.1-5.6-5.7-2-1.7-4.2-3.3-6.6-4.6-2.9-1.1-6.1-1.9-9.6-2.3-3.4-.5-6.7-.8-10.1-.7-24.3.5-48 16.2-59 39.1-1.9 3.4-3.8 6.7-5.6 10.1l-5.4 10.2c-1.8 3.5-3.5 6.9-5.3 10.4-1.3 2.2-2.6 4.4-4 6.7-2.4 3.9-5 7.8-7.5 11.6-5.4 8.2-11 16.6-15.1 25.7-1.6 3.5-2.8 6.9-3.8 10.3-3.5 11.7-1.8 23.7 4.7 32.8 6.3 9 16.6 14.5 28.3 15.1 9.6-.3 18.8-2.8 27.7-5.2 9.3-2.3 18.8-4.9 28.7-4.9z"/></g><g><path class="st0" d="M256.7 380.2c-5.3 6.6-15 7.7-21.6 2.4-6.6-5.3-7.7-15-2.4-21.6 5.3-6.6 15-7.7 21.6-2.4 6.6 5.2 7.7 14.9 2.4 21.6z"/><path d="M256.7 380.2c-5.3 6.6-15 7.7-21.6 2.4-6.6-5.3-7.7-15-2.4-21.6 5.3-6.6 15-7.7 21.6-2.4 6.6 5.2 7.7 14.9 2.4 21.6z" fill="none" stroke="#000" stroke-miterlimit="10" stroke-dasharray="2.0138,2.0138"/></g><g><path class="st0" d="M271.7 454.4c-6.3 7.9-17.9 9.2-25.9 2.9-7.9-6.3-9.2-17.9-2.9-25.9 6.3-7.9 17.9-9.2 25.9-2.9 8 6.4 9.3 18 2.9 25.9z"/><path d="M271.7 454.4c-6.3 7.9-17.9 9.2-25.9 2.9-7.9-6.3-9.2-17.9-2.9-25.9 6.3-7.9 17.9-9.2 25.9-2.9 8 6.4 9.3 18 2.9 25.9z" fill="none" stroke="#000" stroke-miterlimit="10" stroke-dasharray="1.993,1.993"/></g><g><path class="st0" d="M212.1 412.9c-8 10-22.6 11.7-32.6 3.7-10-8-11.7-22.6-3.7-32.6 8-10 22.6-11.7 32.6-3.7 10 7.9 11.7 22.5 3.7 32.6z"/><path d="M212.1 412.9c-8 10-22.6 11.7-32.6 3.7-10-8-11.7-22.6-3.7-32.6 8-10 22.6-11.7 32.6-3.7 10 7.9 11.7 22.5 3.7 32.6z" fill="none" stroke="#000" stroke-miterlimit="10" stroke-dasharray="2.0266,2.0266"/></g><g><path d="M375.8 617.7c4-1.6 7.9-4.5 11.2-8.2.6-.6 1.2-1.1 1.8-1.6 1.3-1 2.7-1.7 4.5-2.1 6.9-.4 10.7 2 13.3 5.8.6.9 1.2 2 1.7 3.1.2 4.7.8 8.7 1.9 12.1.4 1.2.8 2.2 1.3 3.3.5 1 1.1 1.9 1.7 2.8 4.4 9 19.8 9.4 14.6 22.5-6.7 11.1-20.8.6-28.8 5.7-.9.6-1.7 1.2-2.6 1.9-1 .8-2 1.7-2.9 2.6-.9.9-1.7 1.6-2.5 2.3-1.2 1-2.2 1.8-3.2 2.6s-2 1.6-3.1 2.5c-3.6 2.1-6.9 2.9-9.8 2.8-1-.1-1.9-.2-2.8-.5-2.5-.9-4.4-2.2-6-3.8-1.5-1.6-2.6-3.5-3.5-5.5-1.8-11.2-9.1-20.8-15.3-27.2-1.3-1.7-2.2-3.3-2.5-5.1-1-5.3 1.3-9.3 5.2-12.2 1-.7 2.1-1.4 3.2-1.9 5.9-2.9 12.7-2 19.5-1.5 1.1-.1 2.2-.3 3.1-.4z" fill="#939598"/><path class="st13" d="M375.6 678.2h-.9c-1.1-.1-2.2-.3-3.3-.6-2.9-1.1-5.1-2.5-7-4.5-1.6-1.7-2.9-3.7-4-6.2l-.2-.6c-1.7-10.6-9-20-14.7-25.9l-.2-.2c-1.7-2.2-2.6-4.1-3-6.1-1.1-5.8 1-10.8 6.2-14.6 1.1-.8 2.3-1.5 3.6-2.1 3.2-1.5 6.8-2.3 11.3-2.3 2.4 0 4.8.2 7.2.4l2 .1c.9-.1 1.7-.2 2.5-.3 3.5-1.4 6.9-4 10.1-7.5.8-.8 1.5-1.4 2.1-1.9 1.7-1.3 3.5-2.1 5.5-2.5h.3c.6 0 1.1-.1 1.7-.1 6.1 0 10.6 2.3 13.8 6.9.7 1 1.3 2.2 1.9 3.4l.2.4v.5c.2 4.5.7 8.2 1.8 11.5.3 1.1.7 2.1 1.2 3 .3.7.8 1.5 1.4 2.3l.3.4c1.4 2.8 4.2 4.7 7.2 6.7 5.1 3.5 11.5 7.8 7.5 17.7l-.2.3c-2.6 4.4-6.7 6.5-12.3 6.5-2.2 0-4.5-.3-6.7-.6-2.1-.3-4-.5-5.8-.5-2.1 0-3.6.4-4.8 1.1-.8.5-1.5 1.1-2.4 1.7-.9.7-1.8 1.5-2.8 2.5-1 .9-1.8 1.7-2.6 2.4-1.2 1-2.2 1.9-3.3 2.7-1 .8-2 1.6-3.2 2.5l-.3.2c-3.3 2.2-6.8 3.3-10.1 3.3zm-10.7-13c.8 1.9 1.8 3.4 2.9 4.6 1.4 1.4 3 2.5 5 3.2.6.2 1.3.3 2.1.3 2.6.1 5.4-.7 8.4-2.4 1.1-.8 2-1.6 3-2.3 1-.8 2-1.6 3.1-2.6.7-.6 1.5-1.4 2.4-2.2 1.1-1 2.1-1.9 3.1-2.7 1-.8 1.9-1.4 2.8-2 2-1.3 4.4-1.9 7.4-1.9 2.1 0 4.3.3 6.5.6 2.1.3 4.1.6 6 .6 3.9 0 6.3-1.2 8-4 2.3-5.9-.3-8-5.8-11.7-3.2-2.1-6.7-4.5-8.7-8.4-.8-1-1.4-2-1.8-3-.5-1.1-1-2.3-1.4-3.6-1.2-3.6-1.8-7.6-2-12.3-.4-.8-.8-1.6-1.3-2.3-2.5-3.6-5.7-5-11-4.8-1.2.2-2.2.7-3.3 1.6-.6.4-1.1.9-1.6 1.4-3.6 4-7.8 7-12 8.7l-.5.1c-1 .2-2.2.3-3.4.4h-.2l-2.4-.2c-2.4-.2-4.6-.4-6.8-.4-3.8 0-6.7.6-9.2 1.8-1.1.5-2 1.1-2.9 1.7-3.6 2.6-5 5.8-4.3 9.8.2 1.2.9 2.5 2 4 6.3 6.3 13.9 16.3 15.9 28z"/></g><text transform="translate(328.525 702.811)" class="st3 st4 st18">Lysosome</text><text transform="translate(435.002 565.737)" class="st8 st6 st18">Fusion</text><text transform="translate(185.081 530.431)" class="st8 st6 st19">Regeneration</text><text transform="translate(324.249 542.314)"><tspan x="0" y="0" class="st8 st6 st19">Lysosome</tspan><tspan x="18" y="20.3" class="st8 st6 st19">cycle</tspan></text><text transform="translate(27.688 315.878)" class="st3 st4 st18">Endolysosome</text><g><g><path class="st20" d="M339.3 598.2l-13.4-9.9"/><g><path d="M346.6 603.7c-2.5-3.8-5.1-9.1-6-13.4l-2.2 7.3-6.3 4.2c4.2-.4 10.1.6 14.5 1.9z"/></g></g></g><path class="st20" d="M326.6 588.8c-22.1-16.5-34.5-55.7-27.7-87.7"/><g><path class="st20" d="M389.2 495.6c32.8 26.2 43 68 22.7 93.4"/><g><g><path class="st20" d="M353.6 467.3l36.6 29.2"/><g><path d="M346.5 461.6c2.3 3.9 4.8 9.3 5.6 13.6l2.4-7.2 6.5-4c-4.3.2-10.2-1-14.5-2.4z"/></g></g></g><path class="st20" d="M390.2 496.5c48.5 38.7 102.8 51.2 121.4 27.8"/></g><g><path class="st21" d="M166.6 465.1c0 5.1-4.1 9.2-9.2 9.2s-9.2-4.1-9.2-9.2 4.1-9.2 9.2-9.2c5.1.1 9.2 4.2 9.2 9.2z"/><path d="M166.6 465.1c0 5.1-4.1 9.2-9.2 9.2s-9.2-4.1-9.2-9.2 4.1-9.2 9.2-9.2 9.2 4.2 9.2 9.2z" fill="none" stroke="#000" stroke-width=".5" stroke-miterlimit="10" stroke-dasharray="2.0566,2.0566"/></g><g><path class="st21" d="M181 435.1c0 5.1-4.1 9.2-9.2 9.2s-9.2-4.1-9.2-9.2 4.1-9.2 9.2-9.2 9.2 4.1 9.2 9.2z"/><path d="M181 435.1c0 5.1-4.1 9.2-9.2 9.2s-9.2-4.1-9.2-9.2 4.1-9.2 9.2-9.2 9.2 4.1 9.2 9.2z" fill="none" stroke="#000" stroke-width=".5" stroke-miterlimit="10" stroke-dasharray="2.0567,2.0567"/></g><g><path class="st0" d="M504.8 471.5c2 0 3.6 1.6 3.6 3.6v24.5c0 2-1.6 3.6-3.6 3.6H429c-2 0-3.6-1.6-3.6-3.6v-24.5c0-2 1.6-3.6 3.6-3.6h75.8z"/><path class="st24" d="M504.8 471.5c2 0 3.6 1.6 3.6 3.6v24.5c0 2-1.6 3.6-3.6 3.6H429c-2 0-3.6-1.6-3.6-3.6v-24.5c0-2 1.6-3.6 3.6-3.6h75.8z"/></g><text transform="translate(434.103 495.727)" class="st3 st4 st18">HOPS</text><g><path class="st0" d="M267.4 709.8c0 2-1.6 3.6-3.6 3.6H44.4c-2 0-3.6-1.6-3.6-3.6V564c0-2 1.6-3.6 3.6-3.6h219.4c2 0 3.6 1.6 3.6 3.6v145.8z"/><path d="M267.4 709.8c0 2-1.6 3.6-3.6 3.6H44.4c-2 0-3.6-1.6-3.6-3.6V564c0-2 1.6-3.6 3.6-3.6h219.4c2 0 3.6 1.6 3.6 3.6v145.8z" fill="none" stroke="#a7a9ac" stroke-width=".5" stroke-miterlimit="10" stroke-dasharray="3,3"/></g><path d="M76.1 624.6c-.9 3.4-4.3 5.4-7.7 4.5-3.4-.9-5.4-4.3-4.5-7.7.9-3.4 4.3-5.4 7.7-4.5 3.3.9 5.3 4.3 4.5 7.7z" fill="#fff" stroke="#000" stroke-width=".75" stroke-miterlimit="10"/><text transform="translate(90.026 580.837)" class="st8 st6 st27">Free amino acids</text><text transform="translate(88.354 605.2)" class="st8 st6 st27">Nutrient transporter</text><text transform="translate(89.066 629.557)" class="st8 st6 st27">Protein</text><text transform="translate(89.845 653.918)" class="st8 st6 st27">Receptor + cargo</text><text transform="translate(89.084 678.276)" class="st8 st6 st27">Lipid transfer protein</text><text transform="translate(89.73 702.64)" class="st8 st6 st27">Contact site protein</text><path class="st28" d="M60 592.4h20v13H60z"/><path transform="matrix(.00814 -1 1 .00814 -604.116 738.017)" class="st29" d="M64.6 664.6h10.7v17.9H64.6z"/><path class="st30" d="M77.4 648.2c0 4.1-3.3 7.4-7.4 7.4-4.1 0-7.4-3.3-7.4-7.4 0-4.1 3.3-7.4 7.4-7.4 4.1 0 7.4 3.3 7.4 7.4z"/><path d="M77.8 573.4c0 1.3-1 2.3-2.3 2.3-1.3 0-2.3-1-2.3-2.3 0-1.3 1-2.3 2.3-2.3 1.3 0 2.3 1.1 2.3 2.3z" fill="#ed1c24" stroke="#ed1c24" stroke-width="2" stroke-miterlimit="10"/><path d="M65.5 573.4c0 1.3-1 2.3-2.3 2.3-1.3 0-2.3-1-2.3-2.3 0-1.3 1-2.3 2.3-2.3 1.3 0 2.3 1.1 2.3 2.3z" fill="#00a651" stroke="#00a651" stroke-width="2" stroke-miterlimit="10"/><path class="st33" d="M46 648.2h15.9M65.4 654.7c-3.6-3.6-3.6-9.5 0-13.1"/><g><path class="st34" d="M61.1 694.1h17.7M61.1 697.5h17.7M61.1 700.7h17.7"/></g><text transform="translate(275.293 246.847)"><tspan x="0" y="0" class="st3 st4 st35">Lysosome-derived</tspan><tspan x="39.5" y="23.2" class="st3 st4 st35">nutrients</tspan></text><g><g><path class="st34" d="M407.1 265.4h151.4v25.2"/><g><path class="st36" d="M558.5 296.6c-1.1-2.8-2.9-6.4-4.8-8.5l4.8 1.7 4.8-1.7c-1.9 2.1-3.7 5.7-4.8 8.5z"/></g></g></g><g><g><path class="st34" d="M323.3 346.9l-45.4 45.4"/><g><path class="st36" d="M327.6 342.7c-2.8 1.3-6.5 2.5-9.4 2.7l4.6 2.1 2.1 4.6c.2-2.9 1.4-6.7 2.7-9.4z"/></g></g></g><path class="st37" d="M273.3 398.4c0 1.4-1.1 2.5-2.5 2.5s-2.5-1.1-2.5-2.5 1.1-2.5 2.5-2.5 2.5 1.1 2.5 2.5zM342.9 338.4c0 1.4-1.1 2.5-2.5 2.5s-2.5-1.1-2.5-2.5 1.1-2.5 2.5-2.5 2.5 1.1 2.5 2.5zM376.2 329.8c0 1.4-1.1 2.5-2.5 2.5s-2.5-1.1-2.5-2.5 1.1-2.5 2.5-2.5 2.5 1.1 2.5 2.5zM389.4 345.5c0 1.4-1.1 2.5-2.5 2.5s-2.5-1.1-2.5-2.5 1.1-2.5 2.5-2.5 2.5 1.1 2.5 2.5zM340.4 310.9c0 1.4-1.1 2.5-2.5 2.5s-2.5-1.1-2.5-2.5 1.1-2.5 2.5-2.5c1.3 0 2.5 1.1 2.5 2.5zM340.6 288.7c0 1.4-1.1 2.5-2.5 2.5s-2.5-1.1-2.5-2.5 1.1-2.5 2.5-2.5 2.5 1.1 2.5 2.5z"/><path class="st9" d="M321.9 323c0 1.4-1.1 2.5-2.5 2.5s-2.5-1.1-2.5-2.5 1.1-2.5 2.5-2.5 2.5 1.1 2.5 2.5z"/><path class="st37" d="M353.6 323c0 1.4-1.1 2.5-2.5 2.5s-2.5-1.1-2.5-2.5 1.1-2.5 2.5-2.5 2.5 1.1 2.5 2.5z"/><path class="st9" d="M379 313.5c0 1.4-1.1 2.5-2.5 2.5s-2.5-1.1-2.5-2.5 1.1-2.5 2.5-2.5 2.5 1.1 2.5 2.5zM397.5 328.1c0 1.4-1.1 2.5-2.5 2.5s-2.5-1.1-2.5-2.5 1.1-2.5 2.5-2.5 2.5 1.1 2.5 2.5zM368.7 343.2c0 1.4-1.1 2.5-2.5 2.5s-2.5-1.1-2.5-2.5 1.1-2.5 2.5-2.5 2.5 1.1 2.5 2.5z"/><path class="st37" d="M397.5 310.9c0 1.4-1.1 2.5-2.5 2.5s-2.5-1.1-2.5-2.5 1.1-2.5 2.5-2.5 2.5 1.1 2.5 2.5zM381.5 296.6c0 1.4-1.1 2.5-2.5 2.5s-2.5-1.1-2.5-2.5 1.1-2.5 2.5-2.5 2.5 1.1 2.5 2.5z"/><path class="st9" d="M359.6 303.3c0 1.4-1.1 2.5-2.5 2.5s-2.5-1.1-2.5-2.5 1.1-2.5 2.5-2.5c1.3 0 2.5 1.1 2.5 2.5z"/><path class="st37" d="M362.1 284.7c0 1.4-1.1 2.5-2.5 2.5s-2.5-1.1-2.5-2.5 1.1-2.5 2.5-2.5 2.5 1.1 2.5 2.5zM256.1 468.3c0 1.4-1.1 2.5-2.5 2.5s-2.5-1.1-2.5-2.5 1.1-2.5 2.5-2.5 2.5 1.1 2.5 2.5z"/><path class="st9" d="M254.5 397.4c0 1.4-1.1 2.5-2.5 2.5s-2.5-1.1-2.5-2.5 1.1-2.5 2.5-2.5 2.5 1.1 2.5 2.5zM221 361.1c0 1.4-1.1 2.5-2.5 2.5s-2.5-1.1-2.5-2.5 1.1-2.5 2.5-2.5 2.5 1.1 2.5 2.5z"/><path class="st37" d="M229.2 411.9c0 1.4-1.1 2.5-2.5 2.5s-2.5-1.1-2.5-2.5 1.1-2.5 2.5-2.5 2.5 1.1 2.5 2.5zM215.9 427c0 1.4-1.1 2.5-2.5 2.5s-2.5-1.1-2.5-2.5 1.1-2.5 2.5-2.5c1.4-.1 2.5 1.1 2.5 2.5z"/><path class="st9" d="M228.2 441.8c0 1.4-1.1 2.5-2.5 2.5s-2.5-1.1-2.5-2.5 1.1-2.5 2.5-2.5 2.5 1.1 2.5 2.5z"/><path class="st37" d="M234.1 457.1c0 1.4-1.1 2.5-2.5 2.5s-2.5-1.1-2.5-2.5 1.1-2.5 2.5-2.5 2.5 1.1 2.5 2.5zM252 418.5c0 1.4-1.1 2.5-2.5 2.5s-2.5-1.1-2.5-2.5 1.1-2.5 2.5-2.5c1.3 0 2.5 1.1 2.5 2.5z"/><circle class="st37" cx="280.5" cy="424.4" r="2.5"/><path class="st9" d="M281.6 461.6c0 1.4-1.1 2.5-2.5 2.5s-2.5-1.1-2.5-2.5 1.1-2.5 2.5-2.5 2.5 1.1 2.5 2.5z"/><path class="st37" d="M269.5 414.4c0 1.4-1.1 2.5-2.5 2.5s-2.5-1.1-2.5-2.5 1.1-2.5 2.5-2.5 2.5 1.1 2.5 2.5zM234.1 424.2c0 1.4-1.1 2.5-2.5 2.5s-2.5-1.1-2.5-2.5 1.1-2.5 2.5-2.5 2.5 1.1 2.5 2.5z"/><path class="st9" d="M231.8 395.5c0 1.4-1.1 2.5-2.5 2.5s-2.5-1.1-2.5-2.5 1.1-2.5 2.5-2.5 2.5 1.1 2.5 2.5z"/><path class="st37" d="M221 376.7c0 1.4-1.1 2.5-2.5 2.5s-2.5-1.1-2.5-2.5 1.1-2.5 2.5-2.5 2.5 1.1 2.5 2.5z"/><path class="st21" d="M329.9 355.8h28.7v37.4h-28.7z"/><path class="st38" d="M403.1 414.7c0 7.6-12.1 13.7-27.1 13.7-15 0-27.1-6.1-27.1-13.7S361 401 376 401c15 0 27.1 6.1 27.1 13.7z"/><text transform="translate(352.947 420.247)" class="st3 st4 st39">mTOR</text><g><g><path class="st34" d="M384.5 357.6v34.1"/><g><path class="st36" d="M384.5 397.7c-1.1-2.8-2.9-6.4-4.8-8.5l4.8 1.7 4.8-1.7c-2 2.1-3.8 5.7-4.8 8.5z"/></g></g></g><g><g><path class="st34" d="M368.7 357.6v34.1"/><g><path class="st36" d="M368.7 397.7c-1.1-2.8-2.9-6.4-4.8-8.5l4.8 1.7 4.8-1.7c-2 2.1-3.8 5.7-4.8 8.5z"/></g></g></g><text transform="translate(336.381 387.593)" class="st3 st4" font-size="37.442">?</text><path transform="rotate(-44.992 299.646 370.569)" class="st28" d="M284.7 360.8h30v19.6h-30z"/><path class="st41" d="M103.2 430.5l4.6-7M88.5 432.1l8.4.9M118.9 429.5l7.3-4"/><text transform="translate(19.017 507.391)"><tspan x="0" y="0" class="st3 st4 st35">Organelle</tspan><tspan x="5.8" y="23.2" class="st3 st4 st35">contacts</tspan></text><path class="st30" d="M152.3 420.3c0 1.4-1.1 2.5-2.5 2.5s-2.5-1.1-2.5-2.5 1.1-2.5 2.5-2.5 2.5 1.1 2.5 2.5zM146 451.2c0 1.4-1.1 2.5-2.5 2.5s-2.5-1.1-2.5-2.5 1.1-2.5 2.5-2.5 2.5 1.1 2.5 2.5zM82.3 422.3c0 1.4-1.1 2.5-2.5 2.5s-2.5-1.1-2.5-2.5 1.1-2.5 2.5-2.5 2.5 1.1 2.5 2.5zM76 437.6c0 1.4-1.1 2.5-2.5 2.5S71 439 71 437.6s1.1-2.5 2.5-2.5 2.5 1.1 2.5 2.5zM84.5 446.1c0 1.4-1.1 2.5-2.5 2.5s-2.5-1.1-2.5-2.5 1.1-2.5 2.5-2.5 2.5 1.1 2.5 2.5zM160 445.5c0 1.4-1.1 2.5-2.5 2.5s-2.5-1.1-2.5-2.5 1.1-2.5 2.5-2.5 2.5 1.1 2.5 2.5zM157.9 431.5c0 1.4-1.1 2.5-2.5 2.5s-2.5-1.1-2.5-2.5 1.1-2.5 2.5-2.5 2.5 1.1 2.5 2.5zM145.1 438.2c0 1.4-1.1 2.5-2.5 2.5s-2.5-1.1-2.5-2.5 1.1-2.5 2.5-2.5 2.5 1.1 2.5 2.5zM111.1 422.3c0 1.4-1.1 2.5-2.5 2.5s-2.5-1.1-2.5-2.5 1.1-2.5 2.5-2.5 2.5 1.1 2.5 2.5zM89.5 431.5c0 1.4-1.1 2.5-2.5 2.5s-2.5-1.1-2.5-2.5 1.1-2.5 2.5-2.5 2.5 1.1 2.5 2.5zM118.8 429.6c.2 1.4-.7 2.7-2.1 2.9-1.4.2-2.7-.7-2.9-2.1-.2-1.4.7-2.7 2.1-2.9 1.4-.2 2.7.7 2.9 2.1z"/><g><path class="st21" d="M102.2 479.5l-4.6-1.4c11.1-36.5-7.7-74.7-41.9-85.1l1.4-4.6c36.7 11.2 56.9 52.1 45.1 91.1z"/></g><g><path class="st42" d="M97.5 478.2c11.1-36.5-7.7-74.7-41.9-85.1M57 388.5c36.8 11.2 57 52.1 45.1 91.1"/></g><path transform="rotate(-20.593 98.603 430.836)" class="st29" d="M93.3 421H104v19.6H93.3z"/><path class="st34" d="M105.5 449.9h14.7M105.5 453.6h14.7M105.5 457.1h15.2"/><path class="st41" d="M131 431l7.3-4"/><path transform="rotate(-72.002 128.565 428.437)" class="st29" d="M118.8 423.1h19.6v10.7h-19.6z"/><path class="st30" d="M143.4 425.9c0 1.4-1.1 2.5-2.5 2.5s-2.5-1.1-2.5-2.5 1.1-2.5 2.5-2.5 2.5 1.1 2.5 2.5z"/><g><path class="st11" d="M900 614.8c0 2-1.6 3.6-3.6 3.6H544.6c-2 0-3.6-1.6-3.6-3.6V304.3c0-2 1.6-3.6 3.6-3.6h351.8c2 0 3.6 1.6 3.6 3.6v310.5z"/></g><text transform="translate(740.145 553.766)"><tspan x="0" y="0" class="st3 st4 st18">Late</tspan><tspan x="-32.1" y="29" class="st3 st4 st18">endosome</tspan></text><text transform="translate(804.61 383.997)" class="st8 st6 st18">Recycle</text><g><path class="st0" d="M585.8 579.5c-47.1-18.6-70.2-71.9-51.6-119 .9-2.2 1.8-4.4 2.9-6.5 9.6-21.3 25.2-41.1 45.2-54.2 2.5-1.6 5-3.2 7.6-4.5 2.6-1.4 5.4-2.6 8.3-3.6 2.3-1 4.7-1.8 7-2.5 2.4-.7 4.8-1.2 7.2-1.5 3-.7 6-.9 8.9-.8 2.9.1 5.8.5 8.6 1.2 2.5.7 5 1.6 7.4 2.7 2.5 1.1 4.9 2.4 7.3 3.8 16.8 10.6 37 31.6 61.8 17.8 1.7-.7 3.4-1.5 5.1-2.4 1.6-.9 3.3-2 4.9-3.1 16.7-12.3 30.5-40.6 54.6-29.3 1.9 1.4 3.8 3.2 5.6 5.5 1.4 3.1 2.2 6 2.3 9 .1 3-.4 6-1.7 9.4-.9 2.2-1.9 4.3-3 6.2-1.1 1.9-2.4 3.6-3.8 5.3-1.4 1.7-2.9 3.4-4.5 4.9-25.8 18.3-62.9 40-56.7 78l-.3 8.4c-.4 8.3-1.3 16.4-3.9 23.6-1.2 2.9-2.5 5.8-3.9 8.5-21.6 41.3-71.2 60.5-115.3 43.1z"/><path class="st13" d="M619.4 588.3c-11.8 0-23.4-2.2-34.5-6.6-23.4-9.2-41.8-27-51.8-50.1s-10.4-48.6-1.2-72c.9-2.3 1.9-4.5 2.9-6.7 10.3-22.9 26.6-42.5 46-55.2 2.6-1.7 5.2-3.3 7.9-4.6 2.8-1.4 5.7-2.7 8.6-3.7 2.3-1 4.8-1.8 7.2-2.5 2.5-.7 5-1.2 7.5-1.6 2.9-.6 6.1-.9 9.3-.8 3 .1 6 .5 9.1 1.3 2.6.7 5.1 1.6 7.9 2.9 2.3 1.1 4.8 2.3 7.5 3.9 3 1.9 6 4 9.2 6.3 10.3 7.4 22.1 15.7 34.8 15.7 5.3 0 10.3-1.4 15.4-4.2l.3-.1c1.6-.7 3.2-1.4 4.8-2.3 1.5-.9 3.1-1.9 4.6-3 4.4-3.2 8.6-7.6 13-12.3 9.4-9.9 19.1-20.1 32-20.1 3.9 0 7.9 1 11.9 2.9l.4.2c2.2 1.6 4.2 3.6 6.1 6l.3.5c1.6 3.6 2.3 6.7 2.5 9.9.1 3.3-.5 6.7-1.9 10.3-.9 2.3-2 4.5-3.2 6.5-1.2 1.9-2.5 3.8-4 5.6-1.3 1.7-2.9 3.4-4.6 5.1l-.3.2c-2.3 1.6-4.7 3.3-7.1 5-25.3 17.6-54 37.5-48.6 70.7v.4l-.3 8.4c-.4 7.5-1.2 16.3-4 24.3-1.2 3.1-2.6 6-4 8.8-16.3 31.5-48.3 50.9-83.7 50.9zm.6-199c-2.4 0-4.8.3-7.2.8-2.5.4-4.8.8-7 1.5-2.2.6-4.5 1.4-6.8 2.4-2.8 1-5.5 2.2-8.1 3.5-2.5 1.3-5 2.7-7.4 4.4-18.6 12.2-34.3 31.1-44.3 53.2-1 2.1-2 4.2-2.8 6.4-8.8 22.2-8.4 46.5 1.1 68.3 9.5 21.9 26.9 38.8 49.1 47.5 10.5 4.2 21.6 6.3 32.8 6.3 33.5 0 63.9-18.5 79.3-48.2 1.4-2.7 2.7-5.5 3.8-8.3 2.6-7.3 3.3-15.6 3.7-22.8l.3-8.1c-5.7-36 25.5-57.7 50.6-75.2 2.4-1.6 4.7-3.3 6.9-4.8 1.5-1.5 2.9-3 4.1-4.5 1.4-1.7 2.6-3.3 3.6-5 1.1-1.9 2.1-3.8 2.9-5.8 1.2-3 1.7-5.7 1.6-8.4-.1-2.5-.7-5-2-7.9-1.5-1.9-3.1-3.5-4.7-4.7-3.4-1.6-6.5-2.3-9.7-2.3-10.9 0-19.8 9.4-28.5 18.6-4.4 4.6-8.9 9.4-13.7 12.9-1.7 1.2-3.4 2.3-5.1 3.3-1.7.9-3.4 1.8-5.2 2.5-5.7 3.2-11.7 4.7-17.6 4.7-14.3 0-26.7-8.8-37.6-16.6-3.1-2.2-6-4.3-8.9-6.1-2.5-1.4-4.8-2.6-7-3.6-2.5-1.1-4.8-2-7.1-2.6-2.7-.7-5.4-1.1-8-1.1-.4-.3-.8-.3-1.1-.3z"/></g><path class="st43" d="M655.8 513.9c-7.9-3.1-11.8-12.1-8.7-20 3.1-7.9 12.1-11.8 20-8.7 7.9 3.1 11.8 12.1 8.7 20-3.2 7.9-12.1 11.8-20 8.7zM590.6 545.3c-9.5-3.7-14.1-14.4-10.4-23.9 3.7-9.5 14.4-14.1 23.9-10.4 9.5 3.7 14.1 14.4 10.4 23.9-3.8 9.5-14.5 14.2-23.9 10.4zM602.1 472.2c-11.9-4.7-17.8-18.2-13.1-30.1 4.7-11.9 18.2-17.8 30.1-13.1 11.9 4.7 17.8 18.2 13.1 30.1-4.7 12-18.2 17.9-30.1 13.1z"/><path transform="rotate(-37.964 729.38 392.2)" class="st44" d="M719.6 377.2h19.6v30h-19.6z"/><path transform="matrix(.02552 -.9997 .9997 .02552 197.077 1196.825)" class="st44" d="M702.6 482.3h19.6v30h-19.6z"/><path transform="rotate(-40.571 545.953 548.53)" class="st28" d="M530.9 538.8h30v19.6h-30z"/><path transform="rotate(-1.865 625.78 585.966) scale(1.00003)" class="st28" d="M616 570.9h19.6v30H616z"/><path transform="rotate(-37.969 766.36 413.698)" class="st28" d="M756.5 398.7h19.6v30h-19.6z"/><path transform="rotate(-37.954 737.789 434.418)" class="st28" d="M728 419.4h19.6v30H728z"/><path transform="rotate(-34.501 703.545 410.64)" class="st28" d="M693.7 395.6h19.6v30h-19.6z"/><path transform="rotate(-59.94 575.86 575.061)" class="st29" d="M570 565.3h11.7v19.6H570z"/><path class="st30" d="M663.9 452.2c-5-.6-8.6-5.2-8-10.2.6-5 5.2-8.6 10.2-8 5 .6 8.6 5.2 8 10.2-.6 5-5.2 8.6-10.2 8zM646.2 548.5c-5-.6-8.6-5.2-8-10.2.6-5 5.2-8.6 10.2-8 5 .6 8.6 5.2 8 10.2-.6 5-5.2 8.6-10.2 8zM561.2 519.5c-5-.6-8.6-5.2-8-10.2.6-5 5.2-8.6 10.2-8 5 .6 8.6 5.2 8 10.2-.6 5-5.1 8.6-10.2 8z"/><path class="st33" d="M728.8 460.4l-12.1-15.5M720.4 436.4c-.8 6.3-6.5 10.8-12.8 10M742.5 370l12.2 15.6M751 394.1c.8-6.3 6.5-10.8 12.8-10"/><g opacity=".8"><g><path class="st10" d="M841.6 327.5l-55.1 44"/><g><path d="M846.3 323.7c-2.9.9-6.8 1.7-9.6 1.6l4.3 2.6 1.6 4.8c.5-2.8 2.1-6.4 3.7-9z"/></g></g></g><g><path class="st0" d="M890.4 410.3c2 0 3.6 1.6 3.6 3.6v24.5c0 2-1.6 3.6-3.6 3.6h-96.3c-2 0-3.6-1.6-3.6-3.6v-24.5c0-2 1.6-3.6 3.6-3.6h96.3z"/><path class="st24" d="M890.4 410.3c2 0 3.6 1.6 3.6 3.6v24.5c0 2-1.6 3.6-3.6 3.6h-96.3c-2 0-3.6-1.6-3.6-3.6v-24.5c0-2 1.6-3.6 3.6-3.6h96.3z"/></g><text transform="translate(795.162 432.459)" class="st3 st4 st46">Retromer</text><text transform="translate(771.542 270.499)"><tspan x="0" y="0" class="st3 st4 st35">Abundant</tspan><tspan x="-16.3" y="23.2" class="st3 st4 st35">free nutrients</tspan></text><path class="st38" d="M615.6 354.5c0 7.6-12.1 13.7-27.1 13.7-15 0-27.1-6.1-27.1-13.7s12.1-13.7 27.1-13.7c15 0 27.1 6.1 27.1 13.7z"/><text transform="translate(565.397 360.045)" class="st3 st4 st39">mTOR</text><path class="st9" d="M674.7 309.6c0 1.4-1.1 2.5-2.5 2.5s-2.5-1.1-2.5-2.5 1.1-2.5 2.5-2.5c1.3 0 2.5 1.1 2.5 2.5z"/><path class="st37" d="M629.5 317.9c0 1.4-1.1 2.5-2.5 2.5s-2.5-1.1-2.5-2.5 1.1-2.5 2.5-2.5c1.4-.1 2.5 1.1 2.5 2.5zM638.1 300.7c0 1.4-1.1 2.5-2.5 2.5s-2.5-1.1-2.5-2.5 1.1-2.5 2.5-2.5 2.5 1.1 2.5 2.5z"/><path class="st9" d="M620.2 301.6c0 1.4-1.1 2.5-2.5 2.5s-2.5-1.1-2.5-2.5 1.1-2.5 2.5-2.5c1.4-.1 2.5 1.1 2.5 2.5z"/><path class="st37" d="M656.9 295.5c0 1.4-1.1 2.5-2.5 2.5s-2.5-1.1-2.5-2.5 1.1-2.5 2.5-2.5c1.4-.1 2.5 1.1 2.5 2.5zM654.4 315.3c0 1.4-1.1 2.5-2.5 2.5s-2.5-1.1-2.5-2.5 1.1-2.5 2.5-2.5 2.5 1.1 2.5 2.5zM632 282.1c0 1.4-1.1 2.5-2.5 2.5s-2.5-1.1-2.5-2.5 1.1-2.5 2.5-2.5 2.5 1.1 2.5 2.5z"/><path class="st9" d="M650.8 275.6c0 1.4-1.1 2.5-2.5 2.5s-2.5-1.1-2.5-2.5 1.1-2.5 2.5-2.5c1.3-.1 2.5 1.1 2.5 2.5z"/><path class="st37" d="M670 273c0 1.4-1.1 2.5-2.5 2.5s-2.5-1.1-2.5-2.5 1.1-2.5 2.5-2.5 2.5 1.1 2.5 2.5zM641.9 259.5c0 1.4-1.1 2.5-2.5 2.5s-2.5-1.1-2.5-2.5 1.1-2.5 2.5-2.5c1.3 0 2.5 1.1 2.5 2.5zM674.7 295.5c0 1.4-1.1 2.5-2.5 2.5s-2.5-1.1-2.5-2.5 1.1-2.5 2.5-2.5c1.3-.1 2.5 1.1 2.5 2.5z"/><path class="st21" d="M603.2 369.7h34.4v14.5h-34.4z"/><text transform="translate(605.57 382.04)" class="st3 st4 st47">RAG</text><path opacity=".5" fill="#00aeef" d="M636.9 348h56.3v14.5h-56.3z"/><text transform="translate(639.215 360.596)" class="st3 st4 st47">GATOR</text><path opacity=".4" fill="#ed1c24" d="M681.4 326.2h73.4v14.5h-73.4z"/><text transform="translate(686.396 338.513)" class="st3 st4 st47">SENSORS</text><g><g><path class="st34" d="M679.8 295.5h30.7v24.8"/><g><path class="st36" d="M710.5 323.9c-.6-1.7-1.7-3.8-2.9-5.1l2.9 1 2.9-1c-1.1 1.3-2.2 3.4-2.9 5.1z"/></g></g></g><g><g><path class="st34" d="M679.8 309.1h20.9v11.1"/><g><path class="st36" d="M700.7 323.8c-.6-1.7-1.7-3.8-2.9-5.1l2.9 1 2.9-1c-1.1 1.3-2.2 3.4-2.9 5.1z"/></g></g></g><g><g><path class="st34" d="M711.1 345.3v10h-11"/><g><path class="st36" d="M696.5 355.3c1.7-.6 3.8-1.7 5.1-2.9l-1 2.9 1 2.9c-1.3-1.2-3.4-2.3-5.1-2.9z"/></g></g></g><g><g><path class="st34" d="M656.7 367v10h-11.1"/><g><path class="st36" d="M642 377c1.7-.6 3.8-1.7 5.1-2.9l-1 2.9 1 2.9c-1.3-1.2-3.4-2.3-5.1-2.9z"/></g></g></g><g><g><path class="st34" d="M595.6 377.9h-10v-10.8"/><g><path class="st36" d="M585.6 363.5c.6 1.7 1.7 3.8 2.9 5.1l-2.9-1-2.9 1c1.2-1.3 2.3-3.4 2.9-5.1z"/></g></g></g><path class="st30" d="M732.9 163.1c0 5.1-4.1 9.2-9.2 9.2s-9.2-4.1-9.2-9.2 4.1-9.2 9.2-9.2 9.2 4.1 9.2 9.2zM702.2 85.4c0 5.1-4.1 9.2-9.2 9.2s-9.2-4.1-9.2-9.2 4.1-9.2 9.2-9.2 9.2 4.1 9.2 9.2zM740.4 114c0 5.1-4.1 9.2-9.2 9.2s-9.2-4.1-9.2-9.2 4.1-9.2 9.2-9.2 9.2 4.2 9.2 9.2zM760.2 72.9c0 5.1-4.1 9.2-9.2 9.2s-9.2-4.1-9.2-9.2 4.1-9.2 9.2-9.2c5.1.1 9.2 4.2 9.2 9.2z"/><path class="st43" d="M449.6 129.5c-1.3 5.2-6.6 8.2-11.7 6.9-5.2-1.3-8.2-6.6-6.9-11.7 1.3-5.2 6.6-8.2 11.7-6.9 5.1 1.3 8.2 6.6 6.9 11.7zM393.8 23.2c-1.3 5.2-6.6 8.2-11.7 6.9-5.2-1.3-8.2-6.6-6.9-11.7 1.3-5.2 6.6-8.2 11.7-6.9 5.2 1.3 8.3 6.6 6.9 11.7zM472.2 97.3c-1.5 5.8-7.5 9.3-13.3 7.8-5.8-1.5-9.3-7.5-7.8-13.3 1.5-5.8 7.5-9.3 13.3-7.8 5.8 1.5 9.3 7.5 7.8 13.3zM472.1 55.9c-1.5 5.8-7.5 9.3-13.3 7.8-5.8-1.5-9.3-7.5-7.8-13.3 1.5-5.8 7.5-9.3 13.3-7.8 5.8 1.5 9.3 7.4 7.8 13.3zM450.8 13.9c-1.5 5.8-7.5 9.3-13.3 7.8-5.8-1.5-9.3-7.5-7.8-13.3 1.5-5.8 7.5-9.3 13.3-7.8 5.8 1.5 9.3 7.5 7.8 13.3zM478.5 135.5c-1.2 4.6-5.8 7.3-10.4 6.1-4.6-1.2-7.3-5.8-6.1-10.4 1.2-4.6 5.8-7.3 10.4-6.1 4.5 1.2 7.3 5.8 6.1 10.4zM515.5 22.9c-1.2 4.6-5.8 7.3-10.4 6.1-4.6-1.2-7.3-5.8-6.1-10.4 1.2-4.6 5.8-7.3 10.4-6.1 4.6 1.2 7.3 5.9 6.1 10.4z"/><text transform="translate(371.277 189.229)" class="st8 st6 st18">Macropinocytosis</text><text transform="translate(645.001 209.31)"><tspan x="0" y="0" class="st8 st6 st46">Receptor mediated</tspan><tspan x="34" y="26.1" class="st8 st6 st46">endocytosis</tspan></text><text transform="translate(27.347 115.688)"><tspan x="0" y="0" class="st3 st4 st18">Nutrient</tspan><tspan x="-21.2" y="29" class="st3 st4 st18">transporters</tspan></text><text transform="translate(132.573 19.499)"><tspan x="0" y="0" class="st8 st6 st35">Exogenous</tspan><tspan x="-11.9" y="23.2" class="st8 st6 st35">free nutrients</tspan></text><text transform="translate(602.123 19.499)"><tspan x="0" y="0" class="st8 st6 st35">Exogenous</tspan><tspan x="-63.2" y="23.2" class="st8 st6 st35">macromolecular nutrients</tspan></text><text transform="translate(799.445 110.854)"><tspan x="0" y="0" class="st3 st4 st18">Plasma</tspan><tspan x="-19.3" y="29" class="st3 st4 st18">membrane</tspan></text><g><g><path class="st10" d="M174.5 180.7v-67.5"/><g><path d="M174.5 186.8c1.1-2.8 2.9-6.4 4.8-8.5l-4.8 1.7-4.8-1.7c2 2.1 3.8 5.6 4.8 8.5z"/></g></g></g><g><path class="st21" d="M723.7 182.3c-4.3 0-8.5-1.3-11.9-3.7-4-2.8-6.5-7-7.2-11.8-.9-6.8 2.8-10.8 5.8-14 2.3-2.5 4.3-4.6 4.3-7.7 0-1.6-.4-2.8-1.2-3.6-2.3-2.2-7.9-1.8-11.6-1.6-8.2.5-16.2 0-23.9-.4-2.7-.2-5.3-.3-8-.4-5.7-.2-11.3-.3-16.8-.3-19.8-.1-38.4-.2-57.2-9.3-19.9-9.7-33.7-25.8-44.5-40.3l-.4-.6c-9.8-13.1-19.9-26.7-35.6-31.3-4.1-1.2-18-4.6-25.6 1.9-5.9 5-6.8 14.5-2.7 28 .7 2.3 1.5 4.6 2.2 7 6.4 19.9 14.4 44.6-5.9 61-8.7 7.1-20.8 10.1-33.1 8.2-12-1.8-22.4-8-28.5-17-10.5-15.6-4.9-31.5.6-47 1.8-5.1 3.5-9.9 4.6-14.7 2.9-12.3 4.5-24.3-3.9-29.4-8.7-5.2-18.8-5.9-27.2-2-11.8 5.5-20.4 17.3-28.6 28.8-4.3 6-8.8 12.2-13.6 17.3-16.8 17.6-35.4 27.7-57 30.9-8.3 1.2-16.8 2.2-25 3.2-17.4 2.1-35.4 4.2-52.7 8.3-17.7 4.2-35.8 8-53.2 11.6-34.5 7.3-70.2 14.8-104.7 25.4l-1.4-4.6c34.7-10.7 70.5-18.2 105.2-25.5 17.4-3.7 35.4-7.5 53.1-11.6 17.6-4.1 35.7-6.3 53.2-8.4 8.2-1 16.6-2 24.9-3.2 20.8-3 38-12.3 54.2-29.4 4.6-4.9 8.8-10.7 13.2-16.8 8.6-11.9 17.5-24.3 30.5-30.3 9.8-4.6 21.7-3.7 31.7 2.3 12.7 7.6 8.3 25.9 6.2 34.6-1.2 5.1-3 10.2-4.8 15.2-5.3 15-10.3 29.2-1.1 42.7 5.3 7.9 14.5 13.3 25.2 14.9 11 1.6 21.7-1 29.4-7.2 17.7-14.4 10.9-35.4 4.3-55.8-.8-2.4-1.5-4.8-2.3-7.1-4.8-15.6-3.4-26.7 4.1-33.1 9.1-7.8 24.1-4.6 30.1-2.8 17.3 5 28.4 19.9 38.1 33l.4.6c10.5 14 23.7 29.6 42.7 38.9 17.8 8.6 35.9 8.7 55.1 8.8 5.5 0 11.3.1 17 .3 2.7.1 5.4.3 8.1.4 7.9.4 15.5.9 23.2.4 5-.3 11.6-.7 15.4 2.9 1.8 1.7 2.8 4.1 2.7 7.1 0 5-3 8.1-5.6 10.9-2.8 3-5.1 5.5-4.5 10.1.6 4.4 3.2 7 5.2 8.5 3.4 2.4 7.9 3.4 12.1 2.5 4.1-.8 7.8-3.2 9.8-6.3 1.5-2.3 1.9-4.9 1.2-7.5-.3-1.3-1.5-3.4-2.7-5.4-2.6-4.6-5.6-9.8-3.7-14.1 1-2.3 3.3-3.9 6.7-4.7 4.9-1.1 11.1.7 16.7 2.3 2.5.7 4.9 1.4 6.9 1.7 6 1 12.1 1.9 18.1 2.8 5.4.8 10.8 1.6 16.2 2.5 21.3 3.4 42.5 7.2 63.1 11.1l-.9 4.7c-20.5-3.9-41.7-7.7-62.9-11.1-5.4-.9-10.7-1.7-16.1-2.5-6.1-.9-12.1-1.8-18.2-2.8-2.2-.4-4.8-1.1-7.5-1.9-5-1.4-10.6-3-14.3-2.2-1.3.3-2.9.9-3.4 1.9-.9 2 1.7 6.5 3.5 9.7 1.4 2.4 2.7 4.6 3.2 6.6 1 3.9.4 7.9-1.8 11.3-2.7 4.3-7.5 7.4-12.9 8.5-1.5.5-2.8.6-4.1.6z"/></g><g><path class="st42" d="M858 164.2c-20.5-3.9-41.7-7.7-62.9-11.1-5.4-.9-10.7-1.7-16.1-2.5-6.1-.9-12.1-1.8-18.2-2.8-2.2-.4-4.8-1.1-7.5-1.9-5-1.4-10.6-3-14.3-2.2-1.3.3-2.9.9-3.4 1.9-.9 2 1.7 6.5 3.5 9.7 1.4 2.4 2.7 4.6 3.2 6.6 1 3.9.4 7.9-1.8 11.3-2.7 4.3-7.5 7.4-12.9 8.5-1.3.3-2.6.4-3.9.4-4.3 0-8.5-1.3-11.9-3.7-4-2.8-6.5-7-7.2-11.8-.9-6.8 2.8-10.8 5.8-14 2.3-2.5 4.3-4.6 4.3-7.7 0-1.6-.4-2.8-1.2-3.6-2.3-2.2-7.9-1.8-11.6-1.6-8.2.5-16.2 0-23.9-.4-2.7-.2-5.3-.3-8-.4-5.7-.2-11.3-.3-16.8-.3-19.8-.1-38.4-.2-57.2-9.3-19.9-9.7-33.7-25.8-44.5-40.3l-.4-.6c-9.8-13.1-19.9-26.7-35.6-31.3-4.1-1.2-18-4.6-25.6 1.9-5.9 5-6.8 14.5-2.7 28 .7 2.3 1.5 4.6 2.2 7 6.4 19.9 14.4 44.6-5.9 61-8.7 7.1-20.8 10.1-33.1 8.2-12-1.8-22.4-8-28.5-17-10.5-15.6-4.9-31.5.6-47 1.8-5.1 3.5-9.9 4.6-14.7 2.9-12.3 4.5-24.3-3.9-29.4-8.7-5.2-18.8-5.9-27.2-2-12 5.7-20.5 17.5-28.8 28.9-4.3 6-8.8 12.2-13.6 17.3-16.8 17.6-35.4 27.7-57 30.9-8.3 1.2-16.8 2.2-25 3.2-17.4 2.1-35.4 4.2-52.7 8.3-17.7 4.2-35.8 8-53.2 11.6-34.5 7.3-70.2 14.8-104.7 25.4"/><path class="st42" d="M59.6 174.1c34.7-10.7 70.5-18.2 105.2-25.5 17.4-3.7 35.4-7.5 53.1-11.6 17.6-4.1 35.7-6.3 53.2-8.4 8.2-1 16.6-2 24.9-3.2 20.8-3 38-12.3 54.2-29.4 4.6-4.9 8.8-10.7 13.2-16.8 8.6-11.9 17.5-24.3 30.5-30.3 9.8-4.6 21.7-3.7 31.7 2.3 12.7 7.6 8.3 25.9 6.2 34.6-1.2 5.1-3 10.2-4.8 15.2-5.3 15-10.3 29.2-1.1 42.7 5.3 7.9 14.5 13.3 25.2 14.9 11 1.6 21.7-1 29.4-7.2 17.7-14.4 10.9-35.4 4.3-55.8-.8-2.4-1.5-4.8-2.3-7.1-4.8-15.6-3.4-26.7 4.1-33.1 9.1-7.8 24.1-4.6 30.1-2.8 17.3 5 28.4 19.9 38.1 33l.4.6c10.5 14 23.7 29.6 42.7 38.9 17.8 8.6 35.9 8.7 55.1 8.8 5.5 0 11.3.1 17 .3 2.7.1 5.4.3 8.1.4 7.9.4 15.5.9 23.2.4 5-.3 11.6-.7 15.4 2.9 1.8 1.7 2.8 4.1 2.7 7.1 0 5-3 8.1-5.6 10.9-2.8 3-5.1 5.5-4.5 10.1.6 4.4 3.2 7 5.2 8.5 3.4 2.4 7.9 3.4 12.1 2.5 4.1-.8 7.8-3.2 9.8-6.3 1.5-2.3 1.9-4.9 1.2-7.5-.3-1.3-1.5-3.4-2.7-5.4-2.6-4.6-5.6-9.8-3.7-14.1 1-2.3 3.3-3.9 6.7-4.7 4.9-1.1 11.1.7 16.7 2.3 2.5.7 4.9 1.4 6.9 1.7 6 1 12.1 1.9 18.1 2.8 5.4.8 10.8 1.6 16.2 2.5 21.3 3.4 42.5 7.2 63.1 11.1"/></g><path class="st50" d="M714 156.9l-2.3-3.9 2.3-4h4.5l2.3 4-2.3 3.9zM714 164.8l-2.3-3.9 2.3-4h4.5l2.3 4-2.3 3.9zM720.9 168.8l-2.2-4 2.2-3.9h4.6l2.3 3.9-2.3 4zM720.9 153l-2.2-4 2.2-3.9h4.6l2.3 3.9-2.3 4z"/><path class="st50" d="M720.9 160.9l-2.2-4 2.2-3.9h4.6l2.3 3.9-2.3 4zM727.9 156.9l-2.3-3.9 2.3-4h4.5l2.3 4-2.3 3.9z"/><path class="st50" d="M727.6 164.8l-2.3-3.9 2.3-4h4.6l2.3 4-2.3 3.9zM727.6 172.8l-2.3-4 2.3-4h4.6l2.3 4-2.3 4z"/><path class="st50" d="M734.5 168.8l-2.3-4 2.3-3.9h4.5l2.3 3.9-2.3 4zM734.7 160.9l-2.3-4 2.3-3.9h4.6l2.2 3.9-2.2 4zM707.1 160.9l-2.3-4 2.3-3.9h4.6l2.2 3.9-2.2 4zM707.1 168.8l-2.3-4 2.3-3.9h4.6l2.2 3.9-2.2 4z"/><path class="st50" d="M707.1 176.7l-2.3-3.9 2.3-4h4.6l2.2 4-2.2 3.9zM714 180.7l-2.3-4 2.3-3.9h4.5l2.3 3.9-2.3 4zM734.7 176.7l-2.3-3.9 2.3-4h4.6l2.2 4-2.2 3.9z"/><path class="st51" d="M417.7 150.8L333 121.4M408.7 137.7l-58.6-31.9M412.9 115.7l-57.2-16.2M349.7 142.7l22.8-60.2M361.9 94.6l60.6-4.2M367.6 86.4l55.3-13.9M379.6 70.4l37.9-9.6M359.1 142.7l45.4-87M367 147.8l55.6-85.4M373.9 150.1l44.4-43.4M502.4 151.6l78.7-25.9M493 148.5l70.8-36.9M498.6 123l59.6-17.8M564.3 148.5l-22.9-60.3M552 100.3l-60.6-4.2M546.3 92.2l-55.3-14M539.8 77.4l-50.3-16M554.9 148.5l-45.4-87.1M546.9 153.5l-55.5-85.4M540 155.9l-42.5-41.5"/><path class="st28" d="M164.8 134.1h19.6v30h-19.6z"/><path class="st37" d="M164.8 85.5c0 1.4-1.1 2.5-2.5 2.5s-2.5-1.1-2.5-2.5 1.1-2.5 2.5-2.5 2.5 1.1 2.5 2.5zM212.6 60.4c0 1.4-1.1 2.5-2.5 2.5s-2.5-1.1-2.5-2.5 1.1-2.5 2.5-2.5 2.5 1.1 2.5 2.5zM179.6 72.9c0 1.4-1.1 2.5-2.5 2.5s-2.5-1.1-2.5-2.5 1.1-2.5 2.5-2.5c1.4-.1 2.5 1.1 2.5 2.5zM157.4 65.5c0 1.4-1.1 2.5-2.5 2.5s-2.5-1.1-2.5-2.5 1.1-2.5 2.5-2.5 2.5 1.1 2.5 2.5zM177.1 101.9c0 1.4-1.1 2.5-2.5 2.5s-2.5-1.1-2.5-2.5 1.1-2.5 2.5-2.5c1.3 0 2.5 1.1 2.5 2.5zM189.3 90.9c0 1.4-1.1 2.5-2.5 2.5s-2.5-1.1-2.5-2.5 1.1-2.5 2.5-2.5c1.3 0 2.5 1.1 2.5 2.5zM202.8 77.7c0 1.4-1.1 2.5-2.5 2.5s-2.5-1.1-2.5-2.5 1.1-2.5 2.5-2.5c1.4-.1 2.5 1.1 2.5 2.5zM182.3 211.8c0 1.4-1.1 2.5-2.5 2.5s-2.5-1.1-2.5-2.5 1.1-2.5 2.5-2.5 2.5 1.1 2.5 2.5zM182.3 233c0 1.4-1.1 2.5-2.5 2.5s-2.5-1.1-2.5-2.5 1.1-2.5 2.5-2.5c1.4-.1 2.5 1.1 2.5 2.5zM177.1 196.6c0 1.4-1.1 2.5-2.5 2.5s-2.5-1.1-2.5-2.5 1.1-2.5 2.5-2.5c1.3 0 2.5 1.1 2.5 2.5zM162.2 218.8c0 1.4-1.1 2.5-2.5 2.5s-2.5-1.1-2.5-2.5 1.1-2.5 2.5-2.5c1.4-.1 2.5 1.1 2.5 2.5zM200.3 221.4c0 1.4-1.1 2.5-2.5 2.5s-2.5-1.1-2.5-2.5 1.1-2.5 2.5-2.5 2.5 1.1 2.5 2.5zM154.9 201.7c0 1.4-1.1 2.5-2.5 2.5s-2.5-1.1-2.5-2.5 1.1-2.5 2.5-2.5c1.3-.1 2.5 1.1 2.5 2.5zM200.3 200.3c0 1.4-1.1 2.5-2.5 2.5s-2.5-1.1-2.5-2.5 1.1-2.5 2.5-2.5 2.5 1.2 2.5 2.5z"/><g><path class="st33" d="M723.7 188.6V175M729.3 172c-3.1 3.1-8.1 3.1-11.2 0"/></g><path class="st50" d="M720.9 184.6l-2.2-3.9 2.2-4h4.6l2.3 4-2.3 3.9zM720.9 176.7l-2.2-3.9 2.2-4h4.6l2.3 4-2.3 3.9zM727.9 180.7l-2.3-4 2.3-3.9h4.5l2.3 3.9-2.3 4zM714 172.8l-2.3-4 2.3-4h4.5l2.3 4-2.3 4z"/><g><path class="st20" d="M602.4 252.1c0-26.1 13.7-47.2 30.6-47.2"/><g><g><path class="st20" d="M602.4 283.9v-1"/><path fill="none" stroke="#000" stroke-width="3" stroke-miterlimit="10" stroke-dasharray="1.9168,1.9168" d="M602.4 281v-25.9"/><path class="st20" d="M602.4 254.1v-1"/><g><path d="M602.4 292.9c1.6-4.3 4.3-9.5 7.1-12.8l-7.1 2.6-7.1-2.6c2.8 3.3 5.5 8.6 7.1 12.8z"/></g></g></g><path class="st20" d="M602.4 252.1c0-36-13.7-65.1-30.6-65.1"/></g><g><g><path fill="none" stroke="#00a651" stroke-width="5" stroke-miterlimit="10" d="M321.5 155.9H353"/><g><path class="st36" d="M362.1 155.9c-4.3 1.6-9.5 4.3-12.8 7.1l2.6-7.1-2.6-7.1c3.2 2.8 8.5 5.5 12.8 7.1z"/></g></g></g><path d="M314.1 159.2c0 11.9-15.8 21.6-35.2 21.6-19.4 0-35.2-9.7-35.2-21.6 0-11.9 15.8-21.6 35.2-21.6 19.4 0 35.2 9.7 35.2 21.6z" opacity=".3" fill="#00a651"/><path fill="none" stroke="#231f20" stroke-width="2" stroke-miterlimit="10" d="M298.7 141.3v-13.8"/><text transform="translate(253.874 157.521)" class="st4 st56">KRAS</text><text transform="translate(255.316 173.71)" class="st3 st4 st56">G12X</text><path class="st57" d="M541.4 428l7.5 5.4M544.6 427l5.6 4"/><g><path class="st0" d="M542.4 395.3c2 0 3.6 1.6 3.6 3.6v27.5c0 2-1.6 3.6-3.6 3.6h-94.8c-2 0-3.6-1.6-3.6-3.6v-27.5c0-2 1.6-3.6 3.6-3.6h94.8z"/><path class="st24" d="M542.4 395.3c2 0 3.6 1.6 3.6 3.6v27.5c0 2-1.6 3.6-3.6 3.6h-94.8c-2 0-3.6-1.6-3.6-3.6v-27.5c0-2 1.6-3.6 3.6-3.6h94.8z"/></g><text transform="matrix(.583 0 0 .583 449.569 414.413)" class="st36 st4 st58">GTP</text><text transform="translate(479.641 423.253)" class="st3 st4 st58">Rab7</text><text transform="translate(470.748 371.984)" class="st8 st4" font-size="57.922">?</text><g><g><path fill="none" stroke="#ed1c24" stroke-width="2" stroke-miterlimit="10" d="M556.9 354.5h-49.2"/><g><path fill="#ed1c24" d="M507 349.9h1.4v9.1H507z"/></g></g></g></svg>